<svg width="27" height="24" viewBox="0 0 27 24" fill="current" xmlns="http://www.w3.org/2000/svg">
<path d="M25.4906 13.4813C26.2875 13.4813 26.9906 12.825 26.9906 11.9766C27.0375 11.5547 26.85 11.1797 26.475 10.8516L14.5078 0.328125C14.2266 0.09375 13.8516 0 13.5234 0C13.1953 0 12.8203 0.046875 12.4922 0.375L0.46875 10.8516C0.140625 11.1797 0 11.5547 0 11.9766C0 12.8203 0.65625 13.4813 1.5 13.4813H3V21C3 22.6547 4.34531 24 6 24H21.0234C22.6875 24 24.0328 22.65 24.0234 20.9859L23.9906 13.4766H25.4906V13.4813ZM12 9.75C12 9.3375 12.3375 9 12.75 9H14.25C14.6625 9 15 9.3375 15 9.75V12H17.25C17.6625 12 18 12.3375 18 12.75V14.25C18 14.6625 17.6625 15 17.25 15H15V17.25C15 17.6625 14.6625 18 14.25 18H12.75C12.3375 18 12 17.6625 12 17.25V15H9.75C9.3375 15 9 14.6625 9 14.25V12.75C9 12.3375 9.3375 12 9.75 12H12V9.75Z"/>
</svg>
