<svg width="247" height="247" viewBox="0 0 247 247" fill="none" xmlns="http://www.w3.org/2000/svg">
<path d="M148.856 108.47L213.269 130.976" stroke="#1C191A" stroke-width="5"/>
<path d="M91.1038 127.719L148.992 108.606" stroke="#1C191A" stroke-width="5"/>
<path d="M149.654 108.949L112.427 200.664" stroke="#1C191A" stroke-width="5"/>
<path d="M92.0853 127.057L112.427 200.344" stroke="#1C191A" stroke-width="5"/>
<path d="M55.8943 182.944L122.62 59.5491" stroke="#1C191A" stroke-width="5"/>
<path d="M55.5512 181.962L112.403 201.031L55.5512 181.962Z" stroke="#1C191A" stroke-width="5"/>
<path d="M212.47 130.018L112.474 200.983" stroke="#1C191A" stroke-width="5"/>
<path d="M122.644 59.5967L212.79 130.361" stroke="#1C191A" stroke-width="5"/>
<path d="M91.8136 128.062L123.33 59.2773" stroke="#1C191A" stroke-width="5"/>
<path d="M122.963 37.6411C135.08 37.6411 144.919 47.4794 144.919 59.5967C144.919 71.7139 135.08 81.5522 122.963 81.5522C110.846 81.5522 101.008 71.7139 101.008 59.5967C101.008 47.4794 110.846 37.6411 122.963 37.6411Z" fill="#8360F4"/>
<path d="M122.963 37.6411C135.08 37.6411 144.919 47.4794 144.919 59.5967C144.919 71.7139 135.08 81.5522 122.963 81.5522C110.846 81.5522 101.008 71.7139 101.008 59.5967C101.008 47.4794 110.846 37.6411 122.963 37.6411Z" stroke="#1C191A" stroke-width="5"/>
<path d="M112.746 177.703C124.863 177.703 134.702 187.541 134.702 199.658C134.702 211.776 124.863 221.614 112.746 221.614C100.629 221.614 90.7906 211.776 90.7906 199.658C90.7906 187.541 100.629 177.703 112.746 177.703Z" fill="#71D2DF"/>
<path d="M112.746 177.703C124.863 177.703 134.702 187.541 134.702 199.658C134.702 211.776 124.863 221.614 112.746 221.614C100.629 221.614 90.7906 211.776 90.7906 199.658C90.7906 187.541 100.629 177.703 112.746 177.703Z" stroke="#1C191A" stroke-width="5"/>
<path d="M91.7898 105.444C103.907 105.444 113.745 115.282 113.745 127.4C113.745 139.517 103.907 149.355 91.7898 149.355C79.6726 149.355 69.8343 139.517 69.8343 127.4C69.8343 115.282 79.6726 105.444 91.7898 105.444Z" fill="#6599ED"/>
<path d="M91.7898 105.444C103.907 105.444 113.745 115.282 113.745 127.4C113.745 139.517 103.907 149.355 91.7898 149.355C79.6726 149.355 69.8343 139.517 69.8343 127.4C69.8343 115.282 79.6726 105.444 91.7898 105.444Z" stroke="#1C191A" stroke-width="5"/>
<path d="M149.637 86.3281C161.754 86.3281 171.592 96.1664 171.592 108.284C171.592 120.401 161.754 130.239 149.637 130.239C137.519 130.239 127.681 120.401 127.681 108.284C127.681 96.1664 137.519 86.3281 149.637 86.3281Z" fill="#DB535B"/>
<path d="M149.637 86.3281C161.754 86.3281 171.592 96.1664 171.592 108.284C171.592 120.401 161.754 130.239 149.637 130.239C137.519 130.239 127.681 120.401 127.681 108.284C127.681 96.1664 137.519 86.3281 149.637 86.3281Z" stroke="#1C191A" stroke-width="5"/>
<path d="M55.575 160.326C67.6923 160.326 77.5306 170.164 77.5306 182.282C77.5306 194.399 67.6923 204.237 55.575 204.237C43.4577 204.237 33.6194 194.399 33.6194 182.282C33.6194 170.164 43.4577 160.326 55.575 160.326Z" fill="#F6DB40"/>
<path d="M55.575 160.326C67.6923 160.326 77.5306 170.164 77.5306 182.282C77.5306 194.399 67.6923 204.237 55.575 204.237C43.4577 204.237 33.6194 194.399 33.6194 182.282C33.6194 170.164 43.4577 160.326 55.575 160.326Z" stroke="#1C191A" stroke-width="5"/>
<path d="M212.471 107.719C224.588 107.719 234.426 117.558 234.426 129.675C234.426 141.792 224.588 151.631 212.471 151.631C200.353 151.631 190.515 141.792 190.515 129.675C190.515 117.558 200.353 107.719 212.471 107.719Z" fill="#F6DB40"/>
<path d="M212.471 107.719C224.588 107.719 234.426 117.558 234.426 129.675C234.426 141.792 224.588 151.631 212.471 151.631C200.353 151.631 190.515 141.792 190.515 129.675C190.515 117.558 200.353 107.719 212.471 107.719Z" stroke="#1C191A" stroke-width="5"/>
</svg>
