<svg width="325" height="202" viewBox="0 0 325 202" fill="none" xmlns="http://www.w3.org/2000/svg">
<g clip-path="url(#clip0_413_1047)">
<path d="M183.625 69.4625L183.474 69.2041L216.639 50.0186L216.714 50.0593L250.98 68.7583L250.835 69.0205L216.643 50.3621L183.625 69.4625Z" fill="#42E8E0"/>
<g opacity="0.787433">
<g style="mix-blend-mode:lighten">
<path d="M141.365 66.1638C140.923 66.1638 140.434 66.019 139.932 65.7294L129.929 59.9854L130.08 59.727L140.083 65.4701C140.847 65.9092 141.557 65.9821 142.081 65.6821C142.606 65.3802 142.897 64.7309 142.897 63.8545V61.4562C142.897 60.4681 143.239 59.727 143.862 59.3692C144.484 59.0134 145.302 59.0872 146.161 59.5822L148.25 60.7813L148.1 61.0407L146.011 59.8406C145.247 59.4024 144.537 59.3285 144.012 59.6286C143.487 59.9305 143.197 60.5797 143.197 61.4562V63.8545C143.197 64.8426 142.854 65.5836 142.231 65.9414C141.972 66.089 141.681 66.1638 141.365 66.1638Z" fill="#42E8E0"/>
</g>
<g style="mix-blend-mode:lighten">
<path d="M137.475 68.3889C137.032 68.3889 136.544 68.2441 136.041 67.9545L126.039 62.2114L126.189 61.9521L136.193 67.6961C136.955 68.1334 137.665 68.21 138.19 67.9072C138.716 67.6062 139.005 66.9579 139.005 66.0805V63.6822C139.005 62.6941 139.348 61.954 139.97 61.5962C140.591 61.2375 141.41 61.3132 142.27 61.8073L144.359 63.0074L144.209 63.2658L142.12 62.0666C141.357 61.6293 140.648 61.5546 140.121 61.8555C139.596 62.1565 139.307 62.8058 139.307 63.6822V66.0805C139.307 67.0686 138.963 67.8097 138.341 68.1674C138.083 68.316 137.79 68.3889 137.475 68.3889Z" fill="#42E8E0"/>
</g>
<g style="mix-blend-mode:lighten">
<path d="M133.584 70.615C133.141 70.615 132.653 70.4702 132.151 70.1806L122.148 64.4366L122.298 64.1782L132.301 69.9212C133.065 70.3604 133.775 70.4352 134.3 70.1333C134.825 69.8323 135.114 69.183 135.114 68.3066V65.9073C135.114 64.9192 135.458 64.1791 136.08 63.8214C136.702 63.4627 137.518 63.5384 138.38 64.0334L140.469 65.2325L140.318 65.4918L138.228 64.2917C137.465 63.8554 136.756 63.7788 136.231 64.0807C135.705 64.3817 135.416 65.0309 135.416 65.9073V68.3066C135.416 69.2947 135.073 70.0348 134.451 70.3926C134.192 70.5412 133.899 70.615 133.584 70.615Z" fill="#42E8E0"/>
</g>
<g style="mix-blend-mode:lighten">
<path d="M129.693 72.8401C129.251 72.8401 128.763 72.6953 128.26 72.4056L118.256 66.6626L118.408 66.4042L128.41 72.1473C129.173 72.5855 129.883 72.6621 130.409 72.3593C130.934 72.0583 131.224 71.409 131.224 70.5326V68.1334C131.224 67.1453 131.566 66.4051 132.189 66.0474C132.81 65.6887 133.629 65.7644 134.489 66.2584L136.578 67.4585L136.428 67.7169L134.338 66.5178C133.574 66.0815 132.864 66.0057 132.339 66.3067C131.814 66.6077 131.524 67.2569 131.524 68.1334V70.5326C131.524 71.5207 131.182 72.2608 130.559 72.6186C130.301 72.7672 130.008 72.8401 129.693 72.8401Z" fill="#42E8E0"/>
</g>
<g style="mix-blend-mode:lighten">
<path d="M125.803 75.0661C125.36 75.0661 124.872 74.9213 124.369 74.6317L114.367 68.8886L114.517 68.6302L124.52 74.3733C125.284 74.8125 125.994 74.8863 126.518 74.5844C127.044 74.2834 127.333 73.6341 127.333 72.7577V70.3585C127.333 69.3704 127.676 68.6302 128.298 68.2725C128.92 67.9138 129.736 67.9904 130.597 68.4845L132.687 69.6836L132.536 69.943L130.447 68.7429C129.684 68.3066 128.974 68.2308 128.448 68.5328C127.923 68.8337 127.634 69.4821 127.634 70.3585V72.7577C127.634 73.7458 127.291 74.4869 126.669 74.8447C126.41 74.9932 126.118 75.0661 125.803 75.0661Z" fill="#42E8E0"/>
</g>
<g style="mix-blend-mode:lighten">
<path d="M121.911 77.2922C121.468 77.2922 120.981 77.1464 120.479 76.8578L110.475 71.1147L110.626 70.8563L120.629 76.5994C121.393 77.0376 122.103 77.1133 122.628 76.8105C123.153 76.5095 123.442 75.8602 123.442 74.9838V72.5846C123.442 71.5965 123.785 70.8563 124.407 70.4986C125.03 70.1408 125.846 70.2156 126.707 70.7106L128.797 71.9097L128.645 72.1681L126.556 70.9699C125.793 70.5317 125.083 70.4569 124.558 70.7579C124.032 71.0589 123.743 71.7081 123.743 72.5846V74.9838C123.743 75.9719 123.4 76.712 122.778 77.0698C122.519 77.2184 122.226 77.2922 121.911 77.2922Z" fill="#42E8E0"/>
</g>
<g style="mix-blend-mode:lighten">
<path d="M118.02 79.5183C117.578 79.5183 117.09 79.3725 116.587 79.0838L106.585 73.3408L106.735 73.0814L116.738 78.8255C117.503 79.2627 118.213 79.3384 118.737 79.0356C119.262 78.7346 119.552 78.0863 119.552 77.2099V74.8097C119.552 73.8216 119.894 73.0814 120.517 72.7237C121.139 72.3659 121.957 72.4416 122.816 72.9366L124.905 74.1367L124.755 74.3951L122.666 73.195C121.903 72.7568 121.193 72.682 120.667 72.984C120.142 73.2849 119.852 73.9332 119.852 74.8097V77.2099C119.852 78.198 119.51 78.9381 118.887 79.2958C118.629 79.4444 118.336 79.5183 118.02 79.5183Z" fill="#42E8E0"/>
</g>
<g style="mix-blend-mode:lighten">
<path d="M114.13 81.7443C113.687 81.7443 113.2 81.5986 112.697 81.3099L102.694 75.5659L102.844 75.3075L112.848 81.0506C113.612 81.4878 114.321 81.5645 114.845 81.2616C115.371 80.9607 115.66 80.3114 115.66 79.435V77.0367C115.66 76.0486 116.004 75.3075 116.626 74.9498C117.248 74.592 118.065 74.6677 118.925 75.1627L121.015 76.3619L120.864 76.6212L118.775 75.4211C118.012 74.9829 117.301 74.9062 116.777 75.2091C116.251 75.5101 115.962 76.1593 115.962 77.0367V79.435C115.962 80.4231 115.619 81.1632 114.997 81.521C114.738 81.6696 114.446 81.7443 114.13 81.7443Z" fill="#42E8E0"/>
</g>
<g style="mix-blend-mode:lighten">
<path d="M110.239 83.9694C109.797 83.9694 109.308 83.8246 108.806 83.535L98.8032 77.792L98.9536 77.5326L108.956 83.2766C109.72 83.7158 110.43 83.7877 110.955 83.4877C111.48 83.1858 111.77 82.5375 111.77 81.661V79.2627C111.77 78.2746 112.113 77.5326 112.735 77.1749C113.358 76.8199 114.175 76.8928 115.035 77.3878L117.124 78.5879L116.974 78.8463L114.884 77.6471C114.121 77.208 113.411 77.1361 112.886 77.4351C112.361 77.7371 112.071 78.3863 112.071 79.2627V81.661C112.071 82.6491 111.728 83.3902 111.105 83.748C110.846 83.8956 110.555 83.9694 110.239 83.9694Z" fill="#42E8E0"/>
</g>
<g style="mix-blend-mode:lighten">
<path d="M106.348 86.1955C105.906 86.1955 105.418 86.0507 104.915 85.7611L94.9126 80.017L95.063 79.7587L105.067 85.5017C105.829 85.9399 106.54 86.0166 107.064 85.7137C107.59 85.4128 107.879 84.7635 107.879 83.8861V81.4878C107.879 80.4997 108.221 79.7596 108.844 79.4018C109.465 79.0431 110.284 79.1207 111.144 79.6138L113.233 80.813L113.083 81.0723L110.994 79.8722C110.231 79.4359 109.521 79.3602 108.995 79.6612C108.47 79.9621 108.181 80.6114 108.181 81.4878V83.8861C108.181 84.8742 107.837 85.6153 107.215 85.9731C106.957 86.1217 106.664 86.1955 106.348 86.1955Z" fill="#42E8E0"/>
</g>
<g style="mix-blend-mode:lighten">
<path d="M102.458 88.4206C102.015 88.4206 101.527 88.2758 101.025 87.9862L91.0219 82.2431L91.1723 81.9838L101.175 87.7278C101.938 88.167 102.649 88.2427 103.174 87.9398C103.699 87.6389 103.988 86.9896 103.988 86.1132V83.7139C103.988 82.7258 104.331 81.9847 104.953 81.627C105.574 81.2692 106.391 81.344 107.253 81.839L109.343 83.0391L109.192 83.2975L107.102 82.0983C106.339 81.662 105.63 81.5863 105.105 81.8873C104.579 82.1882 104.29 82.8375 104.29 83.7139V86.1132C104.29 87.1013 103.946 87.8414 103.324 88.1992C103.065 88.3477 102.773 88.4206 102.458 88.4206Z" fill="#42E8E0"/>
</g>
<g style="mix-blend-mode:lighten">
<path d="M98.5672 90.6467C98.1246 90.6467 97.6364 90.5019 97.1339 90.2123L87.1303 84.4683L87.2817 84.2099L97.2843 89.9529C98.0466 90.3902 98.7566 90.4678 99.2829 90.1649C99.8082 89.864 100.098 89.2147 100.098 88.3383V85.939C100.098 84.9509 100.44 84.2108 101.063 83.8531C101.684 83.4944 102.503 83.571 103.363 84.0651L105.452 85.2642L105.302 85.5235L103.212 84.3234C102.448 83.8862 101.738 83.8124 101.213 84.1133C100.688 84.4143 100.398 85.0626 100.398 85.939V88.3383C100.398 89.3264 100.056 90.0665 99.4333 90.4243C99.1744 90.5729 98.8822 90.6467 98.5672 90.6467Z" fill="#42E8E0"/>
</g>
<g style="mix-blend-mode:lighten">
<path d="M94.6756 92.8727C94.2331 92.8727 93.7458 92.7269 93.2433 92.4383L83.2397 86.6952L83.391 86.4368L93.3936 92.1799C94.1579 92.6171 94.8679 92.6938 95.3923 92.3909C95.9176 92.09 96.2069 91.4407 96.2069 90.5643V88.165C96.2069 87.1769 96.5495 86.4368 97.172 86.0791C97.7944 85.7203 98.6119 85.7961 99.4713 86.2911L101.56 87.4902L101.41 87.7486L99.321 86.5504C98.5577 86.1131 97.8487 86.0355 97.3224 86.3384C96.797 86.6394 96.5077 87.2886 96.5077 88.165V90.5643C96.5077 91.5524 96.1651 92.2925 95.5426 92.6503C95.2838 92.7989 94.9906 92.8727 94.6756 92.8727Z" fill="#42E8E0"/>
</g>
<g style="mix-blend-mode:lighten">
<path d="M90.785 95.0987C90.3424 95.0987 89.8551 94.953 89.3526 94.6643L79.3491 88.9212L79.4994 88.6619L89.503 94.4059C90.2672 94.8432 90.9772 94.9189 91.5016 94.616C92.027 94.3151 92.3163 93.6668 92.3163 92.7903V90.3901C92.3163 89.402 92.6589 88.6619 93.2813 88.3042C93.9038 87.9455 94.7203 88.0221 95.5807 88.5171L97.6707 89.7163L97.5193 89.9756L95.4303 88.7755C94.667 88.3363 93.957 88.2625 93.4317 88.5644C92.9064 88.8654 92.617 89.5137 92.617 90.3901V92.7903C92.617 93.7784 92.2744 94.5186 91.652 94.8763C91.3931 95.0249 91.1 95.0987 90.785 95.0987Z" fill="#42E8E0"/>
</g>
<g style="mix-blend-mode:lighten">
<path d="M86.8943 97.3248C86.4518 97.3248 85.9635 97.179 85.461 96.8904L75.4584 91.1464L75.6088 90.888L85.6123 96.6311C86.3766 97.0683 87.0856 97.145 87.611 96.8421C88.1363 96.5411 88.4256 95.8919 88.4256 95.0155V92.6162C88.4256 91.6281 88.7683 90.888 89.3907 90.5302C90.0131 90.1715 90.8306 90.2472 91.69 90.7422L93.7791 91.9423L93.6287 92.2007L91.5397 91.0016C90.7773 90.5633 90.0674 90.4867 89.541 90.7896C89.0157 91.0905 88.7264 91.7398 88.7264 92.6162V95.0155C88.7264 96.0036 88.3838 96.7437 87.7613 97.1014C87.5025 97.25 87.2103 97.3248 86.8943 97.3248Z" fill="#42E8E0"/>
</g>
<g style="mix-blend-mode:lighten">
<path d="M83.0037 99.5499C82.5611 99.5499 82.0738 99.4051 81.5713 99.1155L71.5678 93.3724L71.7181 93.1131L81.7217 98.8571C82.485 99.2953 83.1931 99.3682 83.7193 99.0682C84.2447 98.7662 84.534 98.1179 84.534 97.2415V94.8423C84.534 93.8542 84.8776 93.1131 85.5 92.7553C86.1215 92.3966 86.939 92.4733 87.7994 92.9683L89.8884 94.1674L89.7381 94.4268L87.649 93.2267C86.8857 92.7885 86.1748 92.7137 85.6504 93.0156C85.125 93.3166 84.8357 93.9649 84.8357 94.8423V97.2415C84.8357 98.2296 84.4922 98.9707 83.8697 99.3284C83.6109 99.4761 83.3187 99.5499 83.0037 99.5499Z" fill="#42E8E0"/>
</g>
<g style="mix-blend-mode:lighten">
<path d="M79.113 101.776C78.6705 101.776 78.1822 101.631 77.6797 101.342L67.6771 95.5975L67.8275 95.3392L77.8301 101.082C78.5943 101.521 79.3034 101.595 79.8287 101.294C80.3541 100.992 80.6444 100.343 80.6444 99.4666V97.0683C80.6444 96.0802 80.987 95.3392 81.6094 94.9814C82.2318 94.6255 83.0494 94.6984 83.9088 95.1934L85.9978 96.3935L85.8474 96.6519L83.7574 95.4527C82.9942 95.0145 82.2851 94.9407 81.7598 95.2407C81.2344 95.5427 80.9451 96.1919 80.9451 97.0683V99.4666C80.9451 100.455 80.6015 101.196 79.9791 101.554C79.7202 101.701 79.4281 101.776 79.113 101.776Z" fill="#42E8E0"/>
</g>
<g style="mix-blend-mode:lighten">
<path d="M75.2224 104.001C74.7798 104.001 74.2916 103.856 73.7891 103.567L63.7865 97.8236L63.9368 97.5643L73.9395 103.308C74.7027 103.747 75.4127 103.821 75.9381 103.519C76.4634 103.218 76.7528 102.57 76.7528 101.694V99.2934C76.7528 98.3054 77.0954 97.5652 77.7178 97.2075C78.3393 96.8488 79.1578 96.9245 80.0181 97.4195L82.1072 98.6196L81.9568 98.878L79.8677 97.6779C79.1045 97.2406 78.3935 97.1658 77.8682 97.4677C77.3428 97.7687 77.0535 98.417 77.0535 99.2934V101.694C77.0535 102.682 76.7109 103.422 76.0885 103.78C75.8296 103.928 75.5374 104.001 75.2224 104.001Z" fill="#42E8E0"/>
</g>
<g style="mix-blend-mode:lighten">
<path d="M71.3317 106.227C70.8892 106.227 70.401 106.082 69.8985 105.793L59.8958 100.049L60.0462 99.7903L70.0488 105.533C70.8131 105.972 71.523 106.048 72.0474 105.745C72.5728 105.444 72.8621 104.795 72.8621 103.919V101.519C72.8621 100.531 73.2047 99.7913 73.8272 99.4335C74.4486 99.0748 75.2662 99.1515 76.1265 99.6455L78.2165 100.845L78.0661 101.104L75.9762 99.9039C75.2129 99.4676 74.5038 99.3919 73.9785 99.6928C73.4531 99.9938 73.1638 100.643 73.1638 101.519V103.919C73.1638 104.907 72.8202 105.647 72.1978 106.005C71.9389 106.153 71.6468 106.227 71.3317 106.227Z" fill="#42E8E0"/>
</g>
<g style="mix-blend-mode:lighten">
<path d="M67.4411 108.452C66.9985 108.452 66.5103 108.307 66.0078 108.018L56.0042 102.275L56.1546 102.016L66.1582 107.759C66.9215 108.198 67.6314 108.272 68.1568 107.97C68.6821 107.669 68.9715 107.021 68.9715 106.145V103.746C68.9715 102.757 69.3141 102.017 69.9365 101.66C70.558 101.301 71.3765 101.377 72.2368 101.871L74.3259 103.071L74.1755 103.329L72.0855 102.13C71.3222 101.694 70.6122 101.617 70.0869 101.919C69.5615 102.22 69.2722 102.869 69.2722 103.746V106.145C69.2722 107.133 68.9296 107.873 68.3072 108.231C68.0483 108.379 67.7561 108.452 67.4411 108.452Z" fill="#42E8E0"/>
</g>
</g>
<g opacity="0.787433">
<g style="mix-blend-mode:lighten">
<path d="M157.309 66.3455C156.993 66.3455 156.7 66.2717 156.441 66.1231C155.819 65.7653 155.476 65.0252 155.476 64.0371V61.6369C155.476 60.7605 155.187 60.1122 154.662 59.8112C154.136 59.5093 153.426 59.584 152.663 60.0222L150.574 61.2214L150.424 60.9621L152.513 59.7639C153.373 59.2689 154.19 59.1941 154.812 59.5509C155.435 59.9087 155.777 60.6488 155.777 61.6369V64.0371C155.777 64.9135 156.067 65.5618 156.592 65.8628C157.117 66.1657 157.827 66.0899 158.59 65.6527L168.594 59.9087L168.744 60.168L158.742 65.9111C158.239 66.1997 157.751 66.3455 157.309 66.3455Z" fill="#42E8E0"/>
</g>
<g style="mix-blend-mode:lighten">
<path d="M161.199 68.5716C160.883 68.5716 160.591 68.4968 160.332 68.3482C159.71 67.9904 159.367 67.2503 159.367 66.2622V63.863C159.367 62.9866 159.078 62.3373 158.552 62.0363C158.028 61.7353 157.318 61.8101 156.554 62.2483L154.465 63.4484L154.314 63.1891L156.403 61.9899C157.265 61.4949 158.081 61.4202 158.703 61.777C159.325 62.1347 159.669 62.8749 159.669 63.863V66.2622C159.669 67.1386 159.958 67.7879 160.483 68.0889C161.009 68.3908 161.718 68.3132 162.481 67.8778L172.485 62.1347L172.635 62.3931L162.631 68.1371C162.129 68.4258 161.642 68.5716 161.199 68.5716Z" fill="#42E8E0"/>
</g>
<g style="mix-blend-mode:lighten">
<path d="M165.09 70.7967C164.775 70.7967 164.482 70.7229 164.223 70.5743C163.6 70.2165 163.258 69.4764 163.258 68.4883V66.09C163.258 65.2126 162.968 64.5633 162.443 64.2624C161.918 63.9605 161.208 64.0362 160.445 64.4744L158.355 65.6735L158.205 65.4152L160.294 64.2151C161.154 63.7201 161.972 63.6462 162.593 64.0031C163.216 64.3608 163.559 65.1019 163.559 66.09V68.4883C163.559 69.3647 163.849 70.013 164.374 70.314C164.899 70.6169 165.609 70.5411 166.373 70.1039L176.375 64.3599L176.526 64.6192L166.523 70.3623C166.021 70.6509 165.532 70.7967 165.09 70.7967Z" fill="#42E8E0"/>
</g>
<g style="mix-blend-mode:lighten">
<path d="M168.98 73.0227C168.665 73.0227 168.373 72.9479 168.114 72.8002C167.492 72.4425 167.149 71.7014 167.149 70.7133V68.315C167.149 67.4386 166.859 66.7893 166.334 66.4874C165.809 66.1883 165.099 66.2603 164.335 66.6994L162.246 67.8995L162.096 67.6402L164.185 66.441C165.045 65.946 165.863 65.8732 166.484 66.2281C167.106 66.5858 167.45 67.3269 167.45 68.315V70.7133C167.45 71.5897 167.739 72.239 168.265 72.5409C168.79 72.84 169.499 72.7671 170.262 72.3289L180.266 66.5858L180.416 66.8442L170.414 72.5882C169.911 72.8779 169.423 73.0227 168.98 73.0227Z" fill="#42E8E0"/>
</g>
<g style="mix-blend-mode:lighten">
<path d="M172.871 75.2478C172.556 75.2478 172.264 75.175 172.005 75.0264C171.383 74.6686 171.039 73.9275 171.039 72.9394V70.5411C171.039 69.6647 170.751 69.0154 170.225 68.7145C169.701 68.4125 168.991 68.4892 168.227 68.9255L166.138 70.1247L165.986 69.8663L168.076 68.6662C168.937 68.1731 169.754 68.0974 170.376 68.4551C170.998 68.8129 171.341 69.553 171.341 70.5411V72.9394C171.341 73.8168 171.63 74.4661 172.155 74.767C172.679 75.0689 173.39 74.9923 174.154 74.555L184.157 68.811L184.307 69.0703L174.304 74.8134C173.802 75.103 173.314 75.2478 172.871 75.2478Z" fill="#42E8E0"/>
</g>
<g style="mix-blend-mode:lighten">
<path d="M176.762 77.4738C176.447 77.4738 176.155 77.4 175.896 77.2514C175.273 76.8937 174.931 76.1535 174.931 75.1654V72.7662C174.931 71.8898 174.641 71.2415 174.116 70.9405C173.592 70.6395 172.882 70.7143 172.117 71.1506L170.027 72.3507L169.877 72.0914L171.967 70.8922C172.827 70.3972 173.645 70.3225 174.266 70.6802C174.889 71.038 175.231 71.7781 175.231 72.7662V75.1654C175.231 76.0419 175.521 76.6911 176.046 76.9921C176.571 77.2931 177.28 77.2183 178.045 76.7801L188.048 71.037L188.199 71.2954L178.195 77.0394C177.693 77.329 177.204 77.4738 176.762 77.4738Z" fill="#42E8E0"/>
</g>
<g style="mix-blend-mode:lighten">
<path d="M180.653 79.699C180.337 79.699 180.045 79.6262 179.786 79.4776C179.164 79.1198 178.821 78.3797 178.821 77.3916V74.9923C178.821 74.1159 178.532 73.4667 178.007 73.1657C177.482 72.8647 176.772 72.9404 176.008 73.3767L173.919 74.5759L173.769 74.3175L175.858 73.1174C176.718 72.6234 177.535 72.5486 178.157 72.9064C178.779 73.2641 179.122 74.0042 179.122 74.9923V77.3916C179.122 78.268 179.411 78.9173 179.937 79.2182C180.463 79.5211 181.171 79.4454 181.935 79.0062L191.938 73.2632L192.089 73.5215L182.086 79.2646C181.583 79.5542 181.096 79.699 180.653 79.699Z" fill="#42E8E0"/>
</g>
<g style="mix-blend-mode:lighten">
<path d="M184.544 81.926C184.228 81.926 183.936 81.8522 183.677 81.7036C183.055 81.3458 182.712 80.6057 182.712 79.6176V77.2174C182.712 76.341 182.423 75.6926 181.897 75.3917C181.373 75.0898 180.663 75.1645 179.899 75.6027L177.81 76.8019L177.659 76.5435L179.748 75.3443C180.61 74.8494 181.426 74.7736 182.048 75.1314C182.67 75.4892 183.013 76.2293 183.013 77.2174V79.6176C183.013 80.494 183.302 81.1423 183.827 81.4433C184.353 81.7443 185.063 81.6695 185.826 81.2332L195.83 75.4892L195.98 75.7485L185.976 81.4916C185.474 81.7802 184.987 81.926 184.544 81.926Z" fill="#42E8E0"/>
</g>
<g style="mix-blend-mode:lighten">
<path d="M188.435 84.152C188.12 84.152 187.826 84.0772 187.568 83.9286C186.945 83.5709 186.603 82.8307 186.603 81.8426V79.4434C186.603 78.567 186.313 77.9177 185.788 77.6167C185.263 77.3148 184.553 77.3905 183.789 77.8287L181.7 79.0279L181.55 78.7695L183.639 77.5694C184.499 77.0754 185.316 76.9997 185.938 77.3574C186.561 77.7152 186.903 78.4553 186.903 79.4434V81.8426C186.903 82.7191 187.193 83.3683 187.718 83.6693C188.243 83.9722 188.953 83.8955 189.717 83.4582L199.72 77.7152L199.871 77.9736L189.868 83.7176C189.365 84.0062 188.877 84.152 188.435 84.152Z" fill="#42E8E0"/>
</g>
<g style="mix-blend-mode:lighten">
<path d="M192.325 86.3771C192.01 86.3771 191.718 86.3033 191.459 86.1547C190.837 85.7969 190.493 85.0568 190.493 84.0687V81.6695C190.493 80.793 190.204 80.1438 189.679 79.8428C189.154 79.5409 188.444 79.6157 187.68 80.0539L185.591 81.254L185.44 80.9956L187.53 79.7955C188.391 79.3005 189.208 79.2257 189.83 79.5825C190.452 79.9403 190.795 80.6814 190.795 81.6695V84.0687C190.795 84.9451 191.084 85.5934 191.61 85.8944C192.135 86.1954 192.844 86.1206 193.607 85.6843L203.611 79.9403L203.761 80.1996L193.759 85.9427C193.256 86.2314 192.768 86.3771 192.325 86.3771Z" fill="#42E8E0"/>
</g>
<g style="mix-blend-mode:lighten">
<path d="M196.216 88.6033C195.901 88.6033 195.608 88.5285 195.349 88.3799C194.726 88.0221 194.384 87.282 194.384 86.2939V83.8956C194.384 83.0182 194.095 82.369 193.569 82.068C193.044 81.7651 192.334 81.8427 191.571 82.28L189.482 83.4801L189.331 83.2208L191.42 82.0207C192.281 81.5247 193.098 81.4509 193.72 81.8087C194.342 82.1664 194.686 82.9075 194.686 83.8956V86.2939C194.686 87.1703 194.975 87.8196 195.5 88.1206C196.026 88.4234 196.736 88.3468 197.499 87.9095L207.501 82.1664L207.652 82.4248L197.649 88.1688C197.147 88.4575 196.658 88.6033 196.216 88.6033Z" fill="#42E8E0"/>
</g>
<g style="mix-blend-mode:lighten">
<path d="M200.107 90.8283C199.792 90.8283 199.499 90.7545 199.24 90.6069C198.618 90.2491 198.275 89.508 198.275 88.5199V86.1216C198.275 85.2452 197.985 84.5959 197.46 84.294C196.935 83.9949 196.225 84.0669 195.461 84.5051L193.372 85.7052L193.222 85.4468L195.311 84.2467C196.171 83.7517 196.989 83.6788 197.61 84.0338C198.233 84.3915 198.576 85.1335 198.576 86.1216V88.5199C198.576 89.3963 198.865 90.0447 199.391 90.3466C199.916 90.6457 200.626 90.5737 201.389 90.1355L211.392 84.3915L211.543 84.6508L201.54 90.3939C201.037 90.6835 200.549 90.8283 200.107 90.8283Z" fill="#42E8E0"/>
</g>
<g style="mix-blend-mode:lighten">
<path d="M203.997 93.0544C203.682 93.0544 203.39 92.9805 203.131 92.832C202.509 92.4742 202.166 91.7331 202.166 90.745V88.3467C202.166 87.4703 201.877 86.821 201.351 86.5201C200.827 86.2191 200.117 86.2948 199.353 86.7311L197.264 87.9312L197.112 87.6719L199.202 86.4727C200.063 85.9778 200.88 85.9039 201.502 86.2607C202.124 86.6185 202.467 87.3586 202.467 88.3467V90.745C202.467 91.6224 202.756 92.2717 203.281 92.5726C203.806 92.8745 204.517 92.7988 205.28 92.3606L215.283 86.6176L215.433 86.8759L205.43 92.62C204.928 92.9096 204.44 93.0544 203.997 93.0544Z" fill="#42E8E0"/>
</g>
<g style="mix-blend-mode:lighten">
<path d="M207.888 95.2795C207.573 95.2795 207.281 95.2067 207.022 95.0581C206.399 94.7003 206.057 93.9602 206.057 92.9721V90.5728C206.057 89.6964 205.767 89.0471 205.242 88.7462C204.718 88.4443 204.008 88.52 203.243 88.9572L201.154 90.1564L201.003 89.898L203.093 88.6979C203.953 88.2048 204.771 88.13 205.392 88.4868C206.015 88.8446 206.357 89.5847 206.357 90.5728V92.9721C206.357 93.8485 206.647 94.4968 207.172 94.7978C207.697 95.0997 208.407 95.0249 209.171 94.5867L219.174 88.8437L219.325 89.102L209.321 94.8451C208.819 95.1347 208.33 95.2795 207.888 95.2795Z" fill="#42E8E0"/>
</g>
<g style="mix-blend-mode:lighten">
<path d="M211.779 97.5055C211.463 97.5055 211.171 97.4327 210.912 97.2841C210.29 96.9263 209.947 96.1852 209.947 95.1971V92.7979C209.947 91.9215 209.658 91.2732 209.133 90.9722C208.608 90.6712 207.898 90.746 207.134 91.1823L205.045 92.3824L204.895 92.1231L206.984 90.9239C207.844 90.4289 208.662 90.3551 209.283 90.7119C209.905 91.0697 210.248 91.8098 210.248 92.7979V95.1971C210.248 96.0736 210.537 96.7228 211.063 97.0238C211.588 97.3267 212.297 97.2509 213.061 96.8127L223.065 91.0687L223.215 91.3281L213.212 97.0711C212.709 97.3607 212.222 97.5055 211.779 97.5055Z" fill="#42E8E0"/>
</g>
<g style="mix-blend-mode:lighten">
<path d="M215.67 99.7316C215.355 99.7316 215.062 99.6578 214.803 99.5092C214.181 99.1514 213.838 98.4113 213.838 97.4232V95.024C213.838 94.1476 213.549 93.4983 213.023 93.1973C212.499 92.8954 211.789 92.9711 211.025 93.4093L208.936 94.6075L208.785 94.3491L210.874 93.15C211.736 92.655 212.552 92.5812 213.174 92.938C213.796 93.2957 214.139 94.0359 214.139 95.024V97.4232C214.139 98.2996 214.429 98.9489 214.954 99.2499C215.48 99.5518 216.189 99.4751 216.952 99.0388L226.956 93.2957L227.106 93.5541L217.102 99.2972C216.6 99.5859 216.113 99.7316 215.67 99.7316Z" fill="#42E8E0"/>
</g>
<g style="mix-blend-mode:lighten">
<path d="M219.561 101.958C219.246 101.958 218.953 101.884 218.694 101.735C218.071 101.377 217.729 100.636 217.729 99.6482V97.249C217.729 96.3726 217.439 95.7243 216.914 95.4233C216.388 95.1214 215.679 95.1961 214.915 95.6343L212.826 96.8344L212.676 96.5761L214.765 95.376C215.625 94.881 216.442 94.8053 217.064 95.163C217.687 95.5208 218.029 96.2609 218.029 97.249V99.6482C218.029 100.525 218.319 101.174 218.844 101.475C219.37 101.778 220.08 101.702 220.844 101.265L230.846 95.5208L230.997 95.7801L220.994 101.523C220.491 101.812 220.003 101.958 219.561 101.958Z" fill="#42E8E0"/>
</g>
<g style="mix-blend-mode:lighten">
<path d="M223.451 104.184C223.136 104.184 222.844 104.109 222.585 103.96C221.963 103.603 221.619 102.862 221.619 101.874V99.476C221.619 98.5987 221.33 97.9494 220.805 97.6484C220.28 97.3455 219.569 97.4213 218.806 97.8604L216.717 99.0605L216.567 98.8012L218.656 97.602C219.516 97.107 220.333 97.0313 220.955 97.3891C221.577 97.7468 221.921 98.4879 221.921 99.476V101.874C221.921 102.751 222.21 103.4 222.736 103.701C223.261 104.003 223.97 103.926 224.733 103.49L234.737 97.7468L234.887 98.0052L224.885 103.749C224.382 104.038 223.894 104.184 223.451 104.184Z" fill="#42E8E0"/>
</g>
<g style="mix-blend-mode:lighten">
<path d="M227.343 106.409C227.027 106.409 226.735 106.335 226.476 106.187C225.854 105.83 225.51 105.089 225.51 104.1V101.702C225.51 100.826 225.221 100.176 224.695 99.8745C224.17 99.5736 223.46 99.6474 222.698 100.087L220.608 101.286L220.457 101.027L222.546 99.8272C223.407 99.3332 224.223 99.2594 224.846 99.6143C225.468 99.972 225.812 100.714 225.812 101.702V104.1C225.812 104.977 226.101 105.625 226.626 105.927C227.153 106.228 227.862 106.155 228.625 105.716L238.628 99.972L238.778 100.231L228.775 105.974C228.273 106.264 227.786 106.409 227.343 106.409Z" fill="#42E8E0"/>
</g>
<g style="mix-blend-mode:lighten">
<path d="M231.233 108.635C230.918 108.635 230.625 108.561 230.367 108.412C229.744 108.055 229.402 107.314 229.402 106.326V103.927C229.402 103.051 229.112 102.402 228.587 102.101C228.062 101.799 227.352 101.874 226.588 102.312L224.498 103.512L224.348 103.252L226.437 102.053C227.297 101.561 228.116 101.483 228.737 101.841C229.36 102.199 229.702 102.939 229.702 103.927V106.326C229.702 107.203 229.992 107.852 230.517 108.153C231.042 108.455 231.751 108.378 232.516 107.941L242.518 102.198L242.67 102.456L232.666 108.2C232.163 108.49 231.675 108.635 231.233 108.635Z" fill="#42E8E0"/>
</g>
</g>
<path d="M226.237 104.243V113.078L149.37 157.211L72.5004 113.076V104.242L226.237 104.243Z" fill="url(#paint0_linear_413_1047)"/>
<path d="M149.37 148.377L72.5004 104.242L149.367 60.1084L226.237 104.243L149.37 148.377Z" fill="#BCBEFF"/>
<path d="M149.37 147.345L73.3989 103.727L72.5004 104.242L149.37 148.377L226.237 104.243L225.339 103.728L149.37 147.345Z" fill="white"/>
<path d="M149.369 138.197L90.2463 104.252L149.368 70.3074L208.491 104.253L149.369 138.197Z" fill="#0F054C"/>
<g opacity="0.5">
<path d="M149.369 138.199L90.2453 104.253L149.368 70.3074L208.492 104.254L149.369 138.199Z" fill="url(#paint1_linear_413_1047)"/>
</g>
<g opacity="0.5">
<path d="M149.368 61.7477L208.492 95.6941V104.253L149.368 70.3064V61.7477Z" fill="url(#paint2_linear_413_1047)"/>
</g>
<g opacity="0.5">
<path d="M149.369 70.3064L90.2453 104.252V95.6931L149.368 61.7477L149.369 70.3064Z" fill="url(#paint3_linear_413_1047)"/>
</g>
<g opacity="0.5">
<path d="M149.369 129.639L90.2453 95.6931L149.368 61.7477L208.492 95.6941L149.369 129.639Z" fill="url(#paint4_linear_413_1047)"/>
</g>
<g opacity="0.5">
<path d="M149.369 109.257L125.745 95.6931L149.368 82.1295L172.993 95.6931L149.369 109.257Z" fill="#42E8E0"/>
</g>
<g opacity="0.5">
<path d="M149.368 83.3769L171.906 96.3178L172.993 95.6931L149.368 82.1295L125.745 95.6931L126.831 96.3168L149.368 83.3769Z" fill="#42E8E0"/>
</g>
<g opacity="0.5">
<path d="M149.369 129.639V138.198L208.492 104.253V95.6941L149.369 129.639Z" fill="url(#paint5_linear_413_1047)"/>
</g>
<g opacity="0.5">
<path d="M90.2453 95.6931V104.252L149.369 138.198V129.639L90.2453 95.6931Z" fill="url(#paint6_linear_413_1047)"/>
</g>
<g opacity="0.8">
<path d="M149.369 128.704L91.0591 95.2256L90.2453 95.6931L149.369 129.639L208.492 95.6931L207.678 95.2265L149.369 128.704Z" fill="#42E8E0"/>
</g>
<g opacity="0.787433">
<g style="mix-blend-mode:lighten">
<path d="M168.594 167.588L158.59 161.844C156.873 160.859 155.476 158.453 155.476 156.481V154.082C155.476 152.206 154.147 149.916 152.513 148.977L150.424 147.777L150.574 147.519L152.663 148.718C154.38 149.704 155.777 152.11 155.777 154.082V156.481C155.777 158.358 157.108 160.648 158.742 161.586L168.744 167.329L168.594 167.588Z" fill="#42E8E0"/>
</g>
<g style="mix-blend-mode:lighten">
<path d="M172.485 165.359L162.481 159.616C160.764 158.629 159.367 156.223 159.367 154.252V151.853C159.367 149.976 158.038 147.685 156.403 146.748L154.314 145.548L154.465 145.289L156.554 146.489C158.272 147.474 159.669 149.88 159.669 151.853V154.252C159.669 156.128 160.997 158.417 162.631 159.356L172.635 165.1L172.485 165.359Z" fill="#42E8E0"/>
</g>
<g style="mix-blend-mode:lighten">
<path d="M176.375 163.13L166.373 157.386C164.655 156.399 163.258 153.993 163.258 152.021V149.623C163.258 147.747 161.928 145.457 160.294 144.518L158.205 143.319L158.355 143.06L160.445 144.258C162.162 145.245 163.559 147.651 163.559 149.623V152.021C163.559 153.897 164.889 156.188 166.523 157.127L176.526 162.87L176.375 163.13Z" fill="#42E8E0"/>
</g>
<g style="mix-blend-mode:lighten">
<path d="M180.266 160.899L170.262 155.156C168.545 154.171 167.149 151.765 167.149 149.792V147.393C167.149 145.517 165.819 143.227 164.185 142.288L162.096 141.089L162.246 140.829L164.335 142.03C166.053 143.016 167.45 145.422 167.45 147.393V149.792C167.45 151.669 168.78 153.96 170.414 154.898L180.416 160.641L180.266 160.899Z" fill="#42E8E0"/>
</g>
<g style="mix-blend-mode:lighten">
<path d="M184.157 158.67L174.154 152.927C172.436 151.941 171.039 149.534 171.039 147.563V145.163C171.039 143.286 169.71 140.997 168.076 140.059L165.986 138.859L166.138 138.601L168.227 139.8C169.944 140.785 171.341 143.191 171.341 145.163V147.563C171.341 149.438 172.67 151.729 174.304 152.668L184.307 158.412L184.157 158.67Z" fill="#42E8E0"/>
</g>
<g style="mix-blend-mode:lighten">
<path d="M188.048 156.439L178.045 150.697C176.328 149.711 174.931 147.305 174.931 145.333V142.934C174.931 141.059 173.601 138.767 171.967 137.828L169.877 136.63L170.027 136.371L172.117 137.57C173.835 138.556 175.231 140.963 175.231 142.934V145.333C175.231 147.209 176.561 149.5 178.195 150.439L188.199 156.181L188.048 156.439Z" fill="#42E8E0"/>
</g>
<g style="mix-blend-mode:lighten">
<path d="M191.938 154.21L181.935 148.467C180.217 147.482 178.821 145.076 178.821 143.104V140.705C178.821 138.829 177.492 136.538 175.858 135.599L173.769 134.399L173.919 134.141L176.008 135.34C177.725 136.326 179.122 138.733 179.122 140.705V143.104C179.122 144.981 180.452 147.27 182.086 148.208L192.089 153.951L191.938 154.21Z" fill="#42E8E0"/>
</g>
<g style="mix-blend-mode:lighten">
<path d="M195.83 151.981L185.826 146.237C184.109 145.251 182.712 142.845 182.712 140.874V138.475C182.712 136.598 181.382 134.307 179.748 133.369L177.659 132.17L177.81 131.911L179.899 133.111C181.616 134.096 183.013 136.502 183.013 138.475V140.874C183.013 142.75 184.342 145.04 185.976 145.979L195.98 151.722L195.83 151.981Z" fill="#42E8E0"/>
</g>
<g style="mix-blend-mode:lighten">
<path d="M199.72 149.751L189.717 144.009C187.999 143.022 186.603 140.616 186.603 138.644V136.246C186.603 134.37 185.273 132.079 183.639 131.14L181.55 129.941L181.7 129.682L183.789 130.881C185.506 131.867 186.903 134.274 186.903 136.246V138.644C186.903 140.52 188.234 142.81 189.868 143.749L199.871 149.492L199.72 149.751Z" fill="#42E8E0"/>
</g>
<g style="mix-blend-mode:lighten">
<path d="M203.611 147.522L193.607 141.778C191.89 140.793 190.493 138.387 190.493 136.414V134.015C190.493 132.139 189.164 129.85 187.53 128.911L185.44 127.711L185.591 127.452L187.68 128.651C189.398 129.638 190.795 132.044 190.795 134.015V136.414C190.795 138.291 192.124 140.581 193.759 141.519L203.761 147.262L203.611 147.522Z" fill="#42E8E0"/>
</g>
<g style="mix-blend-mode:lighten">
<path d="M207.501 145.292L197.499 139.549C195.781 138.563 194.384 136.157 194.384 134.185V131.786C194.384 129.909 193.054 127.619 191.42 126.681L189.331 125.482L189.482 125.222L191.571 126.423C193.288 127.408 194.686 129.814 194.686 131.786V134.185C194.686 136.061 196.015 138.351 197.649 139.29L207.652 145.034L207.501 145.292Z" fill="#42E8E0"/>
</g>
<g style="mix-blend-mode:lighten">
<path d="M211.392 143.062L201.389 137.318C199.673 136.333 198.275 133.927 198.275 131.955V129.556C198.275 127.68 196.945 125.39 195.311 124.451L193.222 123.252L193.372 122.994L195.461 124.192C197.179 125.178 198.576 127.585 198.576 129.556V131.955C198.576 133.831 199.906 136.122 201.54 137.06L211.543 142.803L211.392 143.062Z" fill="#42E8E0"/>
</g>
<g style="mix-blend-mode:lighten">
<path d="M215.283 140.832L205.28 135.089C203.562 134.104 202.166 131.698 202.166 129.726V127.326C202.166 125.45 200.836 123.16 199.202 122.221L197.112 121.022L197.264 120.763L199.353 121.963C201.07 122.949 202.467 125.355 202.467 127.326V129.726C202.467 131.602 203.796 133.892 205.43 134.83L215.433 140.574L215.283 140.832Z" fill="#42E8E0"/>
</g>
<g style="mix-blend-mode:lighten">
<path d="M219.174 138.603L209.171 132.859C207.454 131.873 206.057 129.467 206.057 127.496V125.097C206.057 123.22 204.727 120.93 203.093 119.992L201.003 118.792L201.154 118.534L203.243 119.733C204.961 120.718 206.357 123.124 206.357 125.097V127.496C206.357 129.372 207.687 131.662 209.321 132.601L219.325 138.344L219.174 138.603Z" fill="#42E8E0"/>
</g>
<g style="mix-blend-mode:lighten">
<path d="M223.065 136.373L213.061 130.63C211.344 129.644 209.947 127.238 209.947 125.266V122.868C209.947 120.992 208.618 118.7 206.984 117.762L204.895 116.562L205.045 116.303L207.134 117.503C208.851 118.489 210.248 120.896 210.248 122.868V125.266C210.248 127.143 211.578 129.433 213.212 130.371L223.215 136.114L223.065 136.373Z" fill="#42E8E0"/>
</g>
<g style="mix-blend-mode:lighten">
<path d="M226.956 134.144L216.952 128.401C215.235 127.415 213.838 125.009 213.838 123.036V120.637C213.838 118.761 212.508 116.472 210.874 115.533L208.785 114.333L208.936 114.074L211.025 115.273C212.743 116.26 214.139 118.665 214.139 120.637V123.036C214.139 124.913 215.468 127.203 217.102 128.141L227.106 133.884L226.956 134.144Z" fill="#42E8E0"/>
</g>
<g style="mix-blend-mode:lighten">
<path d="M230.846 131.914L220.844 126.171C219.126 125.185 217.729 122.779 217.729 120.807V118.408C217.729 116.531 216.399 114.241 214.765 113.303L212.676 112.104L212.826 111.844L214.915 113.044C216.632 114.03 218.029 116.436 218.029 118.408V120.807C218.029 122.683 219.36 124.974 220.994 125.912L230.997 131.655L230.846 131.914Z" fill="#42E8E0"/>
</g>
<g style="mix-blend-mode:lighten">
<path d="M234.737 129.684L224.733 123.941C223.016 122.956 221.619 120.55 221.619 118.577V116.178C221.619 114.302 220.29 112.012 218.656 111.073L216.567 109.873L216.717 109.615L218.806 110.814C220.524 111.8 221.921 114.207 221.921 116.178V118.577C221.921 120.454 223.251 122.744 224.885 123.682L234.887 129.425L234.737 129.684Z" fill="#42E8E0"/>
</g>
<g style="mix-blend-mode:lighten">
<path d="M238.628 127.454L228.625 121.711C226.907 120.725 225.51 118.319 225.51 116.348V113.948C225.51 112.072 224.18 109.782 222.546 108.843L220.457 107.644L220.608 107.385L222.698 108.585C224.415 109.571 225.812 111.977 225.812 113.948V116.348C225.812 118.223 227.141 120.514 228.775 121.453L238.778 127.196L238.628 127.454Z" fill="#42E8E0"/>
</g>
<g style="mix-blend-mode:lighten">
<path d="M242.518 125.225L232.516 119.482C230.799 118.496 229.402 116.09 229.402 114.119V111.719C229.402 109.843 228.071 107.552 226.437 106.614L224.348 105.414L224.498 105.156L226.588 106.355C228.306 107.34 229.702 109.747 229.702 111.719V114.119C229.702 115.995 231.032 118.284 232.666 119.223L242.67 124.966L242.518 125.225Z" fill="#42E8E0"/>
</g>
</g>
<g opacity="0.787433">
<g style="mix-blend-mode:lighten">
<path d="M129.871 167.588L129.721 167.329L139.724 161.586C141.359 160.648 142.688 158.358 142.688 156.481V154.082C142.688 152.11 144.085 149.704 145.802 148.718L147.891 147.519L148.042 147.777L145.953 148.977C144.318 149.916 142.989 152.206 142.989 154.082V156.481C142.989 158.453 141.593 160.859 139.875 161.844L129.871 167.588Z" fill="#42E8E0"/>
</g>
<g style="mix-blend-mode:lighten">
<path d="M125.981 165.359L125.83 165.1L135.834 159.356C137.468 158.417 138.797 156.128 138.797 154.252V151.853C138.797 149.88 140.194 147.474 141.912 146.489L144.001 145.289L144.152 145.548L142.062 146.748C140.428 147.685 139.098 149.976 139.098 151.853V154.252C139.098 156.223 137.701 158.629 135.984 159.616L125.981 165.359Z" fill="#42E8E0"/>
</g>
<g style="mix-blend-mode:lighten">
<path d="M122.09 163.13L121.94 162.87L131.942 157.127C133.576 156.188 134.907 153.897 134.907 152.021V149.623C134.907 147.65 136.304 145.245 138.021 144.258L140.11 143.06L140.26 143.319L138.171 144.518C136.537 145.457 135.208 147.747 135.208 149.623V152.021C135.208 153.993 133.811 156.399 132.094 157.386L122.09 163.13Z" fill="#42E8E0"/>
</g>
<g style="mix-blend-mode:lighten">
<path d="M118.199 160.899L118.049 160.641L128.052 154.898C129.686 153.96 131.015 151.669 131.015 149.792V147.393C131.015 145.422 132.412 143.016 134.13 142.03L136.219 140.829L136.37 141.089L134.281 142.288C132.647 143.227 131.317 145.517 131.317 147.393V149.792C131.317 151.765 129.92 154.171 128.203 155.156L118.199 160.899Z" fill="#42E8E0"/>
</g>
<g style="mix-blend-mode:lighten">
<path d="M114.308 158.67L114.157 158.412L124.161 152.668C125.795 151.729 127.125 149.438 127.125 147.563V145.163C127.125 143.191 128.522 140.785 130.239 139.8L132.329 138.601L132.479 138.859L130.389 140.059C128.755 140.997 127.426 143.286 127.426 145.163V147.563C127.426 149.534 126.029 151.941 124.311 152.927L114.308 158.67Z" fill="#42E8E0"/>
</g>
<g style="mix-blend-mode:lighten">
<path d="M110.418 156.439L110.267 156.181L120.27 150.439C121.904 149.5 123.234 147.209 123.234 145.333V142.934C123.234 140.963 124.63 138.556 126.348 137.57L128.438 136.371L128.588 136.63L126.499 137.828C124.865 138.767 123.535 141.059 123.535 142.934V145.333C123.535 147.304 122.138 149.711 120.421 150.697L110.418 156.439Z" fill="#42E8E0"/>
</g>
<g style="mix-blend-mode:lighten">
<path d="M106.526 154.21L106.376 153.951L116.38 148.208C118.014 147.27 119.343 144.981 119.343 143.104V140.705C119.343 138.733 120.74 136.326 122.457 135.34L124.546 134.141L124.697 134.399L122.608 135.599C120.974 136.538 119.645 138.829 119.645 140.705V143.104C119.645 145.076 118.248 147.482 116.53 148.467L106.526 154.21Z" fill="#42E8E0"/>
</g>
<g style="mix-blend-mode:lighten">
<path d="M102.636 151.981L102.485 151.722L112.489 145.979C114.123 145.04 115.453 142.75 115.453 140.874V138.475C115.453 136.502 116.849 134.096 118.567 133.111L120.656 131.911L120.807 132.17L118.717 133.369C117.083 134.307 115.753 136.598 115.753 138.475V140.874C115.753 142.845 114.356 145.251 112.639 146.237L102.636 151.981Z" fill="#42E8E0"/>
</g>
<g style="mix-blend-mode:lighten">
<path d="M82.6039 158.798L82.5288 158.756L39.982 134.466L40.1323 134.205L82.6039 158.453L98.5958 149.491L108.597 143.749C110.232 142.81 111.562 140.52 111.562 138.644V136.246C111.562 134.273 112.959 131.867 114.676 130.881L116.765 129.682L116.915 129.941L114.826 131.14C113.192 132.079 111.863 134.37 111.863 136.246V138.644C111.863 140.616 110.467 143.022 108.749 144.009L98.7452 149.751L82.6039 158.798Z" fill="#42E8E0"/>
</g>
<g style="mix-blend-mode:lighten">
<path d="M94.8545 147.522L94.7042 147.262L104.708 141.519C106.342 140.581 107.67 138.291 107.67 136.414V134.015C107.67 132.044 109.068 129.638 110.785 128.651L112.874 127.452L113.025 127.711L110.936 128.911C109.302 129.85 107.972 132.139 107.972 134.015V136.414C107.972 138.387 106.575 140.793 104.858 141.778L94.8545 147.522Z" fill="#42E8E0"/>
</g>
<g style="mix-blend-mode:lighten">
<path d="M90.9639 145.292L90.8126 145.034L100.816 139.29C102.45 138.351 103.78 136.061 103.78 134.185V131.786C103.78 129.814 105.178 127.408 106.895 126.423L108.984 125.222L109.134 125.482L107.045 126.681C105.411 127.619 104.081 129.909 104.081 131.786V134.185C104.081 136.157 102.685 138.563 100.967 139.549L90.9639 145.292Z" fill="#42E8E0"/>
</g>
<g style="mix-blend-mode:lighten">
<path d="M87.0732 143.062L86.9229 142.803L96.9255 137.06C98.5596 136.122 99.8891 133.831 99.8891 131.955V129.556C99.8891 127.585 101.286 125.178 103.004 124.192L105.093 122.994L105.244 123.252L103.154 124.451C101.52 125.39 100.19 127.68 100.19 129.556V131.955C100.19 133.927 98.7937 136.333 97.0768 137.318L87.0732 143.062Z" fill="#42E8E0"/>
</g>
<g style="mix-blend-mode:lighten">
<path d="M83.1816 140.832L83.0313 140.574L93.0348 134.83C94.6689 133.892 95.9985 131.602 95.9985 129.726V127.326C95.9985 125.355 97.3956 122.949 99.1125 121.963L101.202 120.763L101.353 121.022L99.2629 122.221C97.6288 123.16 96.3002 125.45 96.3002 127.326V129.726C96.3002 131.698 94.9031 134.104 93.1852 135.089L83.1816 140.832Z" fill="#42E8E0"/>
</g>
<g style="mix-blend-mode:lighten">
<path d="M79.2919 138.603L79.1406 138.344L89.1442 132.601C90.7783 131.662 92.1079 129.372 92.1079 127.496V125.097C92.1079 123.124 93.504 120.718 95.2219 119.733L97.3119 118.534L97.4622 118.792L95.3723 119.992C93.7382 120.93 92.4086 123.22 92.4086 125.097V127.496C92.4086 129.467 91.0115 131.873 89.2946 132.859L79.2919 138.603Z" fill="#42E8E0"/>
</g>
<g style="mix-blend-mode:lighten">
<path d="M75.4004 136.373L75.25 136.114L85.2536 130.371C86.8877 129.433 88.2172 127.143 88.2172 125.266V122.868C88.2172 120.896 89.6143 118.489 91.3313 117.503L93.4203 116.303L93.5707 116.562L91.4816 117.762C89.8475 118.7 88.518 120.992 88.518 122.868V125.266C88.518 127.238 87.1218 129.644 85.4039 130.63L75.4004 136.373Z" fill="#42E8E0"/>
</g>
<g style="mix-blend-mode:lighten">
<path d="M71.5097 134.144L71.3593 133.884L81.3629 128.141C82.997 127.203 84.3266 124.913 84.3266 123.036V120.637C84.3266 118.665 85.7227 116.26 87.4406 115.273L89.5296 114.074L89.681 114.333L87.591 115.533C85.9569 116.472 84.6273 118.761 84.6273 120.637V123.036C84.6273 125.009 83.2302 127.415 81.5133 128.401L71.5097 134.144Z" fill="#42E8E0"/>
</g>
<g style="mix-blend-mode:lighten">
<path d="M67.6191 131.914L67.4687 131.655L77.4713 125.912C79.1054 124.974 80.4359 122.683 80.4359 120.807V118.408C80.4359 116.436 81.833 114.03 83.55 113.044L85.639 111.844L85.7894 112.104L83.7003 113.303C82.0662 114.241 80.7367 116.531 80.7367 118.408V120.807C80.7367 122.779 79.3405 125.185 77.6226 126.171L67.6191 131.914Z" fill="#42E8E0"/>
</g>
<g style="mix-blend-mode:lighten">
<path d="M63.7284 129.684L63.5781 129.425L73.5816 123.682C75.2157 122.744 76.5443 120.454 76.5443 118.577V116.178C76.5443 114.207 77.9415 111.8 79.6593 110.814L81.7484 109.615L81.8987 109.873L79.8097 111.073C78.1756 112.012 76.846 114.302 76.846 116.178V118.577C76.846 120.55 75.4489 122.956 73.732 123.941L63.7284 129.684Z" fill="#42E8E0"/>
</g>
<g style="mix-blend-mode:lighten">
<path d="M59.8378 127.454L59.6864 127.196L69.69 121.453C71.3241 120.514 72.6537 118.223 72.6537 116.348V113.948C72.6537 111.977 74.0508 109.571 75.7677 108.585L77.8577 107.385L78.0081 107.644L75.919 108.843C74.2849 109.782 72.9554 112.072 72.9554 113.948V116.348C72.9554 118.319 71.5582 120.725 69.8404 121.711L59.8378 127.454Z" fill="#42E8E0"/>
</g>
<g style="mix-blend-mode:lighten">
<path d="M55.9471 125.225L55.7958 124.966L65.7994 119.223C67.4335 118.284 68.763 115.995 68.763 114.119V111.719C68.763 109.747 70.1602 107.34 71.878 106.355L73.9671 105.156L74.1175 105.414L72.0284 106.614C70.3943 107.552 69.0638 109.843 69.0638 111.719V114.119C69.0638 116.09 67.6676 118.496 65.9507 119.482L55.9471 125.225Z" fill="#42E8E0"/>
</g>
</g>
<g style="mix-blend-mode:lighten">
<path d="M261.631 86.7528L261.555 86.7093L240.563 74.6562L240.789 74.5275L261.631 62.5605L261.706 62.6041L282.699 74.6562L282.472 74.7859L261.631 86.7528ZM241.166 74.6562L261.631 86.4064L282.096 74.6562L261.631 62.906L241.166 74.6562Z" fill="#42E8E0"/>
</g>
<path d="M269.088 50.7566L254.747 42.5225V58.9888L269.088 67.222L283.429 58.9888V42.5225L269.088 50.7566Z" fill="#42E8E0"/>
<path d="M269.088 67.223L254.747 58.9888V42.5225L269.088 50.7556V67.223Z" fill="#FCCC6B"/>
<path d="M283.429 58.9888L269.088 67.223V50.7556L283.429 42.5225V58.9888Z" fill="#B95CE0"/>
<path d="M269.088 50.7557L254.747 42.5225L269.088 34.2893L283.428 42.5225L269.088 50.7557Z" fill="#3DF5BB"/>
<path d="M269.088 50.7566L254.747 42.5225V43.237L269.088 51.4702L283.428 43.237L283.429 42.5225L269.088 50.7566Z" fill="white"/>
<g style="mix-blend-mode:lighten">
<path d="M29.7718 140.409L29.6966 140.365L8.70349 128.312L8.92905 128.183L29.7708 116.216L29.846 116.259L50.8401 128.313L50.6136 128.442L29.7718 140.409ZM9.30594 128.312L29.7718 140.063L50.2377 128.313L29.7708 116.562L9.30594 128.312Z" fill="#42E8E0"/>
</g>
<path d="M29.7717 90.6138L15.4312 82.3806V98.847L29.7717 107.08L44.1123 98.847V82.3806L29.7717 90.6138Z" fill="#42E8E0"/>
<path d="M29.7717 107.08L15.4312 98.847V82.3806L29.7717 90.6138V107.08Z" fill="#FCCC6B"/>
<path d="M44.1123 98.847L29.7718 107.08V90.6138L44.1123 82.3806V98.847Z" fill="#B95CE0"/>
<path d="M29.7717 90.6138L15.4312 82.3806L29.7717 74.1465L44.1113 82.3806L29.7717 90.6138Z" fill="#3DF5BB"/>
<path d="M29.7717 90.6138L15.4312 82.3806V83.0942L29.7717 91.3274L44.1114 83.0942L44.1123 82.3806L29.7717 90.6138Z" fill="white"/>
<path d="M147.96 179.353L131.921 175.253L136.429 191.132L152.468 195.231L164 183.452L159.492 167.573L147.96 179.353Z" fill="#42E8E0"/>
<path d="M152.449 195.234L136.424 191.138L131.921 175.271L147.946 179.367L152.449 195.234Z" fill="#FCCC6B"/>
<path d="M164.002 183.44L152.48 195.211L147.977 179.344L159.499 167.573L164.002 183.44Z" fill="#B95CE0"/>
<path d="M147.98 179.377L131.934 175.276L143.471 163.49L159.516 167.591L147.98 179.377Z" fill="#3DF5BB"/>
<path d="M147.973 179.371L131.921 175.267L132.117 175.957L148.168 180.061L159.71 168.263L159.516 167.573L147.973 179.371Z" fill="white"/>
<g opacity="0.2">
<path d="M262.913 194.061C249.92 194.061 236.927 191.221 227.036 185.542C217.422 180.023 212.126 172.675 212.126 164.851C212.126 157.026 217.422 149.677 227.035 144.158C246.819 132.801 279.006 132.801 298.786 144.159C308.401 149.678 313.696 157.028 313.696 164.852C313.696 172.676 308.403 180.023 298.789 185.542L298.706 185.403L298.789 185.542C288.898 191.221 275.905 194.061 262.913 194.061ZM262.91 135.96C249.977 135.96 237.044 138.787 227.198 144.439C217.69 149.899 212.453 157.146 212.453 164.851C212.453 172.554 217.69 179.802 227.199 185.262C246.892 196.568 278.932 196.568 298.625 185.262C308.133 179.802 313.37 172.555 313.37 164.852C313.37 157.149 308.133 149.899 298.624 144.439C288.777 138.785 275.843 135.96 262.91 135.96Z" fill="#42E8E0"/>
</g>
<g opacity="0.4">
<path d="M262.901 187.098C253.017 187.098 243.131 184.938 235.606 180.618C228.286 176.415 224.254 170.817 224.254 164.857C224.254 158.895 228.286 153.298 235.606 149.095C250.656 140.456 275.143 140.456 290.193 149.096C297.513 153.299 301.545 158.897 301.545 164.858C301.545 170.817 297.514 176.415 290.194 180.618C282.669 184.938 272.785 187.098 262.901 187.098ZM262.898 142.924C253.07 142.924 243.245 145.071 235.763 149.366C228.545 153.511 224.569 159.012 224.569 164.857C224.569 170.7 228.544 176.202 235.763 180.347C250.726 188.938 275.074 188.938 290.037 180.347C297.255 176.202 301.23 170.701 301.23 164.858C301.23 159.013 297.255 153.512 290.036 149.367C282.554 145.071 272.725 142.924 262.898 142.924Z" fill="#42E8E0"/>
</g>
<path d="M262.901 181.699C255.434 181.699 247.969 180.067 242.284 176.803C236.748 173.625 233.7 169.392 233.7 164.88C233.7 160.369 236.748 156.135 242.283 152.957C253.65 146.43 272.146 146.43 283.514 152.957C289.049 156.136 292.099 160.371 292.099 164.882C292.098 169.393 289.05 173.626 283.515 176.804C277.832 180.067 270.366 181.699 262.901 181.699ZM262.898 148.358C255.487 148.358 248.076 149.977 242.434 153.217C236.996 156.339 234.001 160.481 234.001 164.88C234.001 169.28 236.996 173.421 242.434 176.544C253.719 183.023 272.08 183.022 283.364 176.545L283.44 176.674L283.364 176.545C288.801 173.422 291.796 169.281 291.796 164.882C291.796 160.482 288.801 156.339 283.363 153.217C277.721 149.977 270.31 148.358 262.898 148.358Z" fill="#42E8E0"/>
<path d="M260.346 131.932L266.883 116.78L250.446 118.759L243.91 133.911L253.81 147.084L270.245 145.104L260.346 131.932Z" fill="#42E8E0"/>
<path d="M243.903 133.904L250.436 118.756L266.866 116.778L260.332 131.925L243.903 133.904Z" fill="#B95CE0"/>
<path d="M253.818 147.08L243.913 133.901L260.356 131.921L270.261 145.1L253.818 147.08Z" fill="#FCCC6B"/>
<path d="M260.35 131.944L266.885 116.794L276.782 129.964L270.248 145.114L260.35 131.944Z" fill="#3DF5BB"/>
<path d="M260.349 131.943L266.885 116.794L266.172 116.879L259.637 132.029L269.535 145.199L270.247 145.113L260.349 131.943Z" fill="white"/>
<path d="M150.95 61.9522L137.14 54.1031V69.7994L150.95 77.6485L164.758 69.7994V54.1031L150.95 61.9522Z" fill="#42E8E0"/>
<path d="M150.95 77.6485L137.14 69.7994V54.1031L150.95 61.9522V77.6485Z" fill="#FCCC6B"/>
<path d="M164.758 69.7994L150.95 77.6485V61.9522L164.758 54.1031V69.7994Z" fill="#B95CE0"/>
<path d="M150.95 61.9521L137.141 54.1031L150.95 46.2559L164.758 54.1031L150.95 61.9521Z" fill="#53CCA6"/>
<path d="M150.95 61.9521L137.74 54.4438L137.14 54.7846L150.95 62.6319L164.758 54.7846L164.158 54.4438L150.95 61.9521Z" fill="white"/>
<path d="M168.887 72.0273L155.077 64.1782V79.8745L168.887 87.7235L182.694 79.8745V64.1782L168.887 72.0273Z" fill="#42E8E0"/>
<path d="M168.887 87.7235L155.077 79.8745V64.1782L168.887 72.0273V87.7235Z" fill="#FCCC6B"/>
<path d="M182.694 79.8745L168.887 87.7235V72.0273L182.694 64.1782V79.8745Z" fill="#B95CE0"/>
<path d="M168.887 72.0273L155.077 64.1783L168.885 56.3311L182.694 64.1783L168.887 72.0273Z" fill="#53CCA6"/>
<path d="M168.887 72.0273L155.677 64.519L155.077 64.8598L168.887 72.7071L182.694 64.8598L182.095 64.519L168.887 72.0273Z" fill="white"/>
<path d="M186.821 82.1024L173.014 74.2533V89.9497L186.821 97.7988L200.631 89.9497V74.2533L186.821 82.1024Z" fill="#42E8E0"/>
<path d="M186.823 97.7988L173.014 89.9497V74.2533L186.823 82.1024V97.7988Z" fill="#FCCC6B"/>
<path d="M200.631 89.9497L186.823 97.7988V82.1024L200.631 74.2533V89.9497Z" fill="#B95CE0"/>
<path d="M186.823 82.1024L173.014 74.2533L186.821 66.406L200.631 74.2533L186.823 82.1024Z" fill="#53CCA6"/>
<path d="M186.821 82.1024L173.613 74.5941L173.014 74.9349L186.821 82.7822L200.631 74.9349V74.2533L186.821 82.1024Z" fill="white"/>
<path d="M133.014 72.7069L119.206 64.8596V80.556L133.014 88.4051L146.821 80.556V64.8596L133.014 72.7069Z" fill="#42E8E0"/>
<path d="M133.014 88.4051L119.206 80.556V64.8596L133.014 72.7069V88.4051Z" fill="#FCCC6B"/>
<path d="M146.821 80.556L133.014 88.4051V72.7069L146.821 64.8596V80.556Z" fill="#B95CE0"/>
<path d="M133.014 72.7069L119.206 64.8596L133.014 57.0105L146.821 64.8596L133.014 72.7069Z" fill="#53CCA6"/>
<path d="M133.014 72.7069L119.804 65.2004L119.206 65.5394L133.014 73.3885L146.821 65.5394L146.222 65.2004L133.014 72.7069Z" fill="white"/>
<path d="M150.95 82.7821L137.14 74.9348V90.6312L150.95 98.4803L164.758 90.6312V74.9348L150.95 82.7821Z" fill="#42E8E0"/>
<path d="M150.95 98.4803L137.14 90.6312V74.9348L150.95 82.7821V98.4803Z" fill="#FCCC6B"/>
<path d="M164.758 90.6312L150.95 98.4803V82.7821L164.758 74.9348V90.6312Z" fill="#B95CE0"/>
<path d="M150.95 82.7821L137.14 74.9348L150.95 67.0857L164.758 74.9348L150.95 82.7821Z" fill="#53CCA6"/>
<path d="M150.95 82.7821L137.74 75.2756L137.14 75.6146L150.95 83.4637L164.758 75.6146L164.158 75.2756L150.95 82.7821Z" fill="white"/>
<path d="M168.887 92.8573L155.077 85.01V100.706L168.887 108.554L182.695 100.706V85.01L168.887 92.8573Z" fill="#42E8E0"/>
<path d="M168.887 108.556L155.077 100.706V85.01L168.887 92.8573V108.556Z" fill="#FCCC6B"/>
<path d="M182.694 100.706L168.887 108.556V92.8573L182.694 85.01V100.706Z" fill="#B95CE0"/>
<path d="M168.887 92.8573L155.077 85.01L168.885 77.1609L182.695 85.01L168.887 92.8573Z" fill="#53CCA6"/>
<path d="M168.887 92.8573L155.677 85.3508L155.077 85.6898L168.887 93.5389L182.695 85.6898V85.01L168.887 92.8573Z" fill="white"/>
<path d="M115.077 83.4637L101.269 75.6146V91.311L115.077 99.1601L128.885 91.311V75.6146L115.077 83.4637Z" fill="#42E8E0"/>
<path d="M115.077 99.1601L101.269 91.3128V75.6146L115.077 83.4637V99.1601Z" fill="#FCCC6B"/>
<path d="M128.885 91.3128L115.077 99.1601V83.4637L128.885 75.6146V91.3128Z" fill="#B95CE0"/>
<path d="M115.077 83.4637L101.269 75.6146L115.077 67.7673L128.885 75.6146L115.077 83.4637Z" fill="#53CCA6"/>
<path d="M115.077 83.4637L101.269 75.6146V76.2962L115.077 84.1453L128.885 76.2962L128.287 75.9554L115.077 83.4637Z" fill="white"/>
<path d="M133.014 93.5389L119.206 85.6898V101.386L133.014 109.235L146.821 101.386V85.6898L133.014 93.5389Z" fill="#42E8E0"/>
<path d="M133.014 109.235L119.206 101.386V85.6898L133.014 93.5389V109.235Z" fill="#FCCC6B"/>
<path d="M146.821 101.386L133.014 109.235V93.5389L146.821 85.6898V101.386Z" fill="#B95CE0"/>
<path d="M133.014 93.5389L119.206 85.6898L133.014 77.8425L146.821 85.6916L133.014 93.5389Z" fill="#53CCA6"/>
<path d="M133.014 93.5389L119.206 85.6898V86.3714L133.014 94.2205L146.821 86.3714L146.222 86.0306L133.014 93.5389Z" fill="white"/>
<path d="M150.95 103.614L137.14 95.7649V111.461L150.95 119.31L164.758 111.461V95.7649L150.95 103.614Z" fill="#42E8E0"/>
<path d="M150.95 119.31L137.14 111.461V95.7649L150.95 103.614V119.31Z" fill="#FCCC6B"/>
<path d="M164.758 111.461L150.95 119.31V103.614L164.758 95.7649V111.461Z" fill="#B95CE0"/>
<path d="M150.95 103.614L137.14 95.7649L150.95 87.9176L164.758 95.7649L150.95 103.614Z" fill="#53CCA6"/>
<path d="M150.95 103.614L137.14 95.7649V96.4465L150.95 104.296L164.758 96.4465V95.7649L150.95 103.614Z" fill="white"/>
<path d="M150.95 41.1202L137.14 33.2729V48.9693L150.95 56.8166L164.758 48.9693V33.2729L150.95 41.1202Z" fill="#42E8E0"/>
<path d="M150.95 56.8166L137.14 48.9693V33.2729L150.95 41.1202V56.8166Z" fill="#FCCC6B"/>
<path d="M164.758 48.9693L150.95 56.8166V41.1202L164.758 33.2729V48.9693Z" fill="#B95CE0"/>
<path d="M150.95 41.1202L137.14 33.2729L150.95 25.4238L164.758 33.2729L150.95 41.1202Z" fill="#53CCA6"/>
<path d="M150.95 41.1202L137.74 33.6119L137.14 33.9527L150.95 41.8018L164.758 33.9527L164.158 33.6138L150.95 41.1202Z" fill="white"/>
<path d="M168.887 51.1954L155.171 43.4015V58.9912L168.887 66.7852L182.601 58.9912V43.4015L168.887 51.1954Z" fill="#42E8E0"/>
<path d="M168.887 66.7852L155.171 58.9912V43.4015L168.887 51.1954V66.7852Z" fill="#FCCC6B"/>
<path d="M182.601 58.9912L168.887 66.7852V51.1954L182.601 43.4015V58.9912Z" fill="#B95CE0"/>
<path d="M168.887 51.1954L155.171 43.4015L168.885 35.6057L182.601 43.4015L168.887 51.1954Z" fill="#53CCA6"/>
<path d="M168.887 51.1954L155.766 43.7382L155.171 44.0766L168.887 51.8724L182.601 44.0766L182.005 43.74L168.887 51.1954Z" fill="white"/>
<path d="M186.822 61.2705L173.679 53.8015V68.7412L186.822 76.2102L199.966 68.7412V53.8015L186.822 61.2705Z" fill="#42E8E0"/>
<path d="M186.823 76.2102L173.679 68.7412V53.8015L186.823 61.2705V76.2102Z" fill="#FCCC6B"/>
<path d="M199.966 68.7412L186.823 76.2102V61.2705L199.966 53.8015V68.7412Z" fill="#B95CE0"/>
<path d="M186.823 61.2705L173.679 53.8015L186.822 46.3308L199.966 53.8015L186.823 61.2705Z" fill="#53CCA6"/>
<path d="M186.822 61.2705L174.25 54.1241L173.679 54.4485L186.822 61.9192L199.966 54.4485V53.8015L186.822 61.2705Z" fill="white"/>
<path d="M133.014 51.8769L120.824 44.9479V58.8044L133.014 65.7334L145.203 58.8044V44.9479L133.014 51.8769Z" fill="#42E8E0"/>
<path d="M133.014 65.7334L120.824 58.8044V44.9479L133.014 51.8769V65.7334Z" fill="#FCCC6B"/>
<path d="M145.203 58.8044L133.014 65.7334V51.8769L145.203 44.9479V58.8044Z" fill="#B95CE0"/>
<path d="M133.014 51.877L120.824 44.948L133.014 38.0205L145.203 44.948L133.014 51.877Z" fill="#53CCA6"/>
<path d="M133.014 51.877L121.352 45.2488L120.824 45.5496L133.014 52.4771L145.203 45.5496L144.674 45.2488L133.014 51.877Z" fill="white"/>
<path d="M150.95 61.9522L139.992 55.7236V68.1792L150.95 74.4078L161.907 68.1792V55.7236L150.95 61.9522Z" fill="#42E8E0"/>
<path d="M150.95 74.4078L139.992 68.1792V55.7236L150.95 61.9522V74.4078Z" fill="#FCCC6B"/>
<path d="M161.907 68.1792L150.95 74.4078V61.9522L161.907 55.7236V68.1792Z" fill="#B95CE0"/>
<path d="M150.95 61.9522L139.992 55.7237L150.95 49.4966L161.907 55.7237L150.95 61.9522Z" fill="#3DF5BB"/>
<path d="M150.95 61.9521L140.467 55.994L139.992 56.2645L150.95 62.4915L161.907 56.2645L161.431 55.994L150.95 61.9521Z" fill="white"/>
<path d="M168.887 72.0272L158.871 66.3347V77.7184L168.887 83.4108L178.901 77.7184V66.3347L168.887 72.0272Z" fill="#42E8E0"/>
<path d="M168.887 83.4108L158.871 77.7184V66.3347L168.887 72.0272V83.4108Z" fill="#FCCC6B"/>
<path d="M178.901 77.7184L168.887 83.4108V72.0272L178.901 66.3347V77.7184Z" fill="#B95CE0"/>
<path d="M168.887 72.0272L158.871 66.3347L168.885 60.6436L178.901 66.3347L168.887 72.0272Z" fill="#3CF5BA"/>
<path d="M168.887 72.0272L159.306 66.5819L158.871 66.829L168.887 72.5202L178.901 66.829V66.3347L168.887 72.0272Z" fill="white"/>
<path d="M115.077 62.6331L106.622 57.8269V67.4381L115.077 72.2443L123.532 67.4381V57.8269L115.077 62.6331Z" fill="#42E8E0"/>
<path d="M115.077 72.2443L106.622 67.4381V57.8269L115.077 62.6331V72.2443Z" fill="#FCCC6B"/>
<path d="M123.532 67.4381L115.077 72.2443V62.6331L123.532 57.8269V67.4381Z" fill="#B95CE0"/>
<path d="M115.077 62.6331L106.622 57.8269L115.077 53.0208L123.532 57.8269L115.077 62.6331Z" fill="#53CCA6"/>
<path d="M115.077 62.6331L106.988 58.0356L106.622 58.2432L115.077 63.0494L123.532 58.2443L123.166 58.0356L115.077 62.6331Z" fill="white"/>
<path d="M133.014 72.7079L125.677 68.5372V76.8776L133.014 81.0483L140.35 76.8776V68.5372L133.014 72.7079Z" fill="#42E8E0"/>
<path d="M133.014 81.0483L125.677 76.8776V68.5372L133.014 72.7079V81.0483Z" fill="#FCCC6B"/>
<path d="M140.35 76.8776L133.014 81.0483V72.7079L140.35 68.5372V76.8776Z" fill="#B95CE0"/>
<path d="M133.014 72.7079L125.677 68.5373L133.014 64.3666L140.35 68.5373L133.014 72.7079Z" fill="#3DF5BB"/>
<path d="M133.014 72.7079L125.677 68.5372V68.8984L133.014 73.0691L140.35 68.8984L140.032 68.7183L133.014 72.7079Z" fill="white"/>
<path d="M150.95 82.7829L145.379 79.6162V85.9488L150.95 89.1155L156.521 85.9488V79.6162L150.95 82.7829Z" fill="#42E8E0"/>
<path d="M150.95 89.1155L145.379 85.9488V79.6162L150.95 82.7829V89.1155Z" fill="#FCCC6B"/>
<path d="M156.521 85.9488L150.95 89.1155V82.7829L156.521 79.6162V85.9488Z" fill="#B95CE0"/>
<path d="M150.95 82.7829L145.379 79.6162L150.95 76.4496L156.521 79.6162L150.95 82.7829Z" fill="#3DF5BB"/>
<path d="M150.95 82.7829L145.379 79.6162V79.8905L150.95 83.0571L156.521 79.8905V79.6162L150.95 82.7829Z" fill="white"/>
<path d="M150.95 20.2903L147.216 18.1677V22.4123L150.95 24.5348L154.684 22.4123V18.1677L150.95 20.2903Z" fill="#42E8E0"/>
<path d="M150.95 24.5348L147.216 22.4123V18.1677L150.95 20.2903V24.5348Z" fill="#FCCC6B"/>
<path d="M154.684 22.4123L150.95 24.5348V20.2903L154.684 18.1677V22.4123Z" fill="#B95CE0"/>
<path d="M150.95 20.2902L147.216 18.1677L150.95 16.0457L154.684 18.1677L150.95 20.2902Z" fill="#3DF5BB"/>
<path d="M150.95 20.2903L147.216 18.1677V18.352L150.95 20.4741L154.684 18.352V18.1677L150.95 20.2903Z" fill="white"/>
<path d="M168.887 30.3654L167 29.2932V31.4374L168.887 32.5097L170.773 31.4374V29.2932L168.887 30.3654Z" fill="#42E8E0"/>
<path d="M168.887 32.5097L167 31.4374V29.2932L168.887 30.3654V32.5097Z" fill="#FCCC6B"/>
<path d="M170.773 31.4374L168.887 32.5097V30.3654L170.773 29.2932V31.4374Z" fill="#B95CE0"/>
<path d="M168.887 30.3654L167 29.2932L168.886 28.2212L170.773 29.2932L168.887 30.3654Z" fill="#3DF5BB"/>
<path d="M168.887 30.3654L167 29.2932V29.3863L168.887 30.4583L170.773 29.3863V29.2932L168.887 30.3654Z" fill="white"/>
</g>
<defs>
<linearGradient id="paint0_linear_413_1047" x1="34.6028" y1="130.071" x2="231.606" y2="130.071" gradientUnits="userSpaceOnUse">
<stop stop-color="#42E8E0"/>
<stop offset="0.67" stop-color="#4DA4DC"/>
<stop offset="1" stop-color="#5761D7"/>
</linearGradient>
<linearGradient id="paint1_linear_413_1047" x1="90.7545" y1="103.57" x2="209" y2="103.57" gradientUnits="userSpaceOnUse">
<stop stop-color="#42E8E0"/>
<stop offset="0.67" stop-color="#4DA4DC"/>
<stop offset="1" stop-color="#5761D7"/>
</linearGradient>
<linearGradient id="paint2_linear_413_1047" x1="149.761" y1="82.7485" x2="208.885" y2="82.7485" gradientUnits="userSpaceOnUse">
<stop stop-color="#42E8E0"/>
<stop offset="0.67" stop-color="#4DA4DC"/>
<stop offset="1" stop-color="#5761D7"/>
</linearGradient>
<linearGradient id="paint3_linear_413_1047" x1="90.7545" y1="82.7485" x2="149.878" y2="82.7485" gradientUnits="userSpaceOnUse">
<stop stop-color="#42E8E0"/>
<stop offset="0.67" stop-color="#4DA4DC"/>
<stop offset="1" stop-color="#5761D7"/>
</linearGradient>
<linearGradient id="paint4_linear_413_1047" x1="90.7545" y1="95.0524" x2="209" y2="95.0524" gradientUnits="userSpaceOnUse">
<stop stop-color="#42E8E0"/>
<stop offset="0.67" stop-color="#4DA4DC"/>
<stop offset="1" stop-color="#5761D7"/>
</linearGradient>
<linearGradient id="paint5_linear_413_1047" x1="149.761" y1="116.821" x2="208.883" y2="116.821" gradientUnits="userSpaceOnUse">
<stop stop-color="#42E8E0"/>
<stop offset="0.67" stop-color="#4DA4DC"/>
<stop offset="1" stop-color="#5761D7"/>
</linearGradient>
<linearGradient id="paint6_linear_413_1047" x1="90.7545" y1="116.821" x2="149.878" y2="116.821" gradientUnits="userSpaceOnUse">
<stop stop-color="#42E8E0"/>
<stop offset="0.67" stop-color="#4DA4DC"/>
<stop offset="1" stop-color="#5761D7"/>
</linearGradient>
<clipPath id="clip0_413_1047">
<rect width="325" height="202" fill="white"/>
</clipPath>
</defs>
</svg>
