<svg width="277" height="298" viewBox="0 0 277 298" fill="none" xmlns="http://www.w3.org/2000/svg">
<g opacity="0.2">
<path d="M185.899 263.862L186.995 261.859L106.77 254.591L103.414 256.26L159.843 261.46L149.054 267.685L93.2214 262.628L89.8658 264.296L172.35 271.898L173.447 269.895L165.055 269.134L175.806 262.931L185.899 263.862ZM162.131 268.87L151.978 267.95L162.759 261.729L172.888 262.662L162.131 268.87Z" fill="#093D89"/>
<path d="M121.789 162.086L7.12741 228.896L77.616 269.57L114.862 264.804L124.103 270.138H139.573L157.238 259.944L152.612 257.211L220.497 218.06L121.789 162.086Z" fill="#093D89"/>
</g>
<path d="M36.1397 202.486L22.0673 210.606L31.9649 216.316H36.2838L36.1397 202.486Z" fill="#093D89"/>
<path d="M36.3987 216.202L26.7329 210.625V206.415L36.3987 211.993V216.202Z" fill="#00FFE5"/>
<path d="M51.3538 207.44L36.1679 216.202V211.993L51.3538 203.231V207.44Z" fill="#00CCB7"/>
<path d="M36.3987 212.222L26.7319 206.645L41.9168 197.883L51.5836 203.46L36.3987 212.222Z" fill="#009788"/>
<path d="M245.387 242.286L234.036 248.835L241.242 252.994H244.387L245.387 242.286Z" fill="#093D89"/>
<path d="M244.445 252.966L237.407 248.904V245.839L244.445 249.901V252.966Z" fill="#00FFE5"/>
<path d="M251.972 248.554L244.33 252.965V249.9L251.972 245.49V248.554Z" fill="#00CCB7"/>
<path d="M244.415 249.987L237.378 245.925L245.02 241.515L252.058 245.576L244.415 249.987Z" fill="#009788"/>
<path d="M146.937 282.153L131.58 291.016L141.33 296.642H145.584L146.937 282.153Z" fill="#093D89"/>
<path d="M145.642 296.585L136.12 291.09V286.942L145.642 292.437V296.585Z" fill="#00FFE5"/>
<path d="M155.867 290.618L145.527 296.585V292.437L155.867 286.471V290.618Z" fill="#00CCB7"/>
<path d="M145.641 292.553L136.119 287.058L146.46 281.092L155.982 286.587L145.641 292.553Z" fill="#009788"/>
<path d="M72.4317 267.312C70.0143 264.84 67.6694 262.298 65.0806 260.01L47.1085 270.38L59.9142 277.769H71.3888L67.8397 267.312H72.4317Z" fill="#093D89"/>
<path d="M71.3888 277.653L58.8813 270.437V259.692L71.3888 266.908V277.653Z" fill="#00FFE5"/>
<path d="M71.2729 267.023V277.768L90.9208 266.431V255.686L71.2729 267.023Z" fill="#00CCB7"/>
<path d="M71.5036 267.253L58.9972 260.037L78.6441 248.699L91.1506 255.916L71.5036 267.253Z" fill="#009788"/>
<path d="M228.258 213.226L214.186 221.346L224.083 227.056H228.402L228.258 213.226Z" fill="#093D89"/>
<path d="M228.459 226.999L218.793 221.421V217.212L228.459 222.789V226.999Z" fill="#00FFE5"/>
<path d="M243.587 218.237L228.401 226.999V222.789L243.587 214.027V218.237Z" fill="#00CCB7"/>
<path d="M228.459 222.905L218.793 217.327L233.978 208.565L243.644 214.143L228.459 222.905Z" fill="#009788"/>
<path d="M145.814 151.447L130.18 142.426L145.814 133.405L161.447 142.426L145.814 151.447Z" fill="#D3EBFF"/>
<path d="M145.814 168.269L130.18 159.249V142.426L145.814 151.446V168.269Z" fill="#386BA9"/>
<path d="M161.447 159.249L145.814 168.269V151.446L161.447 142.426V159.249Z" fill="#85B7E0"/>
<path d="M163.4 161.595L147.767 152.574L163.4 143.553L179.033 152.574L163.4 161.595Z" fill="#D3EBFF"/>
<path d="M163.401 178.417L147.768 169.397V152.574L163.401 161.594V178.417Z" fill="#386BA9"/>
<path d="M179.033 169.397L163.4 178.417V161.594L179.033 152.574V169.397Z" fill="#85B7E0"/>
<path d="M180.987 171.743L165.354 162.722L180.987 153.701L196.621 162.722L180.987 171.743Z" fill="#D3EBFF"/>
<path d="M180.987 188.565L165.354 179.545V162.722L180.987 171.742V188.565Z" fill="#386BA9"/>
<path d="M196.621 179.545L180.987 188.565V171.742L196.621 162.722V179.545Z" fill="#85B7E0"/>
<path d="M198.573 181.891L182.94 172.87L198.573 163.849L214.207 172.87L198.573 181.891Z" fill="#D4ECFF"/>
<path d="M198.573 198.713L182.94 189.693V172.87L198.573 181.89V198.713Z" fill="#396CAA"/>
<path d="M214.207 189.693L198.573 198.713V181.89L214.207 172.87V189.693Z" fill="#86B8E1"/>
<path d="M128.173 161.626L112.54 152.605L128.173 143.584L143.806 152.605L128.173 161.626Z" fill="#D3EBFF"/>
<path d="M128.173 178.448L112.54 169.428V152.605L128.173 161.625V178.448Z" fill="#386BA9"/>
<path d="M143.806 169.428L128.173 178.448V161.625L143.806 152.605V169.428Z" fill="#85B7E0"/>
<path d="M145.759 171.774L130.126 162.753L145.759 153.732L161.393 162.753L145.759 171.774Z" fill="#D3EBFF"/>
<path d="M145.759 188.596L130.126 179.576V162.753L145.759 171.773V188.596Z" fill="#386BA9"/>
<path d="M161.393 179.576L145.759 188.596V171.773L161.393 162.753V179.576Z" fill="#85B7E0"/>
<path d="M163.346 181.922L147.712 172.901L163.346 163.88L178.979 172.901L163.346 181.922Z" fill="#D3EBFF"/>
<path d="M163.347 198.744L147.713 189.724V172.901L163.347 181.921V198.744Z" fill="#386BA9"/>
<path d="M178.979 189.724L163.346 198.744V181.921L178.979 172.901V189.724Z" fill="#85B7E0"/>
<path d="M190.437 194.069L188.252 197.288L185.951 209.877L190.754 214.304L192.566 211.889V195.046L190.437 194.069Z" fill="#1B63CF"/>
<path d="M190.814 197.796L175.181 188.775L190.814 179.754L206.448 188.775L190.814 197.796Z" fill="#009788"/>
<path d="M190.758 214.561L175.124 205.541V188.718L190.758 197.738V214.561Z" fill="#00FFE5"/>
<path d="M206.39 205.484L190.757 214.503V197.68L206.39 188.661V205.484Z" fill="#00CCB7"/>
<path d="M110.533 171.805L94.8992 162.784L110.533 153.763L126.166 162.784L110.533 171.805Z" fill="#D3EBFF"/>
<path d="M110.533 188.628L94.8992 179.608V162.785L110.533 171.805V188.628Z" fill="#386BA9"/>
<path d="M126.165 179.608L110.532 188.628V171.805L126.165 162.785V179.608Z" fill="#85B7E0"/>
<path d="M128.119 181.953L112.485 172.932L128.119 163.911L143.752 172.932L128.119 181.953Z" fill="#D3EBFF"/>
<path d="M128.119 198.776L112.485 189.756V172.933L128.119 181.953V198.776Z" fill="#386BA9"/>
<path d="M143.752 189.756L128.119 198.776V181.953L143.752 172.933V189.756Z" fill="#85B7E0"/>
<path d="M145.705 192.101L130.072 183.08L145.705 174.059L161.338 183.08L145.705 192.101Z" fill="#D3EBFF"/>
<path d="M145.705 208.924L130.072 199.904V183.081L145.705 192.101V208.924Z" fill="#386BA9"/>
<path d="M161.338 199.904L145.705 208.924V192.101L161.338 183.081V199.904Z" fill="#85B7E0"/>
<path d="M163.292 202.249L147.659 193.228L163.292 184.207L178.926 193.228L163.292 202.249Z" fill="#D4ECFF"/>
<path d="M163.292 219.072L147.659 210.052V193.229L163.292 202.249V219.072Z" fill="#396CAA"/>
<path d="M178.924 210.052L163.291 219.072V202.249L178.924 193.229V210.052Z" fill="#86B8E1"/>
<path d="M88.8308 184.276L73.1975 175.255L88.8308 166.234L104.464 175.255L88.8308 184.276Z" fill="#D4ECFF"/>
<path d="M88.8308 201.099L73.1975 192.079V175.256L88.8308 184.276V201.099Z" fill="#396CAA"/>
<path d="M104.464 192.079L88.8308 201.099V184.276L104.464 175.256V192.079Z" fill="#86B8E1"/>
<path d="M104.994 195.337L89.361 186.316L104.994 177.295L120.628 186.316L104.994 195.337Z" fill="#D4ECFF"/>
<path d="M104.994 212.16L89.361 203.14V186.317L104.994 195.337V212.16Z" fill="#396CAA"/>
<path d="M120.627 203.14L104.993 212.16V195.337L120.627 186.317V203.14Z" fill="#86B8E1"/>
<path d="M124.354 204.502L108.72 195.481L124.354 186.46L139.987 195.481L124.354 204.502Z" fill="#D4ECFF"/>
<path d="M124.354 221.324L108.72 212.304V195.481L124.354 204.501V221.324Z" fill="#396CAA"/>
<path d="M139.987 212.304L124.354 221.324V204.501L139.987 195.481V212.304Z" fill="#86B8E1"/>
<path d="M145.535 221.431L143.349 224.65L141.048 237.239L145.851 241.667L147.663 239.252V222.408L145.535 221.431Z" fill="#1B63CF"/>
<path d="M145.651 224.962L130.017 215.942L145.651 206.921L161.284 215.942L145.651 224.962Z" fill="#009788"/>
<path d="M145.651 241.786L130.017 232.766V215.943L145.651 224.962V241.786Z" fill="#00FFE5"/>
<path d="M161.284 232.766L145.651 241.786V224.962L161.284 215.943V232.766Z" fill="#00CCB7"/>
<path d="M145.814 132.296L130.18 123.276L145.814 114.255L161.447 123.276L145.814 132.296Z" fill="#D4ECFF"/>
<path d="M145.814 149.119L130.18 140.1V123.277L145.814 132.296V149.119Z" fill="#396CAA"/>
<path d="M161.447 140.1L145.814 149.119V132.296L161.447 123.277V140.1Z" fill="#86B8E1"/>
<path d="M163.4 142.445L147.767 133.424L163.4 124.404L179.033 133.424L163.4 142.445Z" fill="#D4ECFF"/>
<path d="M163.401 159.267L147.768 150.248V133.424L163.401 142.444V159.267Z" fill="#396CAA"/>
<path d="M179.033 150.248L163.4 159.267V142.444L179.033 133.424V150.248Z" fill="#86B8E1"/>
<path d="M180.987 152.593L165.354 143.572L180.987 134.551L196.621 143.572L180.987 152.593Z" fill="#D4ECFF"/>
<path d="M180.987 169.415L165.354 160.395V143.572L180.987 152.592V169.415Z" fill="#396CAA"/>
<path d="M196.621 160.395L180.987 169.415V152.592L196.621 143.572V160.395Z" fill="#86B8E1"/>
<path d="M219.032 174.582L203.399 165.561L219.032 156.54L234.666 165.561L219.032 174.582Z" fill="#D4ECFF"/>
<path d="M219.032 191.404L203.399 182.384V165.561L219.032 174.581V191.404Z" fill="#396CAA"/>
<path d="M234.666 182.384L219.032 191.404V174.581L234.666 165.561V182.384Z" fill="#86B8E1"/>
<path d="M128.173 142.519L112.54 133.498L128.173 124.477L143.806 133.498L128.173 142.519Z" fill="#D4ECFF"/>
<path d="M128.173 159.299L112.54 150.279V133.456L128.173 142.475V159.299Z" fill="#396CAA"/>
<path d="M143.806 150.279L128.173 159.299V142.475L143.806 133.456V150.279Z" fill="#86B8E1"/>
<path d="M145.845 152.71L130.212 143.689L145.845 134.668L161.478 143.689L145.845 152.71Z" fill="#D4ECFF"/>
<path d="M145.759 169.446L130.126 160.427V143.604L145.759 152.623V169.446Z" fill="#396CAA"/>
<path d="M161.393 160.427L145.759 169.446V152.623L161.393 143.604V160.427Z" fill="#86B8E1"/>
<path d="M163.346 162.814L147.712 153.794L163.346 144.773L178.979 153.794L163.346 162.814Z" fill="#D4ECFF"/>
<path d="M163.347 179.594L147.713 170.574V153.751L163.347 162.771V179.594Z" fill="#396CAA"/>
<path d="M178.979 170.574L163.346 179.594V162.771L178.979 153.751V170.574Z" fill="#86B8E1"/>
<path d="M194.764 181.051L179.13 172.031L194.764 163.01L210.397 172.031L194.764 181.051Z" fill="#D4ECFF"/>
<path d="M194.764 197.874L179.13 188.854V172.031L194.764 181.05V197.874Z" fill="#396CAA"/>
<path d="M210.397 188.854L194.764 197.874V181.05L210.397 172.031V188.854Z" fill="#86B8E1"/>
<path d="M110.533 152.656L94.8992 143.635L110.533 134.614L126.166 143.635L110.533 152.656Z" fill="#D4ECFF"/>
<path d="M110.533 169.478L94.8992 160.458V143.635L110.533 152.655V169.478Z" fill="#396CAA"/>
<path d="M126.165 160.458L110.532 169.478V152.655L126.165 143.635V160.458Z" fill="#86B8E1"/>
<path d="M128.119 162.803L112.485 153.783L128.119 144.762L143.752 153.783L128.119 162.803Z" fill="#D4ECFF"/>
<path d="M128.119 179.626L112.485 170.606V153.783L128.119 162.802V179.626Z" fill="#396CAA"/>
<path d="M143.752 170.606L128.119 179.626V162.802L143.752 153.783V170.606Z" fill="#86B8E1"/>
<path d="M145.705 172.972L130.072 163.952L145.705 154.931L161.338 163.952L145.705 172.972Z" fill="#D4ECFF"/>
<path d="M145.705 189.774L130.072 180.754V163.931L145.705 172.951V189.774Z" fill="#396CAA"/>
<path d="M161.338 180.754L145.705 189.774V172.951L161.338 163.931V180.754Z" fill="#86B8E1"/>
<path d="M163.292 183.099L147.659 174.078L163.292 165.057L178.926 174.078L163.292 183.099Z" fill="#D4ECFF"/>
<path d="M163.292 199.922L147.659 190.902V174.079L163.292 183.099V199.922Z" fill="#396CAA"/>
<path d="M178.924 190.902L163.291 199.922V183.099L178.924 174.079V190.902Z" fill="#86B8E1"/>
<path d="M77.9622 172.693L62.3289 163.672L77.9622 154.651L93.5955 163.672L77.9622 172.693Z" fill="#D4ECFF"/>
<path d="M77.9622 189.516L62.3289 180.496V163.673L77.9622 172.693V189.516Z" fill="#396CAA"/>
<path d="M93.5955 180.496L77.9622 189.516V172.693L93.5955 163.673V180.496Z" fill="#86B8E1"/>
<path d="M105.654 176.003L90.0208 166.982L105.654 157.961L121.287 166.982L105.654 176.003Z" fill="#D4ECFF"/>
<path d="M105.654 192.826L90.0208 183.806V166.983L105.654 176.003V192.826Z" fill="#396CAA"/>
<path d="M121.286 183.806L105.653 192.826V176.003L121.286 166.983V183.806Z" fill="#86B8E1"/>
<path d="M114.491 191.712L98.8581 182.691L114.491 173.67L130.125 182.691L114.491 191.712Z" fill="#D4ECFF"/>
<path d="M114.556 208.566L98.9226 199.546V182.723L114.556 191.743V208.566Z" fill="#396CAA"/>
<path d="M130.189 199.546L114.556 208.566V191.743L130.189 182.723V199.546Z" fill="#86B8E1"/>
<path d="M141.586 195.73L125.953 186.709L141.586 177.688L157.22 186.709L141.586 195.73Z" fill="#D4ECFF"/>
<path d="M141.586 212.552L125.953 203.532V186.709L141.586 195.729V212.552Z" fill="#396CAA"/>
<path d="M157.22 203.532L141.586 212.552V195.729L157.22 186.709V203.532Z" fill="#86B8E1"/>
<path d="M145.814 113.147L130.18 104.126L145.814 95.1052L161.447 104.126L145.814 113.147Z" fill="#D4ECFF"/>
<path d="M145.814 129.97L130.18 120.95V104.127L145.814 113.147V129.97Z" fill="#396CAA"/>
<path d="M161.447 120.95L145.814 129.97V113.147L161.447 104.127V120.95Z" fill="#86B8E1"/>
<path d="M163.4 123.295L147.767 114.274L163.4 105.253L179.033 114.274L163.4 123.295Z" fill="#D4ECFF"/>
<path d="M163.401 140.118L147.768 131.098V114.275L163.401 123.295V140.118Z" fill="#396CAA"/>
<path d="M179.033 131.098L163.4 140.118V123.295L179.033 114.275V131.098Z" fill="#86B8E1"/>
<path d="M186.278 130.463L170.645 121.442L186.278 112.421L201.912 121.442L186.278 130.463Z" fill="#D4ECFF"/>
<path d="M186.278 147.285L170.645 138.265V121.442L186.278 130.462V147.285Z" fill="#396CAA"/>
<path d="M201.912 138.265L186.278 147.285V130.462L201.912 121.442V138.265Z" fill="#86B8E1"/>
<path d="M206.203 139.128L190.57 130.107L206.203 121.086L221.837 130.107L206.203 139.128Z" fill="#D4ECFF"/>
<path d="M206.203 155.95L190.57 146.93V130.107L206.203 139.127V155.95Z" fill="#396CAA"/>
<path d="M221.837 146.93L206.203 155.95V139.127L221.837 130.107V146.93Z" fill="#86B8E1"/>
<path d="M145.759 133.475L130.126 124.454L145.759 115.433L161.393 124.454L145.759 133.475Z" fill="#D4ECFF"/>
<path d="M145.759 150.297L130.126 141.277V124.454L145.759 133.474V150.297Z" fill="#396CAA"/>
<path d="M161.393 141.277L145.759 150.297V133.474L161.393 124.454V141.277Z" fill="#86B8E1"/>
<path d="M163.346 143.623L147.712 134.602L163.346 125.581L178.979 134.602L163.346 143.623Z" fill="#D4ECFF"/>
<path d="M163.347 160.445L147.713 151.425V134.602L163.347 143.622V160.445Z" fill="#396CAA"/>
<path d="M178.979 151.425L163.346 160.445V143.622L178.979 134.602V151.425Z" fill="#86B8E1"/>
<path d="M128.119 143.654L112.485 134.633L128.119 125.612L143.752 134.633L128.119 143.654Z" fill="#D4ECFF"/>
<path d="M128.119 160.476L112.485 151.456V134.633L128.119 143.653V160.476Z" fill="#396CAA"/>
<path d="M143.752 151.456L128.119 160.476V143.653L143.752 134.633V151.456Z" fill="#86B8E1"/>
<path d="M145.705 153.802L130.072 144.781L145.705 135.76L161.338 144.781L145.705 153.802Z" fill="#D4ECFF"/>
<path d="M145.705 170.625L130.072 161.605V144.782L145.705 153.802V170.625Z" fill="#396CAA"/>
<path d="M161.338 161.605L145.705 170.625V153.802L161.338 144.782V161.605Z" fill="#86B8E1"/>
<path d="M163.292 163.95L147.659 154.929L163.292 145.908L178.926 154.929L163.292 163.95Z" fill="#D4ECFF"/>
<path d="M163.292 180.773L147.659 171.753V154.93L163.292 163.95V180.773Z" fill="#396CAA"/>
<path d="M178.924 171.753L163.291 180.773V163.95L178.924 154.93V171.753Z" fill="#86B8E1"/>
<path d="M77.2175 153.047L61.5842 144.026L77.2175 135.005L92.8509 144.026L77.2175 153.047Z" fill="#D4ECFF"/>
<path d="M77.2175 169.87L61.5842 160.85V144.027L77.2175 153.047V169.87Z" fill="#396CAA"/>
<path d="M92.8509 160.85L77.2176 169.87V153.047L92.8509 144.027V160.85Z" fill="#86B8E1"/>
<path d="M72.8156 171.995L70.6299 175.213L68.3294 187.802L73.132 192.23L74.9439 189.815V172.971L72.8156 171.995Z" fill="#1B63CF"/>
<path d="M72.996 175.518L57.3627 166.498L72.996 157.477L88.6293 166.498L72.996 175.518Z" fill="#009788"/>
<path d="M73.0545 192.283L57.4212 183.263V166.44L73.0545 175.46V192.283Z" fill="#00FFE5"/>
<path d="M88.5719 183.263L72.9386 192.283V175.46L88.5719 166.44V183.263Z" fill="#00CCB7"/>
<path d="M116.059 171.208L100.426 162.187L116.059 153.166L131.692 162.187L116.059 171.208Z" fill="#D4ECFF"/>
<path d="M116.059 188.031L100.426 179.011V162.188L116.059 171.208V188.031Z" fill="#396CAA"/>
<path d="M131.692 179.011L116.059 188.031V171.208L131.692 162.188V179.011Z" fill="#86B8E1"/>
<path d="M145.651 174.129L130.017 165.108L145.651 156.087L161.284 165.108L145.651 174.129Z" fill="#D4ECFF"/>
<path d="M145.651 190.952L130.017 181.932V165.109L145.651 174.129V190.952Z" fill="#396CAA"/>
<path d="M161.284 181.932L145.651 190.952V174.129L161.284 165.109V181.932Z" fill="#86B8E1"/>
<path d="M136.556 88.6969L120.922 79.6761L136.556 70.6552L152.189 79.6761L136.556 88.6969Z" fill="#D4ECFF"/>
<path d="M136.556 105.52L120.922 96.5002V79.6771L136.556 88.6969V105.52Z" fill="#396CAA"/>
<path d="M152.189 96.5002L136.556 105.52V88.6969L152.189 79.6771V96.5002Z" fill="#86B8E1"/>
<path d="M177.318 96.0792L161.685 87.0583L177.318 78.0375L192.952 87.0583L177.318 96.0792Z" fill="#D4ECFF"/>
<path d="M177.319 112.902L161.686 103.882V87.0593L177.319 96.0792V112.902Z" fill="#396CAA"/>
<path d="M192.952 103.882L177.318 112.902V96.0792L192.952 87.0593V103.882Z" fill="#86B8E1"/>
<path d="M189.248 109.391L173.615 100.37L189.248 91.3491L204.882 100.37L189.248 109.391Z" fill="#D4ECFF"/>
<path d="M189.248 126.213L173.615 117.193V100.37L189.248 109.39V126.213Z" fill="#396CAA"/>
<path d="M204.882 117.193L189.248 126.213V109.39L204.882 100.37V117.193Z" fill="#86B8E1"/>
<path d="M204.473 90.3656L202.287 93.5844L199.986 106.174L204.789 110.601L206.601 108.186V91.3425L204.473 90.3656Z" fill="#1B63CF"/>
<path d="M204.786 94.2219L189.153 85.201L204.786 76.1802L220.419 85.201L204.786 94.2219Z" fill="#009788"/>
<path d="M204.843 110.987L189.21 101.967V85.1437L204.843 94.1635V110.987Z" fill="#00FFE5"/>
<path d="M220.39 101.967L204.757 110.987V94.1635L220.39 85.1437V101.967Z" fill="#00CCB7"/>
<path d="M86.217 76.3403L84.0313 79.5591L81.7307 92.1482L86.5334 96.5755L88.3452 94.1604V77.3172L86.217 76.3403Z" fill="#1B63CF"/>
<path d="M86.489 80.2389L70.8557 71.2181L86.489 62.1972L102.122 71.2181L86.489 80.2389Z" fill="#009788"/>
<path d="M86.5465 96.9462L70.9131 87.9264V71.1033L86.5465 80.1231V96.9462Z" fill="#00FFE5"/>
<path d="M102.065 87.9264L86.4316 96.9462V80.1231L102.065 71.1033V87.9264Z" fill="#00CCB7"/>
<path d="M145.759 114.325L130.126 105.304L145.759 96.2835L161.393 105.304L145.759 114.325Z" fill="#D4ECFF"/>
<path d="M145.759 131.147L130.126 122.127V105.304L145.759 114.324V131.147Z" fill="#396CAA"/>
<path d="M161.393 122.127L145.759 131.147V114.324L161.393 105.304V122.127Z" fill="#86B8E1"/>
<path d="M163.346 124.473L147.712 115.452L163.346 106.431L178.979 115.452L163.346 124.473Z" fill="#D4ECFF"/>
<path d="M163.347 141.295L147.713 132.275V115.452L163.347 124.472V141.295Z" fill="#396CAA"/>
<path d="M178.979 132.275L163.346 141.295V124.472L178.979 115.452V132.275Z" fill="#86B8E1"/>
<path d="M188.124 138.578L172.491 129.557L188.124 120.536L203.757 129.557L188.124 138.578Z" fill="#D4ECFF"/>
<path d="M188.124 155.4L172.49 146.38V129.557L188.124 138.577V155.4Z" fill="#396CAA"/>
<path d="M203.757 146.38L188.124 155.4V138.577L203.757 129.557V146.38Z" fill="#86B8E1"/>
<path d="M93.0037 100.771L90.818 103.99L88.5175 116.579L93.3201 121.006L95.132 118.591V101.748L93.0037 100.771Z" fill="#1B63CF"/>
<path d="M93.3524 104.501L77.7191 95.4798L93.3524 86.4589L108.986 95.4798L93.3524 104.501Z" fill="#009788"/>
<path d="M93.4098 121.265L77.7765 112.246V95.4224L93.4098 104.442V121.265Z" fill="#00FFE5"/>
<path d="M108.928 112.246L93.295 121.265V104.442L108.928 95.4224V112.246Z" fill="#00CCB7"/>
<path d="M128.119 124.504L112.485 115.483L128.119 106.463L143.752 115.483L128.119 124.504Z" fill="#D4ECFF"/>
<path d="M128.119 141.326L112.485 132.307V115.483L128.119 124.503V141.326Z" fill="#396CAA"/>
<path d="M143.752 132.307L128.119 141.326V124.503L143.752 115.483V132.307Z" fill="#86B8E1"/>
<path d="M145.402 46.6783L143.216 49.8971L140.915 62.4863L145.718 66.9136L147.53 64.4985V47.6553L145.402 46.6783Z" fill="#1B63CF"/>
<path d="M145.762 50.3937L130.129 41.3728L145.762 32.3519L161.396 41.3728L145.762 50.3937Z" fill="#009788"/>
<path d="M145.705 67.1583L130.072 58.1385V41.3154L145.705 50.3352V67.1583Z" fill="#00FFE5"/>
<path d="M161.324 58.1244L145.691 67.1442V50.3211L161.324 41.3013V58.1244Z" fill="#00CCB7"/>
<path d="M171.969 149.735L156.336 140.715L171.969 131.694L187.602 140.715L171.969 149.735Z" fill="#D4ECFF"/>
<path d="M171.969 166.559L156.336 157.539V140.716L171.969 149.735V166.559Z" fill="#396CAA"/>
<path d="M187.601 157.539L171.968 166.559V149.735L187.601 140.716V157.539Z" fill="#86B8E1"/>
<path d="M78.3987 133.209L62.7654 124.188L78.3987 115.167L94.032 124.188L78.3987 133.209Z" fill="#D4ECFF"/>
<path d="M78.3987 150.032L62.7654 141.012V124.189L78.3987 133.209V150.032Z" fill="#396CAA"/>
<path d="M94.0321 141.012L78.3987 150.032V133.209L94.0321 124.189V141.012Z" fill="#86B8E1"/>
<path d="M97.9961 142.349L82.3628 133.328L97.9961 124.307L113.629 133.328L97.9961 142.349Z" fill="#D4ECFF"/>
<path d="M97.9961 159.172L82.3628 150.152V133.329L97.9961 142.349V159.172Z" fill="#396CAA"/>
<path d="M113.628 150.152L97.9951 159.172V142.349L113.628 133.329V150.152Z" fill="#86B8E1"/>
<path d="M123.578 147.522L107.944 138.501L123.578 129.48L139.211 138.501L123.578 147.522Z" fill="#D4ECFF"/>
<path d="M123.578 164.345L107.944 155.325V138.502L123.578 147.522V164.345Z" fill="#396CAA"/>
<path d="M139.211 155.325L123.578 164.345V147.522L139.211 138.502V155.325Z" fill="#86B8E1"/>
<path d="M133.602 161.88L117.969 152.859L133.602 143.838L149.235 152.859L133.602 161.88Z" fill="#D4ECFF"/>
<path d="M133.602 178.703L117.969 169.683V152.86L133.602 161.88V178.703Z" fill="#396CAA"/>
<path d="M149.236 169.683L133.602 178.703V161.88L149.236 152.86V169.683Z" fill="#86B8E1"/>
<g opacity="0.6">
<path d="M157.151 122.74C169.658 122.74 179.813 128.613 179.813 135.847C179.813 143.08 169.658 148.953 157.151 148.953C144.644 148.953 134.49 143.08 134.49 135.847C134.49 128.613 144.644 122.74 157.151 122.74Z" fill="#093D89"/>
</g>
<path d="M182.978 122.563L182.619 127.905C180.245 109.309 137.408 109.195 134.938 127.768C130.554 104.169 179.987 102.328 182.978 122.563Z" fill="#D5D0C8"/>
<path d="M141.87 116.015C153.235 109.344 178.77 110.002 182.582 124.963C182.017 105.286 135.564 105.178 135.003 124.885C135.342 121.653 137.626 118.479 141.87 116.015Z" fill="#396CAA"/>
<path d="M183.682 122.767C188.111 149.083 129.333 148.926 133.903 122.625C136.378 142.042 181.106 142.161 183.682 122.767Z" fill="#DFDCD8"/>
<path d="M176.344 112.505C186.082 118.124 186.135 127.27 176.457 132.892C166.781 138.511 150.981 138.511 141.243 132.892C131.501 127.27 131.45 118.124 141.125 112.505C150.803 106.883 166.602 106.883 176.344 112.505ZM141.984 132.462C151.312 137.844 166.443 137.844 175.711 132.462C184.983 127.077 184.933 118.318 175.605 112.935C166.273 107.55 151.142 107.55 141.87 112.935C132.602 118.318 132.652 127.077 141.984 132.462Z" fill="#FDFAF5"/>
<path d="M184.361 136.811C181.057 135.325 175.541 129.476 174.461 136.671C173.951 138.24 180.782 140.932 181.506 141.693C179.788 140.272 182.275 135.978 184.361 136.811Z" fill="#D2CDC4"/>
<path d="M185.932 135.425C182.38 134.005 178.145 141.318 181.071 143.736L205.646 157.916L210.506 149.605L185.932 135.425Z" fill="#0A213D"/>
<path d="M211.11 155.513C212.441 153.209 212.145 150.549 210.45 149.571C208.756 148.592 206.303 149.667 204.972 151.971C203.641 154.274 203.938 156.934 205.632 157.913C207.327 158.891 209.78 157.816 211.11 155.513Z" fill="#48525E"/>
<g opacity="0.6">
<path d="M159.185 110.184C173.025 110.184 184.262 116.469 184.262 124.21C184.262 131.951 173.025 138.236 159.185 138.236C145.345 138.236 134.107 131.951 134.107 124.21C134.107 116.469 145.345 110.184 159.185 110.184Z" fill="#3F8BC9"/>
</g>
<path d="M139.496 113.56C137.985 115.036 135.979 113.406 134.597 112.615C133.227 111.836 135.467 110.86 136.222 110.851C136.902 110.939 141.169 112.648 139.496 113.56ZM138.474 113.663C138.815 113.447 139.759 113.092 138.995 112.699C137.968 112.226 136.179 110.49 135.073 111.7C133.937 112.141 138.114 114.296 138.474 113.663Z" fill="#80E4FF"/>
<path d="M147.674 108.841C146.162 110.317 144.158 108.686 142.776 107.895C141.405 107.117 143.645 106.14 144.4 106.132C145.081 106.219 149.348 107.928 147.674 108.841ZM146.651 108.942C146.992 108.726 147.936 108.373 147.173 107.98C146.147 107.509 144.356 105.772 143.252 106.981C142.114 107.424 146.29 109.577 146.651 108.942Z" fill="#80E4FF"/>
<path d="M147.255 105.235C146.576 105.077 147.259 104.113 147.638 103.963C147.785 103.89 151.982 106.236 151.882 106.412C151.593 107.118 148.102 104.52 147.763 104.484C147.671 104.559 147.472 105.415 147.255 105.235Z" fill="#80E4FF"/>
<path d="M129.961 128.203C128.451 129.68 126.446 128.048 125.064 127.257C123.692 126.48 125.933 125.502 126.687 125.495C127.367 125.581 131.635 127.292 129.961 128.203ZM128.938 128.305C129.28 128.089 130.223 127.736 129.46 127.342C128.434 126.871 126.644 125.136 125.539 126.344C124.402 126.786 128.578 128.94 128.938 128.305Z" fill="#80E4FF"/>
<path d="M137.864 123.644C136.352 125.121 134.349 123.489 132.967 122.698C131.595 121.92 133.836 120.943 134.59 120.935C135.271 121.022 139.538 122.732 137.864 123.644ZM136.841 123.745C137.183 123.529 138.126 123.176 137.363 122.783C136.337 122.312 134.547 120.575 133.442 121.785C132.305 122.227 136.48 124.38 136.841 123.745Z" fill="#80E4FF"/>
<path d="M145.767 119.083C144.255 120.56 142.25 118.93 140.868 118.138C139.498 117.359 141.737 116.383 142.493 116.374C143.173 116.462 147.44 118.171 145.767 119.083ZM144.744 119.186C145.086 118.97 146.029 118.615 145.266 118.222C144.24 117.75 142.45 116.014 141.344 117.224C140.208 117.665 144.385 119.819 144.744 119.186Z" fill="#80E4FF"/>
<path d="M145.209 115.558C144.531 115.4 145.212 114.436 145.591 114.285C145.73 114.215 149.943 116.558 149.837 116.735C149.548 117.441 146.056 114.843 145.718 114.807C145.625 114.88 145.427 115.738 145.209 115.558Z" fill="#80E4FF"/>
<path d="M153.67 114.522C152.158 115.999 150.153 114.369 148.771 113.578C147.402 112.798 149.64 111.822 150.396 111.813C151.076 111.901 155.342 113.61 153.67 114.522ZM152.647 114.625C152.988 114.409 153.932 114.054 153.169 113.661C152.143 113.189 150.353 111.453 149.246 112.663C148.11 113.104 152.288 115.258 152.647 114.625Z" fill="#80E4FF"/>
<path d="M130.386 133.255C129.706 133.097 130.39 132.133 130.769 131.982C130.899 131.914 135.124 134.254 135.014 134.43C134.723 135.139 131.234 132.539 130.894 132.504C130.802 132.578 130.604 133.435 130.386 133.255Z" fill="#80E4FF"/>
<path d="M162.211 118.738C160.699 120.214 158.694 118.584 157.312 117.793C155.942 117.014 158.181 116.038 158.937 116.029C159.617 116.117 163.883 117.826 162.211 118.738ZM161.188 118.84C161.529 118.624 162.473 118.27 161.71 117.876C160.683 117.404 158.894 115.668 157.787 116.878C156.651 117.319 160.829 119.474 161.188 118.84Z" fill="#80E4FF"/>
<path d="M170.389 114.017C168.878 115.494 166.872 113.864 165.49 113.073C164.12 112.293 166.36 111.317 167.115 111.308C167.795 111.396 172.062 113.105 170.389 114.017ZM169.367 114.12C169.708 113.904 170.652 113.549 169.888 113.156C168.863 112.684 167.072 110.948 165.966 112.158C164.83 112.599 169.007 114.753 169.367 114.12Z" fill="#80E4FF"/>
<path d="M175.132 111.28C173.62 112.757 171.615 111.127 170.233 110.335C168.863 109.556 171.102 108.58 171.858 108.571C172.538 108.659 176.804 110.368 175.132 111.28ZM174.109 111.383C174.45 111.167 175.394 110.812 174.631 110.419C173.605 109.946 171.815 108.211 170.708 109.421C169.572 109.862 173.75 112.016 174.109 111.383Z" fill="#80E4FF"/>
<path d="M150.409 134.69C148.898 136.166 146.894 134.535 145.512 133.743C144.14 132.966 146.381 131.988 147.135 131.981C147.817 132.067 152.083 133.778 150.409 134.69ZM149.387 134.791C149.728 134.575 150.672 134.222 149.908 133.828C148.883 133.357 147.092 131.62 145.987 132.83C144.85 133.273 149.026 135.426 149.387 134.791Z" fill="#80E4FF"/>
<path d="M149.852 131.163C149.172 131.005 149.856 130.041 150.235 129.89C150.381 129.817 154.579 132.165 154.479 132.338C154.189 133.046 150.7 130.447 150.36 130.412C150.268 130.486 150.069 131.343 149.852 131.163Z" fill="#80E4FF"/>
<path d="M153.149 129.26C152.471 129.102 153.154 128.138 153.533 127.987C153.689 127.911 157.871 130.263 157.777 130.437C157.488 131.143 153.996 128.545 153.658 128.509C153.565 128.582 153.367 129.44 153.149 129.26Z" fill="#80E4FF"/>
<path d="M164.908 126.323C163.396 127.8 161.391 126.17 160.009 125.378C158.64 124.599 160.878 123.623 161.634 123.614C162.314 123.702 166.58 125.411 164.908 126.323ZM163.885 126.426C164.226 126.21 165.17 125.855 164.407 125.462C163.381 124.99 161.59 123.254 160.484 124.464C159.348 124.905 163.526 127.059 163.885 126.426Z" fill="#80E4FF"/>
<path d="M174.119 121.008C172.608 122.485 170.603 120.855 169.221 120.064C167.85 119.284 170.09 118.308 170.846 118.299C171.525 118.387 175.792 120.096 174.119 121.008ZM173.097 121.111C173.438 120.895 174.382 120.54 173.618 120.147C172.591 119.675 170.802 117.939 169.696 119.149C168.56 119.59 172.737 121.744 173.097 121.111Z" fill="#80E4FF"/>
<path d="M182.022 116.447C180.511 117.924 178.505 116.294 177.123 115.503C175.753 114.723 177.993 113.748 178.748 113.739C179.428 113.826 183.695 115.536 182.022 116.447ZM181 116.55C181.341 116.334 182.285 115.98 181.521 115.586C180.494 115.114 178.705 113.378 177.599 114.588C176.463 115.029 180.64 117.183 181 116.55Z" fill="#80E4FF"/>
<path d="M151.934 139.104C151.255 138.946 151.939 137.982 152.318 137.832C152.456 137.762 156.665 140.106 156.562 140.28C156.271 140.988 152.783 138.391 152.443 138.353C152.35 138.428 152.152 139.285 151.934 139.104Z" fill="#80E4FF"/>
<path d="M160.326 138.109C158.815 139.586 156.809 137.955 155.427 137.164C154.059 136.385 156.297 135.409 157.052 135.4C157.732 135.488 161.999 137.197 160.326 138.109ZM159.304 138.212C159.645 137.996 160.589 137.641 159.825 137.248C158.798 136.775 157.009 135.04 155.903 136.249C154.767 136.69 158.944 138.845 159.304 138.212Z" fill="#80E4FF"/>
<path d="M159.7 134.622C159.02 134.465 159.705 133.5 160.083 133.35C160.234 133.275 164.425 135.628 164.328 135.8C164.037 136.507 160.548 133.909 160.209 133.871C160.116 133.946 159.918 134.803 159.7 134.622Z" fill="#80E4FF"/>
<path d="M168.092 133.627C166.58 135.104 164.575 133.474 163.193 132.682C161.823 131.903 164.062 130.927 164.818 130.918C165.498 131.006 169.765 132.715 168.092 133.627ZM167.069 133.73C167.411 133.514 168.354 133.159 167.591 132.766C166.564 132.294 164.775 130.558 163.669 131.768C162.533 132.209 166.71 134.363 167.069 133.73Z" fill="#80E4FF"/>
<path d="M175.232 125.66C174.552 125.502 175.236 124.538 175.615 124.388C175.754 124.318 179.964 126.661 179.859 126.836C179.569 127.545 176.08 124.945 175.74 124.909C175.648 124.984 175.449 125.84 175.232 125.66Z" fill="#80E4FF"/>
<path d="M182.997 121.18C182.318 121.022 183.002 120.058 183.381 119.907C183.518 119.837 187.729 122.181 187.625 122.355C187.334 123.063 183.846 120.466 183.506 120.429C183.413 120.503 183.215 121.36 182.997 121.18Z" fill="#80E4FF"/>
<path d="M191.389 120.184C189.877 121.661 187.872 120.031 186.49 119.24C185.12 118.46 187.359 117.484 188.115 117.475C188.795 117.563 193.062 119.272 191.389 120.184ZM190.366 120.287C190.708 120.071 191.652 119.716 190.888 119.323C189.863 118.851 188.072 117.115 186.966 118.325C185.83 118.766 190.007 120.92 190.366 120.287Z" fill="#80E4FF"/>
<path d="M161.509 142.722C160.829 142.564 161.513 141.6 161.892 141.45C162.032 141.38 166.239 143.723 166.136 143.898C165.845 144.605 162.357 142.008 162.017 141.971C161.924 142.046 161.726 142.902 161.509 142.722Z" fill="#80E4FF"/>
<path d="M164.943 140.74C164.265 140.582 164.946 139.618 165.325 139.468C165.47 139.395 169.674 141.743 169.571 141.917C169.282 142.625 165.79 140.025 165.452 139.989C165.359 140.062 165.161 140.921 164.943 140.74Z" fill="#80E4FF"/>
<path d="M171.815 136.774C171.135 136.616 171.819 135.652 172.198 135.502C172.35 135.427 176.538 137.778 176.442 137.95C176.152 138.657 172.663 136.059 172.323 136.023C172.231 136.098 172.032 136.954 171.815 136.774Z" fill="#80E4FF"/>
<path d="M175.249 134.792C174.571 134.634 175.252 133.67 175.631 133.52C175.776 133.447 179.98 135.794 179.877 135.969C179.588 136.676 176.096 134.077 175.758 134.041C175.665 134.116 175.467 134.973 175.249 134.792Z" fill="#80E4FF"/>
<path d="M183.428 130.073C182.748 129.915 183.433 128.951 183.811 128.801C183.951 128.729 188.16 131.076 188.056 131.249C187.765 131.957 184.276 129.358 183.937 129.322C183.844 129.397 183.646 130.254 183.428 130.073Z" fill="#80E4FF"/>
<path d="M186.863 128.09C186.185 127.932 186.866 126.968 187.245 126.818C187.391 126.745 191.592 129.093 191.491 129.267C191.201 129.974 187.71 127.375 187.371 127.339C187.279 127.414 187.081 128.271 186.863 128.09Z" fill="#80E4FF"/>
<path d="M122.72 119.393C122.042 119.235 122.725 118.271 123.103 118.121C123.249 118.048 127.449 120.394 127.348 120.57C127.058 121.277 123.567 118.678 123.228 118.642C123.136 118.717 122.938 119.573 122.72 119.393Z" fill="#0F4BC2"/>
<path d="M131.318 118.279C129.806 119.755 127.801 118.125 126.419 117.334C125.049 116.555 127.288 115.579 128.044 115.57C128.724 115.658 132.99 117.367 131.318 118.279ZM130.295 118.381C130.636 118.165 131.58 117.811 130.817 117.417C129.79 116.945 128.001 115.209 126.894 116.419C125.758 116.86 129.936 119.015 130.295 118.381Z" fill="#0F4BC2"/>
<path d="M130.899 114.673C130.22 114.515 130.902 113.551 131.28 113.4C131.425 113.327 135.629 115.676 135.526 115.85C135.237 116.556 131.746 113.958 131.407 113.922C131.315 113.996 131.116 114.853 130.899 114.673Z" fill="#0F4BC2"/>
<path d="M139.076 109.954C138.396 109.796 139.08 108.832 139.459 108.682C139.601 108.61 143.806 110.955 143.704 111.13C143.413 111.839 139.924 109.239 139.584 109.203C139.492 109.278 139.294 110.134 139.076 109.954Z" fill="#0F4BC2"/>
<path d="M155.852 104.121C154.341 105.597 152.337 103.966 150.955 103.174C149.583 102.397 151.824 101.419 152.578 101.412C153.258 101.498 157.527 103.209 155.852 104.121ZM154.83 104.222C155.171 104.006 156.115 103.653 155.351 103.259C154.326 102.789 152.535 101.051 151.431 102.261C150.293 102.704 154.469 104.857 154.83 104.222Z" fill="#0F4BC2"/>
<path d="M129.404 124.678C128.725 124.52 129.406 123.556 129.785 123.406C129.933 123.333 134.131 125.679 134.031 125.855C133.742 126.562 130.25 123.963 129.912 123.927C129.819 124.002 129.621 124.858 129.404 124.678Z" fill="#0F4BC2"/>
<path d="M137.306 120.117C136.628 119.959 137.311 118.995 137.69 118.845C137.837 118.77 142.035 121.12 141.934 121.294C141.645 122.002 138.153 119.402 137.815 119.366C137.722 119.441 137.524 120.298 137.306 120.117Z" fill="#0F4BC2"/>
<path d="M153.114 110.997C152.434 110.839 153.118 109.875 153.497 109.725C153.647 109.65 157.838 112.001 157.741 112.173C157.451 112.88 153.962 110.282 153.622 110.246C153.53 110.321 153.331 111.177 153.114 110.997Z" fill="#0F4BC2"/>
<path d="M161.573 109.963C160.062 111.44 158.057 109.808 156.675 109.017C155.304 108.239 157.544 107.262 158.299 107.254C158.979 107.341 163.247 109.051 161.573 109.963ZM160.55 110.064C160.891 109.848 161.835 109.495 161.072 109.102C160.046 108.631 158.255 106.894 157.151 108.103C156.013 108.546 160.189 110.699 160.55 110.064Z" fill="#0F4BC2"/>
<path d="M166.178 107.305C164.666 108.781 162.661 107.151 161.279 106.36C159.909 105.581 162.148 104.605 162.904 104.596C163.584 104.684 167.85 106.393 166.178 107.305ZM165.155 107.408C165.496 107.191 166.44 106.837 165.677 106.443C164.65 105.971 162.861 104.235 161.754 105.445C160.618 105.886 164.796 108.041 165.155 107.408Z" fill="#0F4BC2"/>
<path d="M170.783 104.648C169.271 106.125 167.266 104.495 165.884 103.703C164.514 102.924 166.753 101.948 167.509 101.939C168.189 102.027 172.456 103.736 170.783 104.648ZM169.76 104.751C170.102 104.535 171.045 104.18 170.282 103.787C169.255 103.315 167.466 101.579 166.36 102.789C165.224 103.23 169.401 105.384 169.76 104.751Z" fill="#0F4BC2"/>
<path d="M138.984 132.14C137.472 133.617 135.468 131.985 134.086 131.194C132.715 130.416 134.954 129.439 135.71 129.431C136.389 129.518 140.658 131.228 138.984 132.14ZM137.961 132.241C138.302 132.025 139.246 131.672 138.483 131.279C137.457 130.808 135.666 129.071 134.562 130.281C133.424 130.723 137.6 132.876 137.961 132.241Z" fill="#0F4BC2"/>
<path d="M138.563 128.534C137.885 128.376 138.566 127.412 138.945 127.262C139.082 127.193 143.298 129.534 143.191 129.711C142.901 130.418 139.41 127.819 139.071 127.783C138.979 127.856 138.781 128.715 138.563 128.534Z" fill="#0F4BC2"/>
<path d="M147.161 127.421C145.649 128.898 143.644 127.268 142.262 126.477C140.893 125.697 143.131 124.721 143.887 124.712C144.567 124.8 148.833 126.509 147.161 127.421ZM146.138 127.524C146.479 127.308 147.423 126.953 146.66 126.56C145.633 126.088 143.844 124.352 142.737 125.562C141.601 126.003 145.779 128.157 146.138 127.524Z" fill="#0F4BC2"/>
<path d="M146.742 123.815C146.063 123.657 146.746 122.693 147.125 122.543C147.273 122.47 151.469 124.817 151.369 124.992C151.08 125.699 147.589 123.1 147.25 123.064C147.158 123.139 146.959 123.996 146.742 123.815Z" fill="#0F4BC2"/>
<path d="M150.178 121.834C149.498 121.676 150.183 120.712 150.561 120.561C150.713 120.487 154.901 122.838 154.806 123.009C154.515 123.717 151.027 121.12 150.687 121.083C150.594 121.157 150.396 122.014 150.178 121.834Z" fill="#0F4BC2"/>
<path d="M153.613 119.851C152.935 119.693 153.616 118.729 153.995 118.578C154.139 118.505 158.343 120.852 158.241 121.028C157.951 121.734 154.46 119.135 154.121 119.1C154.029 119.174 153.831 120.031 153.613 119.851Z" fill="#0F4BC2"/>
<path d="M161.792 115.132C161.112 114.974 161.796 114.01 162.175 113.859C162.327 113.785 166.515 116.136 166.419 116.307C166.129 117.015 162.64 114.418 162.3 114.381C162.208 114.455 162.009 115.312 161.792 115.132Z" fill="#0F4BC2"/>
<path d="M174.713 107.676C174.033 107.518 174.717 106.554 175.096 106.403C175.229 106.335 179.448 108.676 179.34 108.851C179.05 109.559 175.561 106.962 175.221 106.925C175.129 106.999 174.93 107.856 174.713 107.676Z" fill="#0F4BC2"/>
<path d="M137.344 138.38C136.664 138.222 137.348 137.258 137.727 137.108C137.877 137.033 142.068 139.386 141.971 139.557C141.68 140.265 138.192 137.667 137.852 137.629C137.76 137.704 137.561 138.561 137.344 138.38Z" fill="#0F4BC2"/>
<path d="M145.804 137.346C144.292 138.823 142.289 137.191 140.907 136.4C139.535 135.622 141.776 134.645 142.53 134.637C143.212 134.724 147.478 136.434 145.804 137.346ZM144.781 137.447C145.123 137.231 146.067 136.878 145.303 136.485C144.278 136.014 142.487 134.277 141.382 135.487C140.245 135.929 144.421 138.082 144.781 137.447Z" fill="#0F4BC2"/>
<path d="M156.449 127.357C155.769 127.199 156.453 126.235 156.832 126.085C156.963 126.016 161.185 128.357 161.076 128.533C160.785 129.241 157.297 126.642 156.957 126.606C156.865 126.681 156.666 127.538 156.449 127.357Z" fill="#0F4BC2"/>
<path d="M169.513 123.665C168.001 125.142 165.996 123.511 164.614 122.72C163.244 121.941 165.483 120.965 166.239 120.956C166.919 121.044 171.186 122.753 169.513 123.665ZM168.49 123.768C168.831 123.552 169.775 123.197 169.012 122.804C167.985 122.331 166.196 120.596 165.09 121.805C163.953 122.246 168.131 124.401 168.49 123.768Z" fill="#0F4BC2"/>
<path d="M173.562 117.481C172.882 117.324 173.566 116.359 173.945 116.209C174.082 116.139 178.294 118.483 178.189 118.657C177.899 119.366 174.41 116.766 174.07 116.73C173.978 116.805 173.78 117.662 173.562 117.481Z" fill="#0F4BC2"/>
<path d="M186.628 113.789C185.116 115.266 183.111 113.636 181.729 112.845C180.36 112.065 182.598 111.089 183.354 111.08C184.034 111.168 188.3 112.877 186.628 113.789ZM185.605 113.892C185.946 113.676 186.89 113.321 186.127 112.928C185.101 112.456 183.31 110.72 182.204 111.93C181.068 112.371 185.246 114.525 185.605 113.892Z" fill="#0F4BC2"/>
<path d="M148.705 140.967C148.027 140.809 148.71 139.845 149.088 139.694C149.236 139.62 153.433 141.97 153.333 142.144C153.044 142.85 149.552 140.252 149.214 140.216C149.121 140.29 148.923 141.147 148.705 140.967Z" fill="#0F4BC2"/>
<path d="M167.466 130.14C166.786 129.983 167.47 129.019 167.849 128.868C168.04 128.782 172.163 131.155 172.095 131.318C171.804 132.025 168.314 129.425 167.974 129.39C167.882 129.464 167.684 130.321 167.466 130.14Z" fill="#0F4BC2"/>
<path d="M175.858 129.145C174.346 130.622 172.341 128.993 170.959 128.202C169.589 127.423 171.828 126.447 172.584 126.438C173.264 126.526 177.53 128.233 175.858 129.145ZM174.835 129.249C175.176 129.033 176.12 128.679 175.357 128.285C174.33 127.813 172.541 126.077 171.434 127.287C170.298 127.728 174.476 129.883 174.835 129.249Z" fill="#0F4BC2"/>
<path d="M183.623 124.666C182.112 126.143 180.107 124.514 178.725 123.722C177.356 122.942 179.594 121.966 180.35 121.957C181.029 122.045 185.296 123.754 183.623 124.666ZM182.601 124.769C182.942 124.553 183.886 124.198 183.123 123.805C182.095 123.333 180.306 121.597 179.2 122.807C178.064 123.248 182.241 125.402 182.601 124.769Z" fill="#0F4BC2"/>
<path d="M168.378 138.757C167.698 138.599 168.383 137.635 168.761 137.485C168.907 137.412 173.106 139.76 173.006 139.933C172.715 140.641 169.226 138.042 168.887 138.006C168.794 138.081 168.596 138.937 168.378 138.757Z" fill="#0F4BC2"/>
<path d="M183.847 133.678C182.335 135.154 180.33 133.524 178.948 132.733C177.578 131.954 179.817 130.978 180.573 130.969C181.253 131.057 185.52 132.766 183.847 133.678ZM182.824 133.781C183.166 133.565 184.109 133.21 183.346 132.817C182.319 132.344 180.53 130.608 179.424 131.818C178.288 132.259 182.465 134.414 182.824 133.781Z" fill="#0F4BC2"/>
<path d="M195.462 126.977C193.95 128.454 191.947 126.822 190.565 126.031C189.193 125.253 191.434 124.276 192.188 124.268C192.87 124.355 197.136 126.065 195.462 126.977ZM194.439 127.079C194.781 126.862 195.724 126.509 194.961 126.116C193.935 125.645 192.145 123.909 191.04 125.118C189.903 125.56 194.079 127.713 194.439 127.079Z" fill="#0F4BC2"/>
<path d="M58.0099 87.2762C57.0704 87.0575 58.0141 85.7223 58.5385 85.5139C58.7429 85.4107 64.5594 88.665 64.419 88.9065C64.0184 89.8847 59.1827 86.2857 58.714 86.2361C58.586 86.3393 58.3114 87.5259 58.0099 87.2762Z" fill="#6DBDFF"/>
<path d="M89.7126 45.6754C87.6288 47.7107 84.8648 45.4638 82.9599 44.3732C81.0734 43.2991 84.1579 41.9538 85.1998 41.9415C86.1369 42.0626 92.0183 44.4184 89.7126 45.6754ZM88.3028 45.8171C88.7734 45.5193 90.0742 45.0305 89.0221 44.4882C87.6083 43.8372 85.1402 41.4444 83.6154 43.1122C82.0495 43.7201 87.8076 46.69 88.3028 45.8171Z" fill="#6DBDFF"/>
<path d="M130.975 55.45C130.078 55.2412 130.979 53.9667 131.479 53.7677C131.668 53.6712 137.231 56.7737 137.093 57.0062C136.71 57.9399 132.094 54.5044 131.647 54.4572C131.525 54.5557 131.262 55.6883 130.975 55.45Z" fill="#6DBDFF"/>
<path d="M75.4075 33.0931C74.4502 32.8707 75.4138 31.5133 75.947 31.3014C76.1359 31.2028 82.0746 34.503 81.9235 34.7485C81.5141 35.7471 76.6019 32.086 76.1233 32.0357C75.9931 32.1406 75.7139 33.347 75.4075 33.0931Z" fill="#6DBDFF"/>
<path d="M232.246 72.5082C231.304 72.2894 232.252 70.9542 232.777 70.7458C232.96 70.6509 238.806 73.8929 238.655 74.1364C238.252 75.1187 233.421 71.5176 232.95 71.4681C232.822 71.5713 232.547 72.7579 232.246 72.5082Z" fill="#6DBDFF"/>
<path d="M37.0788 76.4505C36.2008 76.2465 37.0846 75.0013 37.5737 74.8069C37.7509 74.7165 43.1906 77.7437 43.0559 77.9689C42.6804 78.885 38.1745 75.5267 37.7355 75.4805C37.6161 75.5767 37.36 76.6833 37.0788 76.4505Z" fill="#6DBDFF"/>
<path d="M89.7288 52.1582C87.6351 54.2032 84.8601 51.9436 82.946 50.8478C81.0464 49.7706 84.1477 48.4168 85.1946 48.4065C86.1361 48.5262 92.0476 50.8952 89.7288 52.1582ZM88.3124 52.2985C88.7852 51.9993 90.0922 51.5102 89.0351 50.9654C87.6145 50.3133 85.1347 47.9071 83.6047 49.5828C82.0292 50.1957 87.8127 53.1776 88.3124 52.2985Z" fill="#6DBDFF"/>
<path d="M66.1257 65.7815C65.2355 65.5742 66.1316 64.3091 66.6286 64.1116C66.8301 64.0157 72.326 67.0956 72.1988 67.3263C71.8192 68.2532 67.237 64.8429 66.7929 64.796C66.6716 64.8937 66.4114 66.0181 66.1257 65.7815Z" fill="#6DBDFF"/>
<path d="M86.3015 71.5225C85.3538 71.3018 86.3078 69.9549 86.8368 69.7446C87.0535 69.6385 92.8981 72.9235 92.7669 73.167C92.3628 74.1538 87.4846 70.5232 87.0118 70.4733C86.8827 70.5773 86.6056 71.7744 86.3015 71.5225Z" fill="#6DBDFF"/>
<path d="M196.635 77.4346C195.678 77.2122 196.642 75.8548 197.175 75.6428C197.385 75.54 203.29 78.8487 203.151 79.09C202.742 80.0865 197.83 76.4275 197.351 76.3772C197.221 76.4821 196.942 77.6885 196.635 77.4346Z" fill="#6DBDFF"/>
<path d="M197.018 59.6032C196.181 59.4087 197.024 58.2213 197.49 58.036C197.725 57.9295 202.804 60.8529 202.72 61.0529C202.362 61.9265 198.063 58.7223 197.644 58.6783C197.531 58.77 197.286 59.8252 197.018 59.6032Z" fill="#6DBDFF"/>
<path d="M105.845 84.9416C103.909 86.8325 101.344 84.7432 99.5739 83.73C97.8175 82.734 100.685 81.4824 101.653 81.4728C102.523 81.5835 107.989 83.7739 105.845 84.9416ZM104.536 85.0714C104.973 84.7947 106.181 84.3425 105.204 83.8388C103.89 83.2359 101.598 81.0111 100.183 82.5604C98.7263 83.1271 104.074 85.8842 104.536 85.0714Z" fill="#6DBDFF"/>
<path d="M134.396 34.4269C132.515 36.2646 130.019 34.2359 128.299 33.2512C126.596 32.2813 129.381 31.0667 130.322 31.0556C131.168 31.165 136.478 33.292 134.396 34.4269ZM133.123 34.5548C133.548 34.2859 134.723 33.8446 133.773 33.355C132.494 32.7672 130.268 30.6068 128.891 32.1126C127.477 32.6615 132.676 35.3429 133.123 34.5548Z" fill="#6DBDFF"/>
<path d="M64.467 82.7393C62.3464 84.8106 59.5337 82.524 57.595 81.4142C55.6732 80.321 58.8143 78.952 59.8745 78.9395C60.8282 79.0628 66.8134 81.4601 64.467 82.7393ZM63.0324 82.8835C63.5113 82.5804 64.8351 82.083 63.7643 81.5312C62.3234 80.8686 59.8139 78.4336 58.2622 80.1308C56.6686 80.7495 62.5284 83.7718 63.0324 82.8835Z" fill="#6DBDFF"/>
<path d="M211.09 71.369C209.154 73.2599 206.588 71.1706 204.818 70.1574C203.062 69.1614 205.929 67.9097 206.897 67.9002C207.768 68.0109 213.234 70.2013 211.09 71.369ZM209.78 71.4987C210.217 71.2221 211.426 70.7699 210.448 70.2662C209.135 69.6632 206.842 67.4385 205.427 68.9878C203.971 69.5545 209.318 72.3116 209.78 71.4987Z" fill="#6DBDFF"/>
<path d="M75.879 106.637C75.0715 106.449 75.8843 105.301 76.3351 105.122C76.5108 105.035 81.5081 107.829 81.3875 108.038C81.0432 108.879 76.887 105.786 76.4841 105.743C76.3741 105.832 76.1381 106.852 75.879 106.637Z" fill="#6DBDFF"/>
<path d="M101.538 70.1489C99.4174 72.2202 96.6046 69.9336 94.666 68.8238C92.7441 67.7306 95.8852 66.3616 96.9455 66.3491C97.8991 66.4724 103.884 68.8697 101.538 70.1489ZM100.103 70.2931C100.582 69.9901 101.906 69.4926 100.835 68.9408C99.3944 68.2782 96.8849 65.8433 95.3331 67.5404C93.7396 68.1591 99.5994 71.1814 100.103 70.2931Z" fill="#6DBDFF"/>
<path d="M147.489 19.6766C146.539 19.456 147.495 18.1091 148.024 17.8988C148.216 17.801 154.1 21.0756 153.954 21.3191C153.548 22.31 148.674 18.6774 148.199 18.6274C148.07 18.7315 147.793 19.9285 147.489 19.6766Z" fill="#6DBDFF"/>
<path d="M129.127 50.9265C128.23 50.7177 129.131 49.4432 129.631 49.2442C129.813 49.1516 135.387 52.2483 135.245 52.4827C134.862 53.4164 130.246 49.981 129.799 49.9337C129.677 50.0302 129.415 51.1649 129.127 50.9265Z" fill="#6DBDFF"/>
<path d="M122.579 41.9813C121.779 41.7956 122.584 40.662 123.029 40.485C123.19 40.4027 128.143 43.1587 128.02 43.3637C127.678 44.1959 123.576 41.142 123.176 41.0982C123.068 41.1858 122.835 42.1933 122.579 41.9813Z" fill="#6DBDFF"/>
<path d="M163.75 51.9114C162.809 51.6926 163.756 50.3575 164.281 50.149C164.485 50.0479 170.296 53.3023 170.159 53.5396C169.757 54.5198 164.925 50.9229 164.454 50.8713C164.326 50.9745 164.052 52.1611 163.75 51.9114Z" fill="#6DBDFF"/>
<path d="M113.796 110.703C111.63 112.821 108.753 110.48 106.771 109.345C104.803 108.23 108.015 106.827 109.1 106.817C110.075 106.941 116.198 109.394 113.796 110.703ZM112.329 110.848C112.819 110.538 114.173 110.031 113.078 109.467C111.606 108.792 109.038 106.299 107.453 108.035C105.821 108.67 111.811 111.758 112.329 110.848Z" fill="#6DBDFF"/>
<path d="M152.188 31.8599C151.334 31.6614 152.194 30.4496 152.67 30.2604C152.91 30.1518 158.093 33.1354 158.007 33.3395C157.641 34.2311 153.254 30.9609 152.827 30.9159C152.711 31.0096 152.462 32.0865 152.188 31.8599Z" fill="#6DBDFF"/>
<path d="M210.937 103.854C209.095 105.653 206.652 103.667 204.969 102.703C203.3 101.754 206.028 100.565 206.948 100.554C207.777 100.661 212.975 102.743 210.937 103.854ZM209.691 103.979C210.107 103.716 211.257 103.284 210.327 102.805C209.075 102.23 206.896 100.115 205.548 101.589C204.164 102.126 209.253 104.751 209.691 103.979Z" fill="#6DBDFF"/>
<path d="M176.745 91.5625C175.876 91.3603 176.75 90.1258 177.235 89.9331C177.419 89.8415 182.8 92.8466 182.671 93.068C182.298 93.9743 177.831 90.6467 177.396 90.6009C177.277 90.6963 177.023 91.7934 176.745 91.5625Z" fill="#6DBDFF"/>
<path d="M165.45 66.0572C163.314 68.1439 160.48 65.8404 158.527 64.7223C156.591 63.6211 159.755 62.2419 160.823 62.2293C161.784 62.3535 167.814 64.7686 165.45 66.0572ZM164.005 66.2025C164.487 65.8972 165.821 65.3961 164.742 64.8402C163.29 64.1728 160.762 61.7198 159.199 63.4295C157.594 64.0527 163.497 67.0974 164.005 66.2025Z" fill="#6DBDFF"/>
<path d="M73.7881 56.4358C72.9048 56.2301 73.794 54.9748 74.2871 54.7788C74.4773 54.6837 79.9462 57.7416 79.8142 57.9687C79.4376 58.8884 74.8909 55.5045 74.4502 55.4579C74.3298 55.553 74.0716 56.6706 73.7881 56.4358Z" fill="#6DBDFF"/>
<path d="M149.566 55.4493C148.688 55.2453 149.572 54.0001 150.061 53.8057C150.246 53.7133 155.674 56.7445 155.543 56.9677C155.167 57.8838 150.661 54.5255 150.222 54.4793C150.103 54.5755 149.847 55.6821 149.566 55.4493Z" fill="#6DBDFF"/>
<path d="M90.8546 105.103C88.9927 106.922 86.5231 104.914 84.8209 103.94C83.1335 102.98 85.8914 101.778 86.8224 101.767C87.6596 101.875 92.9147 103.98 90.8546 105.103ZM89.595 105.23C90.0154 104.964 91.1777 104.527 90.2376 104.043C88.9725 103.461 86.7691 101.323 85.4067 102.813C84.0075 103.356 89.1524 106.01 89.595 105.23Z" fill="#6DBDFF"/>
<path d="M228.77 90.5204C226.707 92.5349 223.972 90.3111 222.086 89.2317C220.217 88.1686 223.272 86.8371 224.303 86.825C225.231 86.9449 231.052 89.2764 228.77 90.5204ZM227.375 90.6607C227.84 90.366 229.128 89.8822 228.086 89.3455C226.685 88.7012 224.244 86.333 222.735 87.9836C221.185 88.5853 226.884 91.5246 227.375 90.6607Z" fill="#6DBDFF"/>
<path d="M66.0471 99.8812C65.1324 99.6682 66.0532 98.3682 66.5638 98.1652C66.7508 98.0708 72.4265 101.232 72.2878 101.467C71.8957 102.421 67.1911 98.9187 66.7327 98.8685C66.6081 98.969 66.3407 100.124 66.0471 99.8812Z" fill="#6DBDFF"/>
<path d="M106.134 94.0118C104.022 96.0748 101.22 93.7974 99.2892 92.692C97.375 91.6032 100.504 90.2397 101.56 90.2272C102.509 90.35 108.471 92.7378 106.134 94.0118ZM104.705 94.1554C105.182 93.8536 106.5 93.3581 105.434 92.8085C103.999 92.1486 101.499 89.7234 99.9536 91.4138C98.3664 92.03 104.203 95.0402 104.705 94.1554Z" fill="#6DBDFF"/>
<path d="M169.421 37.6209C167.348 39.6461 164.6 37.4084 162.704 36.3233C160.823 35.2565 163.896 33.916 164.931 33.9058C165.865 34.0243 171.717 36.3682 169.421 37.6209ZM168.018 37.7599C168.487 37.4636 169.781 36.9793 168.734 36.4398C167.327 35.794 164.872 33.4112 163.356 35.0706C161.796 35.6775 167.523 38.6304 168.018 37.7599Z" fill="#6DBDFF"/>
<path d="M145.789 9.91147L144.91 10.4193C144.511 10.6494 144.082 10.7644 143.622 10.7664C143.161 10.7684 142.728 10.6514 142.318 10.4133L139.269 8.65382C138.864 8.41974 138.662 8.17178 138.662 7.90399C138.662 7.63619 138.86 7.38823 139.259 7.15813L140.138 6.65229C140.537 6.42218 140.968 6.30713 141.43 6.30713C141.893 6.30713 142.326 6.42218 142.73 6.65626L145.781 8.41578C146.192 8.65183 146.392 8.90376 146.39 9.16957C146.388 9.43539 146.188 9.68136 145.789 9.91147ZM144.427 10.0483L145.148 9.63375C145.64 9.35009 145.63 9.06047 145.12 8.76689L142.123 7.03712C141.613 6.74354 141.115 6.73759 140.623 7.02125L139.9 7.43782C139.414 7.71752 139.426 8.00516 139.936 8.29874L142.933 10.0285C143.443 10.3221 143.941 10.328 144.427 10.0483Z" fill="#6DBDFF"/>
<path d="M145.677 14.6756C143.743 16.5665 141.175 14.4772 139.405 13.464C137.649 12.4681 140.518 11.2164 141.484 11.2068C142.357 11.3175 147.821 13.5079 145.677 14.6756ZM144.367 14.8054C144.804 14.5287 146.013 14.0765 145.035 13.5728C143.722 12.9699 141.429 10.7451 140.014 12.2944C138.558 12.8611 143.905 15.6182 144.367 14.8054Z" fill="#6DBDFF"/>
<path d="M229.794 101.078C227.673 103.15 224.863 100.861 222.924 99.751C221 98.66 224.143 97.2888 225.201 97.2784C226.157 97.3996 232.142 99.797 229.794 101.078ZM228.359 101.222C228.838 100.919 230.162 100.422 229.091 99.8701C227.652 99.2097 225.141 96.7747 223.591 98.4698C221.996 99.0905 227.853 102.113 228.359 101.222Z" fill="#6DBDFF"/>
<path d="M187.486 264.171L185.835 263.801L182.347 248.881L183.997 249.25L187.486 264.171Z" fill="#CCC7BF"/>
<path d="M183.524 247.226L181.873 246.856L179.058 234.816L180.708 235.186L183.524 247.226Z" fill="#CCC7BF"/>
<path d="M171.373 254.237L169.722 253.867L181.873 246.856L183.524 247.226L171.373 254.237Z" fill="#E0DAD0"/>
<path d="M180.235 233.162L178.585 232.793L175.765 220.736L177.416 221.106L180.235 233.162Z" fill="#CCC7BF"/>
<path d="M168.085 240.173L166.434 239.803L178.584 232.793L180.235 233.162L168.085 240.173Z" fill="#E0DAD0"/>
<path d="M176.942 219.082L175.292 218.712L172.476 206.672L174.127 207.042L176.942 219.082Z" fill="#CCC7BF"/>
<path d="M164.792 226.092L163.141 225.723L175.291 218.712L176.942 219.082L164.792 226.092Z" fill="#E0DAD0"/>
<path d="M173.654 205.018L172.004 204.649L169.188 192.608L170.839 192.978L173.654 205.018Z" fill="#CCC7BF"/>
<path d="M161.504 212.029L159.853 211.659L172.004 204.649L173.654 205.018L161.504 212.029Z" fill="#E0DAD0"/>
<path d="M170.365 190.955L168.715 190.585L165.895 178.529L167.546 178.898L170.365 190.955Z" fill="#CCC7BF"/>
<path d="M167.073 176.875L165.422 176.505L163.474 168.169L165.124 168.539L167.073 176.875Z" fill="#CCC7BF"/>
<path d="M165.124 168.539L163.473 168.169L165.15 167.202L166.802 167.571L165.124 168.539Z" fill="#E0DAD0"/>
<path d="M158.215 197.966L156.565 197.597L168.715 190.586L170.366 190.956L158.215 197.966Z" fill="#E0DAD0"/>
<path d="M154.922 183.885L153.272 183.515L165.422 176.504L167.073 176.874L154.922 183.885Z" fill="#E0DAD0"/>
<path d="M151.309 176.51L149.658 176.141L151.323 175.181L152.973 175.551L151.309 176.51Z" fill="#E0DAD0"/>
<path d="M173.672 272.142L172.022 271.773L149.659 176.141L151.31 176.51L173.672 272.142Z" fill="#CCC7BF"/>
<path d="M165.124 168.539L166.802 167.571L189.165 263.202L187.487 264.171L183.997 249.249L171.847 256.261L175.336 271.182L173.672 272.141L151.31 176.51L152.974 175.55L154.923 183.885L167.073 176.874L165.124 168.539ZM180.236 233.162L177.416 221.105L165.266 228.117L168.086 240.173L180.236 233.162ZM170.366 190.955L167.547 178.898L155.397 185.909L158.215 197.965L170.366 190.955ZM183.525 247.226L180.709 235.186L168.558 242.196L171.374 254.237L183.525 247.226ZM173.654 205.018L170.839 192.978L158.689 199.99L161.505 212.029L173.654 205.018ZM176.943 219.082L174.128 207.043L161.978 214.053L164.793 226.092L176.943 219.082Z" fill="white"/>
<g opacity="0.37288">
<path d="M253.173 176.372L250.801 177.741V175.371L253.173 174.003V176.372Z" fill="#3F8BC9"/>
</g>
<g opacity="0.822942">
<path d="M252.294 133.556L247.55 136.293V131.551L252.294 128.814V133.556Z" fill="#83BEFF"/>
</g>
<g opacity="0.931122">
<path d="M236.065 147.944L230.561 151.121V145.619L236.065 142.442V147.944Z" fill="#3F8BC9"/>
</g>
<g opacity="0.422852">
<path d="M245.277 129.884L242.905 131.253V128.883L245.277 127.515V129.884Z" fill="#3F8BC9"/>
</g>
<g opacity="0.609851">
<path d="M260.015 108.163L257.643 109.531V107.162L260.015 105.793V108.163Z" fill="#3F8BC9"/>
</g>
<g opacity="0.60074">
<path d="M269.268 71.3242L266.896 72.6929V70.3232L269.268 68.9545V71.3242Z" fill="#3F8BC9"/>
</g>
<g opacity="0.777058">
<path d="M251.434 92.8855L249.062 94.2542V91.8844L251.434 90.5157V92.8855Z" fill="#83BEFF"/>
</g>
<g opacity="0.609851">
<path d="M235.856 114.399L231.151 117.202L231.086 112.461L235.791 109.658L235.856 114.399Z" fill="#3F8BC9"/>
</g>
<g opacity="0.777058">
<path d="M223.249 114.774L215.272 119.526L215.161 111.489L223.138 106.737L223.249 114.774Z" fill="#00FFE5"/>
</g>
<g opacity="0.600039">
<path d="M236.211 96.6269L231.466 99.3643V94.6227L236.211 91.8853V96.6269Z" fill="#83BEFF"/>
</g>
<g opacity="0.320342">
<path d="M235.92 54.6457L233.548 56.0143V53.6446L235.92 52.2759V54.6457Z" fill="#00FFE5"/>
</g>
<g opacity="0.909527">
<path d="M193.963 51.2299L189.219 53.9673V49.2257L193.963 46.4883V51.2299Z" fill="#3F8BC9"/>
</g>
<g opacity="0.909527">
<path d="M168.921 13.8114L164.177 16.5488V11.8072L168.921 9.06982V13.8114Z" fill="#00FFE5"/>
</g>
<g opacity="0.777058">
<path d="M161.437 24.854L159.065 26.2227V23.8529L161.437 22.4842V24.854Z" fill="#3F8BC9"/>
</g>
<g opacity="0.931122">
<path d="M138.93 27.523L136.558 28.8917V26.5219L138.93 25.1532V27.523Z" fill="#83BEFF"/>
</g>
<g opacity="0.777058">
<path d="M174.905 60.5697L172.533 61.9384V59.5686L174.905 58.1999V60.5697Z" fill="#3F8BC9"/>
</g>
<g opacity="0.617805">
<path d="M171.177 69.2632L166.433 72.0006V67.259L171.177 64.5216V69.2632Z" fill="#83BEFF"/>
</g>
<g opacity="0.690149">
<path d="M125.49 89.9222L120.746 92.6595V87.918L125.49 85.1806V89.9222Z" fill="#00FFE5"/>
</g>
<path d="M126.015 68.5864L123.643 69.9551V67.5853L126.015 66.2166V68.5864Z" fill="#3F8BC9"/>
<g opacity="0.931122">
<path d="M119.299 64.7173L114.555 67.4547V62.7131L119.299 59.9757V64.7173Z" fill="#3F8BC9"/>
</g>
<g opacity="0.92712">
<path d="M81.9746 51.2758L75.1928 55.1896V48.4116L81.9746 44.4979V51.2758Z" fill="#3F8BC9"/>
</g>
<g opacity="0.304197">
<path d="M73.0363 60.7237L68.2921 63.4611V58.7196L73.0363 55.9822V60.7237Z" fill="#3F8BC9"/>
</g>
<g opacity="0.609851">
<path d="M71.8503 111.528L69.4782 112.897V110.527L71.8503 109.159V111.528Z" fill="#83BEFF"/>
</g>
<g opacity="0.931122">
<path d="M30.0846 79.4864L25.9753 81.8572V77.7501L30.0846 75.3793V79.4864Z" fill="#3F8BC9"/>
</g>
<g opacity="0.384331">
<path d="M16.788 96.4154L14.7343 97.6008V95.5473L16.788 94.3619V96.4154Z" fill="#3F8BC9"/>
</g>
<g opacity="0.609851">
<path d="M41.0022 104.435L35.0387 107.877V101.916L41.0022 98.4742V104.435Z" fill="#00FFE5"/>
</g>
<g opacity="0.931122">
<path d="M56.7004 102.811L48.8505 107.342V99.496L56.7004 94.9659V102.811Z" fill="#3F8BC9"/>
</g>
<g opacity="0.954937">
<path d="M57.9693 121.588L55.5972 122.956V120.587L57.9693 119.218V121.588Z" fill="#83BEFF"/>
</g>
<g opacity="0.934486">
<path d="M62.814 131.986L58.0698 134.724V129.982L62.814 127.245V131.986Z" fill="#3F8BC9"/>
</g>
<g opacity="0.01">
<path d="M58.6376 149.29L50.5963 153.93V145.892L58.6376 141.252V149.29Z" fill="#00FFE5"/>
</g>
<g opacity="0.331158">
<path d="M54.3699 143.343L49.6257 146.08V141.338L54.3699 138.601V143.343Z" fill="#3F8BC9"/>
</g>
<path d="M26.0216 139.485L21.2774 142.223V137.481L26.0216 134.744V139.485Z" fill="#3F8BC9"/>
</svg>
