<svg width="1362" height="799" viewBox="0 0 1362 799" fill="none" xmlns="http://www.w3.org/2000/svg">
<line x1="1096" y1="410" x2="1182" y2="410" stroke="black" stroke-width="2" stroke-linecap="round" stroke-dasharray="8 8"/>
<g opacity="0.1">
<circle cx="504" cy="449" r="4" fill="black"/>
<circle cx="536" cy="449" r="4" fill="black"/>
<circle cx="568" cy="449" r="4" fill="black"/>
<circle cx="504" cy="481" r="4" fill="black"/>
<circle cx="536" cy="481" r="4" fill="black"/>
<circle cx="568" cy="481" r="4" fill="black"/>
<circle cx="504" cy="513" r="4" fill="black"/>
<circle cx="536" cy="513" r="4" fill="black"/>
<circle cx="568" cy="513" r="4" fill="black"/>
<circle cx="504" cy="545" r="4" fill="black"/>
<circle cx="536" cy="545" r="4" fill="black"/>
<circle cx="568" cy="545" r="4" fill="black"/>
<circle cx="504" cy="577" r="4" fill="black"/>
<circle cx="536" cy="577" r="4" fill="black"/>
<circle cx="568" cy="577" r="4" fill="black"/>
<circle cx="504" cy="609" r="4" fill="black"/>
<circle cx="536" cy="609" r="4" fill="black"/>
<circle cx="568" cy="609" r="4" fill="black"/>
<circle cx="600" cy="609" r="4" fill="black"/>
<circle cx="632" cy="609" r="4" fill="black"/>
<circle cx="664" cy="609" r="4" fill="black"/>
<circle cx="696" cy="609" r="4" fill="black"/>
<circle cx="728" cy="609" r="4" fill="black"/>
<circle cx="760" cy="609" r="4" fill="black"/>
<circle cx="792" cy="609" r="4" fill="black"/>
<circle cx="504" cy="641" r="4" fill="black"/>
<circle cx="536" cy="641" r="4" fill="black"/>
<circle cx="568" cy="641" r="4" fill="black"/>
<circle cx="600" cy="641" r="4" fill="black"/>
<circle cx="632" cy="641" r="4" fill="black"/>
<circle cx="664" cy="641" r="4" fill="black"/>
<circle cx="696" cy="641" r="4" fill="black"/>
<circle cx="728" cy="641" r="4" fill="black"/>
<circle cx="760" cy="641" r="4" fill="black"/>
<circle cx="792" cy="641" r="4" fill="black"/>
<circle cx="504" cy="673" r="4" fill="black"/>
<circle cx="536" cy="673" r="4" fill="black"/>
<circle cx="568" cy="673" r="4" fill="black"/>
<circle cx="600" cy="673" r="4" fill="black"/>
<circle cx="632" cy="673" r="4" fill="black"/>
<circle cx="664" cy="673" r="4" fill="black"/>
<circle cx="696" cy="673" r="4" fill="black"/>
<circle cx="728" cy="673" r="4" fill="black"/>
<circle cx="760" cy="673" r="4" fill="black"/>
<circle cx="792" cy="673" r="4" fill="black"/>
<circle cx="504" cy="705" r="4" fill="black"/>
<circle cx="536" cy="705" r="4" fill="black"/>
<circle cx="568" cy="705" r="4" fill="black"/>
<circle cx="600" cy="705" r="4" fill="black"/>
<circle cx="632" cy="705" r="4" fill="black"/>
<circle cx="664" cy="705" r="4" fill="black"/>
<circle cx="696" cy="705" r="4" fill="black"/>
<circle cx="728" cy="705" r="4" fill="black"/>
<circle cx="760" cy="705" r="4" fill="black"/>
<circle cx="792" cy="705" r="4" fill="black"/>
<circle cx="504" cy="737" r="4" fill="black"/>
<circle cx="536" cy="737" r="4" fill="black"/>
<circle cx="568" cy="737" r="4" fill="black"/>
<circle cx="600" cy="737" r="4" fill="black"/>
<circle cx="632" cy="737" r="4" fill="black"/>
<circle cx="664" cy="737" r="4" fill="black"/>
<circle cx="696" cy="737" r="4" fill="black"/>
<circle cx="728" cy="737" r="4" fill="black"/>
<circle cx="760" cy="737" r="4" fill="black"/>
<circle cx="792" cy="737" r="4" fill="black"/>
</g>
<g opacity="0.1">
<circle r="2.90541" transform="matrix(-1 0 0 1 1206.09 66.9054)" fill="black"/>
<circle r="2.90541" transform="matrix(-1 0 0 1 1182.85 66.9054)" fill="black"/>
<circle r="2.90541" transform="matrix(-1 0 0 1 1159.61 66.9054)" fill="black"/>
<circle r="2.90541" transform="matrix(-1 0 0 1 1136.36 66.9054)" fill="black"/>
<circle r="2.90541" transform="matrix(-1 0 0 1 1113.12 66.9054)" fill="black"/>
<circle r="2.90541" transform="matrix(-1 0 0 1 1089.88 66.9054)" fill="black"/>
<circle r="2.90541" transform="matrix(-1 0 0 1 1066.64 66.9054)" fill="black"/>
<circle r="2.90541" transform="matrix(-1 0 0 1 1043.39 66.9054)" fill="black"/>
<circle r="2.90541" transform="matrix(-1 0 0 1 1020.15 66.9054)" fill="black"/>
<circle r="2.90541" transform="matrix(-1 0 0 1 996.905 66.9054)" fill="black"/>
<circle r="2.90541" transform="matrix(-1 0 0 1 1206.09 90.1486)" fill="black"/>
<circle r="2.90541" transform="matrix(-1 0 0 1 1182.85 90.1486)" fill="black"/>
<circle r="2.90541" transform="matrix(-1 0 0 1 1159.61 90.1486)" fill="black"/>
<circle r="2.90541" transform="matrix(-1 0 0 1 1136.36 90.1486)" fill="black"/>
<circle r="2.90541" transform="matrix(-1 0 0 1 1113.12 90.1486)" fill="black"/>
<circle r="2.90541" transform="matrix(-1 0 0 1 1089.88 90.1486)" fill="black"/>
<circle r="2.90541" transform="matrix(-1 0 0 1 1066.64 90.1486)" fill="black"/>
<circle r="2.90541" transform="matrix(-1 0 0 1 1043.39 90.1486)" fill="black"/>
<circle r="2.90541" transform="matrix(-1 0 0 1 1020.15 90.1486)" fill="black"/>
<circle r="2.90541" transform="matrix(-1 0 0 1 996.905 90.1486)" fill="black"/>
<circle r="2.90541" transform="matrix(-1 0 0 1 1206.09 113.392)" fill="black"/>
<circle r="2.90541" transform="matrix(-1 0 0 1 1182.85 113.392)" fill="black"/>
<circle r="2.90541" transform="matrix(-1 0 0 1 1159.61 113.392)" fill="black"/>
<circle r="2.90541" transform="matrix(-1 0 0 1 1136.36 113.392)" fill="black"/>
<circle r="2.90541" transform="matrix(-1 0 0 1 1113.12 113.392)" fill="black"/>
<circle r="2.90541" transform="matrix(-1 0 0 1 1089.88 113.392)" fill="black"/>
<circle r="2.90541" transform="matrix(-1 0 0 1 1066.64 113.392)" fill="black"/>
<circle r="2.90541" transform="matrix(-1 0 0 1 1043.39 113.392)" fill="black"/>
<circle r="2.90541" transform="matrix(-1 0 0 1 1020.15 113.392)" fill="black"/>
<circle r="2.90541" transform="matrix(-1 0 0 1 996.905 113.392)" fill="black"/>
<circle r="2.90541" transform="matrix(-1 0 0 1 1206.09 136.635)" fill="black"/>
<circle r="2.90541" transform="matrix(-1 0 0 1 1182.85 136.635)" fill="black"/>
<circle r="2.90541" transform="matrix(-1 0 0 1 1159.61 136.635)" fill="black"/>
<circle r="2.90541" transform="matrix(-1 0 0 1 1136.36 136.635)" fill="black"/>
<circle r="2.90541" transform="matrix(-1 0 0 1 1113.12 136.635)" fill="black"/>
<circle r="2.90541" transform="matrix(-1 0 0 1 1089.88 136.635)" fill="black"/>
<circle r="2.90541" transform="matrix(-1 0 0 1 1066.64 136.635)" fill="black"/>
<circle r="2.90541" transform="matrix(-1 0 0 1 1043.39 136.635)" fill="black"/>
<circle r="2.90541" transform="matrix(-1 0 0 1 1020.15 136.635)" fill="black"/>
<circle r="2.90541" transform="matrix(-1 0 0 1 996.905 136.635)" fill="black"/>
<circle r="2.90541" transform="matrix(-1 0 0 1 1206.09 159.878)" fill="black"/>
<circle r="2.90541" transform="matrix(-1 0 0 1 1182.85 159.878)" fill="black"/>
<circle r="2.90541" transform="matrix(-1 0 0 1 1159.61 159.878)" fill="black"/>
<circle r="2.90541" transform="matrix(-1 0 0 1 1136.36 159.878)" fill="black"/>
<circle r="2.90541" transform="matrix(-1 0 0 1 1113.12 159.878)" fill="black"/>
<circle r="2.90541" transform="matrix(-1 0 0 1 1089.88 159.878)" fill="black"/>
<circle r="2.90541" transform="matrix(-1 0 0 1 1066.64 159.878)" fill="black"/>
<circle r="2.90541" transform="matrix(-1 0 0 1 1043.39 159.878)" fill="black"/>
<circle r="2.90541" transform="matrix(-1 0 0 1 1020.15 159.878)" fill="black"/>
<circle r="2.90541" transform="matrix(-1 0 0 1 996.905 159.878)" fill="black"/>
<circle r="2.90541" transform="matrix(-1 0 0 1 1206.09 183.122)" fill="black"/>
<circle r="2.90541" transform="matrix(-1 0 0 1 1182.85 183.122)" fill="black"/>
<circle r="2.90541" transform="matrix(-1 0 0 1 1159.61 183.122)" fill="black"/>
<circle r="2.90541" transform="matrix(-1 0 0 1 1136.36 183.122)" fill="black"/>
<circle r="2.90541" transform="matrix(-1 0 0 1 1113.12 183.122)" fill="black"/>
<circle r="2.90541" transform="matrix(-1 0 0 1 1089.88 183.122)" fill="black"/>
<circle r="2.90541" transform="matrix(-1 0 0 1 1066.64 183.122)" fill="black"/>
<circle r="2.90541" transform="matrix(-1 0 0 1 1043.39 183.122)" fill="black"/>
<circle r="2.90541" transform="matrix(-1 0 0 1 1020.15 183.122)" fill="black"/>
<circle r="2.90541" transform="matrix(-1 0 0 1 996.905 183.122)" fill="black"/>
<circle r="2.90541" transform="matrix(-1 0 0 1 1206.09 206.365)" fill="black"/>
<circle r="2.90541" transform="matrix(-1 0 0 1 1182.85 206.365)" fill="black"/>
<circle r="2.90541" transform="matrix(-1 0 0 1 1159.61 206.365)" fill="black"/>
<circle r="2.90541" transform="matrix(-1 0 0 1 1136.36 206.365)" fill="black"/>
<circle r="2.90541" transform="matrix(-1 0 0 1 1113.12 206.365)" fill="black"/>
<circle r="2.90541" transform="matrix(-1 0 0 1 1206.09 229.608)" fill="black"/>
<circle r="2.90541" transform="matrix(-1 0 0 1 1182.85 229.608)" fill="black"/>
<circle r="2.90541" transform="matrix(-1 0 0 1 1159.61 229.608)" fill="black"/>
<circle r="2.90541" transform="matrix(-1 0 0 1 1136.36 229.608)" fill="black"/>
<circle r="2.90541" transform="matrix(-1 0 0 1 1113.12 229.608)" fill="black"/>
<circle r="2.90541" transform="matrix(-1 0 0 1 1206.09 252.851)" fill="black"/>
<circle r="2.90541" transform="matrix(-1 0 0 1 1182.85 252.851)" fill="black"/>
<circle r="2.90541" transform="matrix(-1 0 0 1 1159.61 252.851)" fill="black"/>
<circle r="2.90541" transform="matrix(-1 0 0 1 1136.36 252.851)" fill="black"/>
<circle r="2.90541" transform="matrix(-1 0 0 1 1113.12 252.851)" fill="black"/>
<circle r="2.90541" transform="matrix(-1 0 0 1 1206.09 276.095)" fill="black"/>
<circle r="2.90541" transform="matrix(-1 0 0 1 1182.85 276.095)" fill="black"/>
<circle r="2.90541" transform="matrix(-1 0 0 1 1159.61 276.095)" fill="black"/>
<circle r="2.90541" transform="matrix(-1 0 0 1 1136.36 276.095)" fill="black"/>
<circle r="2.90541" transform="matrix(-1 0 0 1 1113.12 276.095)" fill="black"/>
</g>
<g clip-path="url(#clip0_537_1257)">
<path d="M1092.68 232.358C1091.98 228.389 1090.61 224.634 1088.7 221.233C1082.61 210.362 1070.98 203 1057.66 203H632.568C619.247 203 607.622 210.362 601.525 221.233C599.616 224.634 598.251 228.389 597.551 232.358C597.189 234.384 597 236.468 597 238.601V542.008C597 561.641 612.953 577.609 632.568 577.609H1057.66C1061.73 577.609 1065.64 576.917 1069.29 575.649C1083.21 570.823 1093.23 557.565 1093.23 542.008V238.601C1093.23 236.476 1093.04 234.384 1092.68 232.358ZM1091.59 542.008C1091.59 559.187 1078.83 573.393 1062.29 575.649C1060.77 575.855 1059.23 575.962 1057.66 575.962H683.094C636.451 575.962 598.646 538.113 598.646 491.428V238.601C598.646 236.468 598.843 234.384 599.221 232.358C599.962 228.356 601.402 224.609 603.418 221.233C609.333 211.301 620.177 204.647 632.568 204.647H1057.66C1070.05 204.647 1080.9 211.301 1086.81 221.233C1088.83 224.609 1090.27 228.356 1091.01 232.358C1091.39 234.384 1091.59 236.468 1091.59 238.601V542.008Z" fill="white"/>
<path d="M1091.59 542.008C1091.59 559.187 1078.83 573.393 1062.29 575.649C1060.77 575.855 1059.23 575.962 1057.66 575.962H683.094C636.451 575.962 598.646 538.113 598.646 491.428V238.601C598.646 236.468 598.843 234.384 599.221 232.358C599.962 228.356 601.402 224.609 603.418 221.233C609.333 211.301 620.177 204.647 632.568 204.647H1057.66C1070.05 204.647 1080.9 211.301 1086.81 221.233C1088.83 224.609 1090.27 228.356 1091.01 232.358C1091.39 234.384 1091.59 236.468 1091.59 238.601V542.008Z" fill="white"/>
<path d="M1092.68 232.358H597.551C598.251 228.389 599.616 224.634 601.525 221.233C607.622 210.362 619.247 203 632.568 203H1057.66C1070.98 203 1082.61 210.362 1088.7 221.233C1090.61 224.634 1091.98 228.389 1092.68 232.358Z" fill="#F2F2F2"/>
<path d="M1092.68 232.358C1091.98 228.389 1090.61 224.634 1088.7 221.233C1082.61 210.362 1070.98 203 1057.66 203H632.568C619.247 203 607.622 210.362 601.525 221.233C599.616 224.634 598.251 228.389 597.551 232.358C597.189 234.384 597 236.468 597 238.601V542.008C597 561.641 612.953 577.609 632.568 577.609H1057.66C1061.73 577.609 1065.64 576.917 1069.29 575.649C1083.21 570.823 1093.23 557.565 1093.23 542.008V238.601C1093.23 236.476 1093.04 234.384 1092.68 232.358ZM1091.59 542.008C1091.59 559.187 1078.83 573.393 1062.29 575.649C1060.77 575.855 1059.23 575.962 1057.66 575.962H683.094C636.451 575.962 598.646 538.113 598.646 491.428V238.601C598.646 236.468 598.843 234.384 599.221 232.358C599.962 228.356 601.402 224.609 603.418 221.233C609.333 211.301 620.177 204.647 632.568 204.647H1057.66C1070.05 204.647 1080.9 211.301 1086.81 221.233C1088.83 224.609 1090.27 228.356 1091.01 232.358C1091.39 234.384 1091.59 236.468 1091.59 238.601V542.008Z" fill="#3F3D56"/>
<path d="M1092.68 232.358C1091.98 228.389 1090.61 224.634 1088.7 221.233C1082.61 210.362 1070.98 203 1057.66 203H632.568C619.247 203 607.622 210.362 601.525 221.233C599.616 224.634 598.251 228.389 597.551 232.358C597.189 234.384 597 236.468 597 238.601V542.008C597 561.641 612.953 577.609 632.568 577.609H1057.66C1061.73 577.609 1065.64 576.917 1069.29 575.649C1083.21 570.823 1093.23 557.565 1093.23 542.008V238.601C1093.23 236.476 1093.04 234.384 1092.68 232.358ZM1091.59 542.008C1091.59 559.187 1078.83 573.393 1062.29 575.649C1060.77 575.855 1059.23 575.962 1057.66 575.962H683.094C636.451 575.962 598.646 538.113 598.646 491.428V238.601C598.646 236.468 598.843 234.384 599.221 232.358C599.962 228.356 601.402 224.609 603.418 221.233C609.333 211.301 620.177 204.647 632.568 204.647H1057.66C1070.05 204.647 1080.9 211.301 1086.81 221.233C1088.83 224.609 1090.27 228.356 1091.01 232.358C1091.39 234.384 1091.59 236.468 1091.59 238.601V542.008Z" fill="black" fill-opacity="0.2"/>
<path d="M991.564 376.877H698.661C695.939 376.877 693.725 374.661 693.725 371.936C693.725 369.211 695.939 366.995 698.661 366.995H991.564C994.286 366.995 996.5 369.211 996.5 371.936C996.5 374.661 994.286 376.877 991.564 376.877Z" fill="#E6E6E6"/>
<path d="M1189 576.629C1189 577.172 1188.56 577.609 1188.02 577.609H984.561C984.018 577.609 983.582 577.172 983.582 576.629C983.582 576.365 983.68 576.135 983.845 575.962H1057.66C1059.23 575.962 1060.77 575.855 1062.29 575.649H1188.02C1188.56 575.649 1189 576.085 1189 576.629Z" fill="#3F3D56"/>
<path d="M1070.85 380.945L1068.06 370.727L1080.59 366.083L1081.99 375.372L1070.85 380.945Z" fill="#FFB6B6"/>
<path opacity="0.1" d="M1070.85 380.945L1068.06 370.727L1075.44 367.612L1073.15 379.658L1070.85 380.945Z" fill="black"/>
<path d="M1034.17 468.516C1031.78 467.091 1031.65 462.884 1033.89 459.12C1034.87 457.473 1036.14 456.183 1037.46 455.373L1038.77 453.225L1055.39 423.4C1055.39 423.4 1062.67 395.272 1065.63 391.871C1068.59 388.47 1072.88 389.271 1072.88 389.271L1076.68 392.648L1063.12 432.488L1046.39 456.072L1044.14 459.354C1044.06 460.901 1043.54 462.633 1042.56 464.281C1040.32 468.045 1036.57 469.941 1034.17 468.516Z" fill="#FFB6B6"/>
<path d="M1070.16 378.026C1070.16 378.026 1075.45 377.822 1078.79 381.932C1082.12 386.043 1064.65 432.372 1064.65 432.372L1050.41 431.867L1070.16 378.026Z" fill="#0AC5A8"/>
<path d="M1071.54 372.352C1078.72 372.352 1084.54 366.53 1084.54 359.348C1084.54 352.166 1078.72 346.343 1071.54 346.343C1064.37 346.343 1058.55 352.166 1058.55 359.348C1058.55 366.53 1064.37 372.352 1071.54 372.352Z" fill="#FFB6B6"/>
<path d="M1041.15 548.147L1032.33 569.976L1027.23 564.867L1025.37 555.113L1032.8 545.824L1041.15 548.147Z" fill="#FFB6B6"/>
<path d="M1123.75 540.251L1132.56 550.469L1128.39 558.829L1119.11 557.436L1114.47 544.431L1123.75 540.251Z" fill="#FFB6B6"/>
<path d="M1065.05 418.333L1063.89 437.143L1092.66 432.034L1090.8 420.423L1065.05 418.333Z" fill="#FFB6B6"/>
<path d="M1063.66 437.375L1092.66 427.854C1092.66 427.854 1103.33 449.219 1091.73 462.688C1080.13 476.157 1041.62 552.791 1041.62 552.791L1030.01 547.218L1046.72 498.451L1065.28 453.399L1063.66 437.375Z" fill="#2F2E41"/>
<path d="M1091.73 454.792L1102.87 503.559L1126.07 541.18L1114 548.147L1081.52 503.559L1070.85 469.19L1091.73 454.792Z" fill="#2F2E41"/>
<path d="M1021.2 553.256H1013.16C1013.16 553.256 1003.78 549.54 1001.59 553.256C999.389 556.971 1011.39 567.509 1011.39 567.509C1011.39 567.509 1028.16 576.943 1030.48 576.478C1032.8 576.014 1033.73 570.44 1033.73 570.44L1036.51 563.938L1032.33 565.331C1032.33 565.331 1026.77 562.08 1028.16 556.507L1021.2 553.256Z" fill="#2F2E41"/>
<path d="M1130.71 551.862V547.218L1136.1 551.862C1136.1 551.862 1145.09 555.113 1138.13 562.08C1131.17 569.047 1122.36 576.478 1122.36 576.478C1122.36 576.478 1108.43 580.194 1107.51 576.014C1106.58 571.834 1107.51 570.142 1107.51 570.142L1112.61 567.654L1117.25 555.578L1124.68 556.507L1130.71 551.862Z" fill="#2F2E41"/>
<path d="M1075.49 361.902L1071.31 361.438L1063.66 353.775C1063.66 353.775 1056.7 357.49 1056.7 354.703C1056.7 341.699 1064.58 342.163 1071.08 341.234C1077.58 340.305 1076.88 340.073 1078.97 343.557C1079.92 345.15 1083.38 346.111 1083.38 346.111C1083.38 346.111 1089.87 337.287 1093.12 347.969C1096.37 358.651 1092.19 391.627 1095.44 394.414C1098.69 397.201 1082.1 399.983 1083.9 389.071C1085.7 378.158 1088.95 361.438 1087.09 357.722C1085.23 354.007 1084.77 354.936 1084.77 354.936C1087.07 353.996 1088.57 370.553 1079.9 371.364L1079.67 363.296C1079.67 363.296 1078.27 359.116 1075.49 361.902V361.902Z" fill="#2F2E41"/>
<path d="M1069.69 377.926L1083.61 372.353L1102.17 428.086L1063.98 426.694L1060.54 410.059C1060.54 410.059 1057.19 401.402 1059.97 396.293C1062.75 391.184 1069.69 377.926 1069.69 377.926Z" fill="#0AC5A8"/>
<path d="M1105.91 471.287C1103.14 471.526 1100.59 468.182 1100.21 463.818C1100.05 461.908 1100.33 460.119 1100.93 458.691L1100.74 456.179L1096.88 422.248C1096.88 422.248 1089.68 394.493 1090.11 390.002C1090.53 385.51 1091.2 384.317 1091.2 384.317L1096.26 384.845L1108.45 425.125L1108.59 454.05L1108.68 458.025C1109.51 459.33 1110.09 461.044 1110.26 462.954C1110.63 467.318 1108.69 471.049 1105.91 471.287H1105.91Z" fill="#FFB6B6"/>
<path d="M1082.45 376.765C1082.45 376.765 1086.63 373.514 1091.73 374.907C1096.83 376.3 1109.62 424.139 1109.62 424.139L1097.76 432.034L1082.45 376.765Z" fill="#0AC5A8"/>
<path d="M1054.62 275.067H998.959C995.562 275.067 992.798 272.3 992.798 268.9V263.328C992.798 259.927 995.562 257.162 998.959 257.162H1054.62C1058.02 257.162 1060.78 259.927 1060.78 263.328V268.9C1060.78 272.3 1058.02 275.067 1054.62 275.067Z" fill="#0AC5A8"/>
<path d="M873.237 457.582H817.572C813.948 457.582 811 454.63 811 451.003V445.431C811 441.804 813.948 438.853 817.572 438.853H873.237C876.861 438.853 879.809 441.804 879.809 445.431V451.003C879.809 454.63 876.861 457.582 873.237 457.582ZM817.572 440.5C814.856 440.5 812.646 442.712 812.646 445.431V451.003C812.646 453.722 814.856 455.935 817.572 455.935H873.237C875.953 455.935 878.164 453.722 878.164 451.003V445.431C878.164 442.712 875.953 440.5 873.237 440.5H817.572Z" fill="#0AC5A8"/>
<path d="M991.564 351.348H698.661C695.939 351.348 693.725 349.132 693.725 346.407C693.725 343.682 695.939 341.466 698.661 341.466H991.564C994.286 341.466 996.5 343.682 996.5 346.407C996.5 349.132 994.286 351.348 991.564 351.348Z" fill="#E6E6E6"/>
<path d="M680.008 271.055H642.984C640.262 271.055 638.047 268.839 638.047 266.114C638.047 263.39 640.262 261.173 642.984 261.173H680.008C682.73 261.173 684.945 263.39 684.945 266.114C684.945 268.839 682.73 271.055 680.008 271.055Z" fill="#E6E6E6"/>
<path d="M901.33 271.055H864.306C861.584 271.055 859.37 268.839 859.37 266.114C859.37 263.39 861.584 261.173 864.306 261.173H901.33C904.053 261.173 906.267 263.39 906.267 266.114C906.267 268.839 904.053 271.055 901.33 271.055Z" fill="#E6E6E6"/>
<path d="M971.265 271.055H934.241C931.519 271.055 929.304 268.839 929.304 266.114C929.304 263.39 931.519 261.173 934.241 261.173H971.265C973.987 261.173 976.202 263.39 976.202 266.114C976.202 268.839 973.987 271.055 971.265 271.055Z" fill="#E6E6E6"/>
<path d="M926.843 402.406H763.937C761.214 402.406 759 400.19 759 397.465C759 394.74 761.214 392.524 763.937 392.524H926.843C929.565 392.524 931.779 394.74 931.779 397.465C931.779 400.19 929.565 402.406 926.843 402.406Z" fill="#E6E6E6"/>
<path d="M933.667 510.497H756.564C754.918 510.497 753.579 509.157 753.579 507.51C753.579 505.862 754.918 504.522 756.564 504.522H933.667C935.313 504.522 936.652 505.862 936.652 507.51C936.652 509.157 935.313 510.497 933.667 510.497Z" fill="#E6E6E6"/>
<path d="M894.366 525.933H795.865C794.219 525.933 792.88 524.593 792.88 522.946C792.88 521.298 794.219 519.958 795.865 519.958H894.366C896.012 519.958 897.351 521.298 897.351 522.946C897.351 524.593 896.012 525.933 894.366 525.933Z" fill="#E6E6E6"/>
<path d="M935.313 220.62H758.209C756.563 220.62 755.224 219.28 755.224 217.632C755.224 215.985 756.563 214.645 758.209 214.645H935.313C936.959 214.645 938.298 215.985 938.298 217.632C938.298 219.28 936.959 220.62 935.313 220.62Z" fill="white"/>
<path d="M959.14 211.204L958.018 212.41L963.074 217.115H947.719C947.265 217.115 946.896 217.484 946.896 217.939C946.896 218.393 947.265 218.762 947.719 218.762H963.077L958.018 223.468L959.14 224.675L966.377 217.94L959.14 211.204V211.204Z" fill="#0AC5A8"/>
<g clip-path="url(#clip1_537_1257)">
<path d="M790.611 311.75V313.5H788.958C788.566 313.5 788.25 313.834 788.25 314.25V315.75C788.25 316.166 788.566 316.5 788.958 316.5H790.611V318.25C790.611 318.666 790.927 319 791.319 319H792.736C793.129 319 793.444 318.666 793.444 318.25V316.5H795.097C795.49 316.5 795.806 316.166 795.806 315.75V314.25C795.806 313.834 795.49 313.5 795.097 313.5H793.444V311.75C793.444 311.334 793.129 311 792.736 311H791.319C790.927 311 790.611 311.334 790.611 311.75ZM800.519 323.256C801.044 322.847 801.156 322.066 800.77 321.509C800.383 320.953 799.645 320.834 799.12 321.244L795.587 324H792.028C791.768 324 791.556 323.775 791.556 323.5C791.556 323.225 791.768 323 792.028 323H792.5H794.389C794.911 323 795.333 322.553 795.333 322C795.333 321.447 794.911 321 794.389 321H792.5H792.028H789.717C788.858 321 788.026 321.309 787.356 321.875L786.031 323H784.944C784.422 323 784 323.447 784 324V326C784 326.553 784.422 327 784.944 327H789.667H794.404C795.26 327 796.095 326.709 796.785 326.172L800.522 323.256H800.519ZM789.687 323H789.714C789.705 323 789.696 323 789.687 323Z" fill="#07463C"/>
</g>
<path d="M817.747 326C816.607 326 815.529 325.865 814.513 325.596C813.511 325.326 812.673 324.96 812 324.498L812.927 322.149C813.572 322.572 814.307 322.906 815.131 323.15C815.969 323.394 816.841 323.516 817.747 323.516C818.736 323.516 819.443 323.375 819.869 323.092C820.308 322.797 820.528 322.431 820.528 321.994C820.528 321.622 820.377 321.327 820.075 321.109C819.773 320.89 819.244 320.704 818.489 320.55L816.161 320.088C813.566 319.575 812.268 318.316 812.268 316.314C812.268 315.453 812.515 314.702 813.009 314.061C813.504 313.406 814.19 312.899 815.069 312.539C815.962 312.18 816.992 312 818.159 312C819.162 312 820.102 312.135 820.981 312.404C821.86 312.674 822.588 313.053 823.165 313.541L822.238 315.736C821.112 314.901 819.745 314.484 818.138 314.484C817.273 314.484 816.6 314.645 816.12 314.966C815.653 315.274 815.419 315.678 815.419 316.179C815.419 316.551 815.564 316.853 815.852 317.084C816.14 317.315 816.642 317.501 817.356 317.642L819.683 318.105C822.348 318.644 823.68 319.863 823.68 321.763C823.68 322.611 823.432 323.355 822.938 323.997C822.457 324.626 821.771 325.121 820.878 325.48C819.999 325.827 818.956 326 817.747 326Z" fill="#0AC5A8"/>
<path d="M825.526 325.788V316.333H828.574V317.7C828.877 317.212 829.288 316.834 829.81 316.564C830.346 316.282 830.964 316.14 831.664 316.14C832.378 316.14 832.983 316.288 833.477 316.583C833.985 316.878 834.37 317.328 834.63 317.931C834.946 317.366 835.4 316.93 835.99 316.622C836.594 316.301 837.26 316.14 837.988 316.14C839.142 316.14 840 316.468 840.563 317.122C841.126 317.764 841.408 318.759 841.408 320.107V325.788H838.297V320.204C838.297 319.575 838.187 319.119 837.968 318.836C837.762 318.541 837.404 318.393 836.896 318.393C836.306 318.393 835.846 318.586 835.516 318.971C835.187 319.356 835.022 319.902 835.022 320.608V325.788H831.911V320.204C831.911 319.575 831.802 319.119 831.582 318.836C831.362 318.541 831.005 318.393 830.511 318.393C829.92 318.393 829.46 318.586 829.131 318.971C828.801 319.356 828.636 319.902 828.636 320.608V325.788H825.526Z" fill="#0AC5A8"/>
<path d="M847.21 326C846.454 326 845.788 325.865 845.212 325.596C844.635 325.326 844.175 324.96 843.831 324.498C843.502 324.036 843.337 323.516 843.337 322.938C843.337 322.258 843.529 321.712 843.914 321.301C844.298 320.89 844.923 320.602 845.788 320.435C846.653 320.255 847.8 320.165 849.228 320.165H849.97V319.838C849.97 319.273 849.833 318.875 849.558 318.644C849.283 318.4 848.816 318.278 848.157 318.278C847.608 318.278 847.024 318.361 846.406 318.528C845.802 318.682 845.198 318.92 844.594 319.241L843.749 317.296C844.106 317.077 844.539 316.878 845.047 316.699C845.569 316.519 846.111 316.384 846.674 316.294C847.237 316.192 847.773 316.14 848.281 316.14C849.846 316.14 851.014 316.474 851.783 317.142C852.552 317.796 852.936 318.817 852.936 320.204V325.788H850.032V324.363C849.826 324.864 849.476 325.262 848.981 325.557C848.501 325.852 847.91 326 847.21 326ZM847.91 324.055C848.487 324.055 848.974 323.869 849.373 323.497C849.771 323.124 849.97 322.643 849.97 322.052V321.667H849.249C848.192 321.667 847.443 321.757 847.004 321.937C846.564 322.104 846.345 322.399 846.345 322.823C846.345 323.182 846.475 323.477 846.736 323.708C847.011 323.939 847.402 324.055 847.91 324.055Z" fill="#0AC5A8"/>
<path d="M855.256 325.788V316.333H858.305V317.97C858.786 316.866 859.816 316.256 861.395 316.14L862.301 316.083L862.487 318.528L860.736 318.702C859.198 318.843 858.429 319.575 858.429 320.897V325.788H855.256Z" fill="#0AC5A8"/>
<path d="M869.313 326C866.471 326 865.049 324.71 865.049 322.129V318.509H863.134V316.333H865.049V313.56H868.16V316.333H871.147V318.509H868.16V322.014C868.16 322.553 868.29 322.957 868.551 323.227C868.826 323.497 869.258 323.631 869.849 323.631C870.027 323.631 870.213 323.612 870.405 323.574C870.611 323.535 870.831 323.484 871.064 323.42L871.517 325.538C871.229 325.679 870.886 325.788 870.487 325.865C870.089 325.955 869.698 326 869.313 326Z" fill="#0AC5A8"/>
<path d="M873.213 325.788V312.212H875.005L880.381 321.59L885.737 312.212H887.488V325.788H885.572V315.832L881.02 323.708H879.722L875.149 315.871V325.788H873.213Z" fill="#07463C"/>
<path d="M895.404 325.961C893.756 325.961 892.459 325.531 891.511 324.671C890.564 323.798 890.09 322.611 890.09 321.109C890.09 320.146 890.296 319.298 890.708 318.567C891.134 317.822 891.717 317.244 892.459 316.834C893.2 316.423 894.052 316.217 895.013 316.217C896.4 316.217 897.492 316.635 898.288 317.469C899.085 318.291 899.483 319.427 899.483 320.878V321.532H892.109C892.26 323.484 893.365 324.459 895.425 324.459C896.002 324.459 896.565 324.376 897.114 324.209C897.677 324.042 898.206 323.766 898.7 323.381L899.318 324.729C898.865 325.114 898.281 325.416 897.567 325.634C896.853 325.852 896.132 325.961 895.404 325.961ZM895.095 317.585C894.23 317.585 893.544 317.835 893.035 318.336C892.527 318.836 892.218 319.504 892.109 320.338H897.732C897.691 319.465 897.444 318.791 896.99 318.316C896.537 317.829 895.906 317.585 895.095 317.585Z" fill="#07463C"/>
<path d="M905.582 325.961C904.704 325.961 903.928 325.769 903.255 325.384C902.596 324.986 902.081 324.421 901.71 323.689C901.339 322.957 901.154 322.091 901.154 321.089C901.154 320.088 901.339 319.228 901.71 318.509C902.081 317.777 902.596 317.212 903.255 316.814C903.914 316.416 904.69 316.217 905.582 316.217C906.338 316.217 907.011 316.371 907.601 316.68C908.192 316.988 908.631 317.405 908.92 317.931V312.212H911V325.788H908.961V324.151C908.672 324.716 908.226 325.159 907.622 325.48C907.031 325.801 906.352 325.961 905.582 325.961ZM906.118 324.459C906.969 324.459 907.656 324.171 908.178 323.593C908.7 323.015 908.961 322.181 908.961 321.089C908.961 319.998 908.7 319.17 908.178 318.605C907.656 318.028 906.969 317.739 906.118 317.739C905.253 317.739 904.559 318.028 904.038 318.605C903.516 319.17 903.255 319.998 903.255 321.089C903.255 322.181 903.516 323.015 904.038 323.593C904.559 324.171 905.253 324.459 906.118 324.459Z" fill="#07463C"/>
</g>
<g clip-path="url(#clip2_537_1257)">
<path d="M1285.92 370.694L1227.73 404.211" stroke="black" stroke-width="4" stroke-linecap="round" stroke-linejoin="round"/>
<path d="M1344.92 404.586L1285.92 370.694" stroke="black" stroke-width="4" stroke-linecap="round" stroke-linejoin="round"/>
<path d="M1286 438.676L1344.92 404.829" stroke="black" stroke-width="4" stroke-linecap="round" stroke-linejoin="round"/>
<path d="M1227.73 405.204L1286 438.676" stroke="black" stroke-width="4" stroke-linecap="round" stroke-linejoin="round"/>
<path d="M1336.82 388.023L1314.88 400.629L1336.82 413.235L1358.77 400.629L1336.82 388.023Z" fill="#70D6F9"/>
<path d="M1314.88 400.629V421.372L1336.82 433.977L1358.77 421.372V400.629L1336.82 413.235L1314.88 400.629Z" fill="#B598F9"/>
<path d="M1336.82 388.023L1314.88 400.629L1336.82 413.235L1358.77 400.629L1336.82 388.023Z" stroke="black" stroke-width="4" stroke-linecap="round" stroke-linejoin="round"/>
<path d="M1314.88 400.629V421.372L1336.82 433.977L1358.77 421.372V400.629L1336.82 413.235L1314.88 400.629Z" stroke="black" stroke-width="4" stroke-linecap="round" stroke-linejoin="round"/>
<path d="M1336.82 412.956V433.25" stroke="black" stroke-width="4" stroke-linecap="round" stroke-linejoin="round"/>
<path d="M1286 349.548L1264.06 362.154L1286 374.76L1307.94 362.154L1286 349.548Z" fill="#70D6F9"/>
<path d="M1264.06 362.154V382.896L1286 395.502L1307.94 382.896V362.154L1286 374.76L1264.06 362.154Z" fill="#B598F9"/>
<path d="M1286 349.548L1264.06 362.154L1286 374.76L1307.94 362.154L1286 349.548Z" stroke="black" stroke-width="4" stroke-linecap="round" stroke-linejoin="round"/>
<path d="M1264.06 362.154V382.896L1286 395.502L1307.94 382.896V362.154L1286 374.76L1264.06 362.154Z" stroke="black" stroke-width="4" stroke-linecap="round" stroke-linejoin="round"/>
<path d="M1286 394.775V374.481" stroke="black" stroke-width="4" stroke-linecap="round" stroke-linejoin="round"/>
<path d="M1235.23 388.023L1213.29 400.629L1235.23 413.235L1257.18 400.629L1235.23 388.023Z" fill="#70D6F9"/>
<path d="M1213.29 400.629V421.372L1235.23 433.977L1257.18 421.372V400.629L1235.23 413.235L1213.29 400.629Z" fill="#B598F9"/>
<path d="M1235.23 388.023L1213.29 400.629L1235.23 413.235L1257.18 400.629L1235.23 388.023Z" stroke="black" stroke-width="4" stroke-linecap="round" stroke-linejoin="round"/>
<path d="M1213.29 400.629V421.372L1235.23 433.977L1257.18 421.372V400.629L1235.23 413.235L1213.29 400.629Z" stroke="black" stroke-width="4" stroke-linecap="round" stroke-linejoin="round"/>
<path d="M1235.23 412.956V433.25" stroke="black" stroke-width="4" stroke-linecap="round" stroke-linejoin="round"/>
<path d="M1286 426.498L1264.06 439.104L1286 451.71L1307.94 439.104L1286 426.498Z" fill="#70D6F9"/>
<path d="M1264.06 439.104V459.846L1286 472.452L1307.94 459.846V439.104L1286 451.71L1264.06 439.104Z" fill="#B598F9"/>
<path d="M1286 426.498L1264.06 439.104L1286 451.71L1307.94 439.104L1286 426.498Z" stroke="black" stroke-width="4" stroke-linecap="round" stroke-linejoin="round"/>
<path d="M1264.06 439.104V459.846L1286 472.452L1307.94 459.846V439.104L1286 451.71L1264.06 439.104Z" stroke="black" stroke-width="4" stroke-linecap="round" stroke-linejoin="round"/>
<path d="M1286 451.431V471.725" stroke="black" stroke-width="4" stroke-linecap="round" stroke-linejoin="round"/>
</g>
<circle cx="1186" cy="410" r="19" stroke="#0AC5A8"/>
<circle opacity="0.2" cx="1186" cy="410" r="14" fill="#0AC5A8"/>
<circle cx="1186" cy="410" r="8" fill="#0AC5A8"/>
<path d="M598.207 329.793C598.598 330.183 598.598 330.817 598.207 331.207L591.843 337.571C591.453 337.962 590.819 337.962 590.429 337.571C590.038 337.181 590.038 336.547 590.429 336.157L596.086 330.5L590.429 324.843C590.038 324.453 590.038 323.819 590.429 323.429C590.819 323.038 591.453 323.038 591.843 323.429L598.207 329.793ZM318.25 190C317.698 190 317.25 189.552 317.25 189C317.25 188.448 317.698 188 318.25 188V190ZM318.25 188C318.802 188 319.25 188.448 319.25 189C319.25 189.552 318.802 190 318.25 190V188ZM263 99.7188C263 100.271 262.552 100.719 262 100.719C261.448 100.719 261 100.271 261 99.7188H263ZM261 109.156C261 108.604 261.448 108.156 262 108.156C262.552 108.156 263 108.604 263 109.156H261ZM263 118.594C263 119.146 262.552 119.594 262 119.594C261.448 119.594 261 119.146 261 118.594H263ZM261 128.031C261 127.479 261.448 127.031 262 127.031C262.552 127.031 263 127.479 263 128.031H261ZM263.117 136.368C263.152 136.919 262.734 137.395 262.183 137.43C261.632 137.466 261.156 137.048 261.121 136.497L263.117 136.368ZM262.09 143.922C261.982 143.38 262.335 142.854 262.877 142.747C263.418 142.64 263.944 142.992 264.052 143.534L262.09 143.922ZM265.918 150.516C266.096 151.039 265.816 151.607 265.293 151.785C264.77 151.962 264.202 151.682 264.024 151.159L265.918 150.516ZM266.893 158.077C266.648 157.582 266.851 156.982 267.347 156.738C267.842 156.493 268.441 156.696 268.686 157.191L266.893 158.077ZM272.305 163.447C272.613 163.906 272.49 164.527 272.031 164.834C271.572 165.142 270.951 165.019 270.643 164.56L272.305 163.447ZM275.207 170.498C274.842 170.083 274.884 169.451 275.299 169.087C275.714 168.723 276.346 168.764 276.71 169.179L275.207 170.498ZM281.821 174.29C282.236 174.654 282.277 175.286 281.913 175.701C281.549 176.116 280.917 176.158 280.502 175.793L281.821 174.29ZM286.44 180.357C285.981 180.049 285.858 179.428 286.166 178.969C286.473 178.51 287.094 178.387 287.553 178.695L286.44 180.357ZM293.809 182.314C294.304 182.559 294.507 183.158 294.262 183.653C294.018 184.149 293.418 184.352 292.923 184.107L293.809 182.314ZM299.841 186.976C299.318 186.798 299.038 186.23 299.215 185.707C299.393 185.184 299.961 184.904 300.484 185.082L299.841 186.976ZM307.466 186.948C308.008 187.056 308.36 187.582 308.253 188.123C308.146 188.665 307.62 189.018 307.078 188.91L307.466 186.948ZM314.503 189.879C313.952 189.844 313.534 189.368 313.57 188.817C313.605 188.266 314.081 187.848 314.632 187.883L314.503 189.879ZM321.997 188.121C322.548 188.156 322.966 188.632 322.93 189.183C322.895 189.734 322.419 190.152 321.868 190.117L321.997 188.121ZM329.034 191.052C328.492 190.944 328.14 190.418 328.247 189.877C328.354 189.335 328.88 188.982 329.422 189.09L329.034 191.052ZM336.659 191.024C337.182 191.202 337.462 191.77 337.285 192.293C337.107 192.816 336.539 193.096 336.016 192.918L336.659 191.024ZM342.691 195.686C342.196 195.441 341.993 194.842 342.238 194.347C342.482 193.851 343.082 193.648 343.577 193.893L342.691 195.686ZM350.06 197.643C350.519 197.951 350.642 198.572 350.334 199.031C350.027 199.49 349.406 199.613 348.947 199.305L350.06 197.643ZM354.679 203.71C354.264 203.346 354.223 202.714 354.587 202.299C354.951 201.884 355.583 201.842 355.998 202.207L354.679 203.71ZM361.293 207.502C361.658 207.917 361.616 208.549 361.201 208.913C360.786 209.277 360.154 209.236 359.79 208.821L361.293 207.502ZM364.195 214.553C363.887 214.094 364.01 213.473 364.469 213.166C364.928 212.858 365.549 212.981 365.857 213.44L364.195 214.553ZM369.607 219.923C369.852 220.418 369.649 221.018 369.153 221.262C368.658 221.507 368.059 221.304 367.814 220.809L369.607 219.923ZM370.582 227.484C370.404 226.961 370.684 226.393 371.207 226.215C371.73 226.038 372.298 226.318 372.476 226.841L370.582 227.484ZM374.41 234.078C374.518 234.62 374.165 235.146 373.623 235.253C373.082 235.36 372.556 235.008 372.448 234.466L374.41 234.078ZM373.383 241.632C373.348 241.081 373.766 240.605 374.317 240.57C374.868 240.534 375.344 240.952 375.379 241.503L373.383 241.632ZM375.5 248.875C375.5 249.427 375.052 249.875 374.5 249.875C373.948 249.875 373.5 249.427 373.5 248.875H375.5ZM373.5 256.125C373.5 255.573 373.948 255.125 374.5 255.125C375.052 255.125 375.5 255.573 375.5 256.125H373.5ZM375.608 263.664C375.638 264.215 375.216 264.687 374.665 264.718C374.113 264.748 373.641 264.326 373.611 263.774L375.608 263.664ZM374.503 271.773C374.411 271.229 374.778 270.713 375.323 270.621C375.867 270.529 376.383 270.896 376.475 271.441L374.503 271.773ZM378.209 279.068C378.362 279.598 378.056 280.152 377.525 280.305C376.994 280.458 376.44 280.151 376.287 279.62L378.209 279.068ZM378.945 287.215C378.733 286.705 378.975 286.12 379.485 285.909C379.996 285.697 380.581 285.939 380.792 286.449L378.945 287.215ZM384.191 293.494C384.459 293.977 384.284 294.586 383.801 294.854C383.318 295.121 382.709 294.946 382.441 294.463L384.191 293.494ZM386.729 301.273C386.409 300.823 386.515 300.199 386.965 299.879C387.415 299.559 388.039 299.664 388.359 300.114L386.729 301.273ZM393.24 306.228C393.609 306.639 393.573 307.271 393.162 307.64C392.75 308.008 392.118 307.972 391.75 307.561L393.24 306.228ZM397.439 313.25C397.028 312.882 396.992 312.25 397.36 311.838C397.729 311.427 398.361 311.391 398.772 311.76L397.439 313.25ZM404.886 316.641C405.336 316.961 405.441 317.585 405.121 318.035C404.801 318.485 404.177 318.591 403.727 318.271L404.886 316.641ZM410.537 322.559C410.054 322.291 409.879 321.682 410.146 321.199C410.414 320.716 411.023 320.541 411.506 320.809L410.537 322.559ZM418.551 324.208C419.061 324.419 419.303 325.004 419.091 325.515C418.88 326.025 418.295 326.267 417.785 326.055L418.551 324.208ZM425.38 328.713C424.849 328.56 424.542 328.006 424.695 327.475C424.848 326.944 425.402 326.638 425.932 326.791L425.38 328.713ZM433.559 328.525C434.104 328.617 434.471 329.133 434.379 329.677C434.287 330.222 433.771 330.589 433.227 330.497L433.559 328.525ZM441.226 331.389C440.674 331.359 440.252 330.887 440.282 330.335C440.313 329.784 440.785 329.362 441.336 329.392L441.226 331.389ZM449.056 329.5C449.609 329.5 450.056 329.948 450.056 330.5C450.056 331.052 449.609 331.5 449.056 331.5V329.5ZM456.669 331.5C456.116 331.5 455.669 331.052 455.669 330.5C455.669 329.948 456.116 329.5 456.669 329.5V331.5ZM464.281 329.5C464.834 329.5 465.281 329.948 465.281 330.5C465.281 331.052 464.834 331.5 464.281 331.5V329.5ZM471.894 331.5C471.341 331.5 470.894 331.052 470.894 330.5C470.894 329.948 471.341 329.5 471.894 329.5V331.5ZM479.506 329.5C480.059 329.5 480.506 329.948 480.506 330.5C480.506 331.052 480.059 331.5 479.506 331.5V329.5ZM487.119 331.5C486.566 331.5 486.119 331.052 486.119 330.5C486.119 329.948 486.566 329.5 487.119 329.5V331.5ZM494.731 329.5C495.284 329.5 495.731 329.948 495.731 330.5C495.731 331.052 495.284 331.5 494.731 331.5V329.5ZM502.344 331.5C501.791 331.5 501.344 331.052 501.344 330.5C501.344 329.948 501.791 329.5 502.344 329.5V331.5ZM509.956 329.5C510.509 329.5 510.956 329.948 510.956 330.5C510.956 331.052 510.509 331.5 509.956 331.5V329.5ZM517.569 331.5C517.016 331.5 516.569 331.052 516.569 330.5C516.569 329.948 517.016 329.5 517.569 329.5V331.5ZM525.181 329.5C525.734 329.5 526.181 329.948 526.181 330.5C526.181 331.052 525.734 331.5 525.181 331.5V329.5ZM532.794 331.5C532.241 331.5 531.794 331.052 531.794 330.5C531.794 329.948 532.241 329.5 532.794 329.5V331.5ZM540.406 329.5C540.959 329.5 541.406 329.948 541.406 330.5C541.406 331.052 540.959 331.5 540.406 331.5V329.5ZM548.019 331.5C547.466 331.5 547.019 331.052 547.019 330.5C547.019 329.948 547.466 329.5 548.019 329.5V331.5ZM555.631 329.5C556.184 329.5 556.631 329.948 556.631 330.5C556.631 331.052 556.184 331.5 555.631 331.5V329.5ZM563.244 331.5C562.691 331.5 562.244 331.052 562.244 330.5C562.244 329.948 562.691 329.5 563.244 329.5V331.5ZM570.856 329.5C571.409 329.5 571.856 329.948 571.856 330.5C571.856 331.052 571.409 331.5 570.856 331.5V329.5ZM578.469 331.5C577.916 331.5 577.469 331.052 577.469 330.5C577.469 329.948 577.916 329.5 578.469 329.5V331.5ZM586.081 329.5C586.634 329.5 587.081 329.948 587.081 330.5C587.081 331.052 586.634 331.5 586.081 331.5V329.5ZM593.694 331.5C593.141 331.5 592.694 331.052 592.694 330.5C592.694 329.948 593.141 329.5 593.694 329.5V331.5ZM263 95V99.7188H261V95H263ZM263 109.156V118.594H261V109.156H263ZM263 128.031V132.75H261V128.031H263ZM263 132.75C263 133.966 263.039 135.172 263.117 136.368L261.121 136.497C261.041 135.258 261 134.009 261 132.75H263ZM264.052 143.534C264.524 145.92 265.15 148.251 265.918 150.516L264.024 151.159C263.228 148.811 262.579 146.395 262.09 143.922L264.052 143.534ZM268.686 157.191C269.758 159.361 270.968 161.45 272.305 163.447L270.643 164.56C269.258 162.49 268.004 160.326 266.893 158.077L268.686 157.191ZM276.71 169.179C278.301 170.992 280.008 172.699 281.821 174.29L280.502 175.793C278.624 174.145 276.855 172.376 275.207 170.498L276.71 169.179ZM287.553 178.695C289.55 180.032 291.639 181.242 293.809 182.314L292.923 184.107C290.675 182.996 288.51 181.742 286.44 180.357L287.553 178.695ZM300.484 185.082C302.749 185.85 305.08 186.476 307.466 186.948L307.078 188.91C304.605 188.421 302.189 187.772 299.841 186.976L300.484 185.082ZM314.632 187.883C315.828 187.961 317.034 188 318.25 188V190C316.991 190 315.742 189.959 314.503 189.879L314.632 187.883ZM318.25 188C319.509 188 320.758 188.041 321.997 188.121L321.868 190.117C320.672 190.039 319.466 190 318.25 190V188ZM329.422 189.09C331.895 189.579 334.311 190.228 336.659 191.024L336.016 192.918C333.751 192.15 331.42 191.524 329.034 191.052L329.422 189.09ZM343.577 193.893C345.826 195.004 347.99 196.258 350.06 197.643L348.947 199.305C346.95 197.968 344.861 196.758 342.691 195.686L343.577 193.893ZM355.998 202.207C357.876 203.855 359.645 205.624 361.293 207.502L359.79 208.821C358.199 207.008 356.492 205.301 354.679 203.71L355.998 202.207ZM365.857 213.44C367.242 215.51 368.496 217.675 369.607 219.923L367.814 220.809C366.742 218.639 365.532 216.55 364.195 214.553L365.857 213.44ZM372.476 226.841C373.272 229.189 373.921 231.605 374.41 234.078L372.448 234.466C371.976 232.08 371.35 229.749 370.582 227.484L372.476 226.841ZM375.379 241.503C375.459 242.742 375.5 243.991 375.5 245.25H373.5C373.5 244.034 373.461 242.828 373.383 241.632L375.379 241.503ZM375.5 245.25V248.875H373.5V245.25H375.5ZM375.5 256.125V259.75H373.5V256.125H375.5ZM375.5 259.75C375.5 261.064 375.536 262.369 375.608 263.664L373.611 263.774C373.537 262.442 373.5 261.1 373.5 259.75H375.5ZM376.475 271.441C376.913 274.034 377.494 276.58 378.209 279.068L376.287 279.62C375.551 277.06 374.953 274.442 374.503 271.773L376.475 271.441ZM380.792 286.449C381.796 288.869 382.932 291.221 384.191 293.494L382.441 294.463C381.146 292.124 379.977 289.705 378.945 287.215L380.792 286.449ZM388.359 300.114C389.873 302.244 391.503 304.285 393.24 306.228L391.75 307.561C389.963 305.562 388.286 303.463 386.729 301.273L388.359 300.114ZM398.772 311.76C400.715 313.497 402.756 315.127 404.886 316.641L403.727 318.271C401.537 316.714 399.438 315.037 397.439 313.25L398.772 311.76ZM411.506 320.809C413.779 322.068 416.131 323.204 418.551 324.208L417.785 326.055C415.295 325.023 412.876 323.854 410.537 322.559L411.506 320.809ZM425.932 326.791C428.42 327.506 430.966 328.087 433.559 328.525L433.227 330.497C430.558 330.047 427.94 329.449 425.38 328.713L425.932 326.791ZM441.336 329.392C442.632 329.464 443.936 329.5 445.25 329.5V331.5C443.9 331.5 442.558 331.463 441.226 331.389L441.336 329.392ZM445.25 329.5H449.056V331.5H445.25V329.5ZM456.669 329.5H464.281V331.5H456.669V329.5ZM471.894 329.5H479.506V331.5H471.894V329.5ZM487.119 329.5H494.731V331.5H487.119V329.5ZM502.344 329.5H509.956V331.5H502.344V329.5ZM517.569 329.5H525.181V331.5H517.569V329.5ZM532.794 329.5H540.406V331.5H532.794V329.5ZM548.019 329.5H555.631V331.5H548.019V329.5ZM563.244 329.5H570.856V331.5H563.244V329.5ZM578.469 329.5H586.081V331.5H578.469V329.5ZM593.694 329.5H597.5V331.5H593.694V329.5Z" fill="black"/>
<circle cx="262" cy="67" r="65" stroke="#0AC5A8" stroke-width="4"/>
<circle opacity="0.2" cx="262" cy="67.0001" r="51.3158" fill="#0AC5A8"/>
<circle cx="262.368" cy="67.3684" r="27.3684" fill="#0AC5A8"/>
<g clip-path="url(#clip3_537_1257)">
<path d="M262.5 69.0625C266.382 69.0625 269.531 65.9131 269.531 62.0312C269.531 58.1494 266.382 55 262.5 55C258.618 55 255.469 58.1494 255.469 62.0312C255.469 65.9131 258.618 69.0625 262.5 69.0625ZM268.75 70.625H266.06C264.976 71.123 263.77 71.4062 262.5 71.4062C261.23 71.4062 260.029 71.123 258.94 70.625H256.25C252.798 70.625 250 73.4229 250 76.875V77.6562C250 78.9502 251.05 80 252.344 80H272.656C273.95 80 275 78.9502 275 77.6562V76.875C275 73.4229 272.202 70.625 268.75 70.625Z" fill="white"/>
</g>
<path d="M597.707 449.707C598.098 449.317 598.098 448.683 597.707 448.293L591.343 441.929C590.953 441.538 590.319 441.538 589.929 441.929C589.538 442.319 589.538 442.953 589.929 443.343L595.586 449L589.929 454.657C589.538 455.047 589.538 455.681 589.929 456.071C590.319 456.462 590.953 456.462 591.343 456.071L597.707 449.707ZM422.5 517.02C422.5 517.572 422.948 518.02 423.5 518.02C424.052 518.02 424.5 517.572 424.5 517.02H422.5ZM424.5 517.02C424.5 516.468 424.052 516.02 423.5 516.02C422.948 516.02 422.5 516.468 422.5 517.02H424.5ZM283 719.737C283 719.185 282.552 718.737 282 718.737C281.448 718.737 281 719.185 281 719.737H283ZM281 711.211C281 711.763 281.448 712.211 282 712.211C282.552 712.211 283 711.763 283 711.211H281ZM283 702.684C283 702.132 282.552 701.684 282 701.684C281.448 701.684 281 702.132 281 702.684H283ZM281 694.158C281 694.711 281.448 695.158 282 695.158C282.552 695.158 283 694.711 283 694.158H281ZM283 685.632C283 685.08 282.552 684.632 282 684.632C281.448 684.632 281 685.08 281 685.632H283ZM281 677.106C281 677.658 281.448 678.106 282 678.106C282.552 678.106 283 677.658 283 677.106H281ZM283 668.58C283 668.027 282.552 667.58 282 667.58C281.448 667.58 281 668.027 281 668.58H283ZM281 660.053C281 660.606 281.448 661.053 282 661.053C282.552 661.053 283 660.606 283 660.053H281ZM283.108 651.876C283.138 651.325 282.716 650.853 282.165 650.823C281.613 650.792 281.141 651.215 281.111 651.766L283.108 651.876ZM282.003 643.767C281.911 644.312 282.278 644.828 282.823 644.919C283.367 645.011 283.883 644.644 283.975 644.1L282.003 643.767ZM285.709 636.473C285.862 635.942 285.556 635.388 285.025 635.235C284.494 635.083 283.94 635.389 283.787 635.92L285.709 636.473ZM286.445 628.325C286.233 628.835 286.475 629.42 286.985 629.632C287.496 629.843 288.081 629.601 288.292 629.091L286.445 628.325ZM291.691 622.046C291.959 621.563 291.784 620.954 291.301 620.687C290.818 620.419 290.209 620.594 289.941 621.077L291.691 622.046ZM294.229 614.267C293.909 614.717 294.015 615.342 294.465 615.662C294.915 615.982 295.539 615.876 295.859 615.426L294.229 614.267ZM300.74 609.313C301.109 608.901 301.073 608.269 300.662 607.901C300.25 607.533 299.618 607.568 299.25 607.98L300.74 609.313ZM304.939 602.29C304.528 602.658 304.492 603.29 304.86 603.702C305.229 604.114 305.861 604.149 306.272 603.781L304.939 602.29ZM312.386 598.899C312.836 598.58 312.941 597.955 312.621 597.505C312.301 597.055 311.677 596.949 311.227 597.269L312.386 598.899ZM318.037 592.982C317.554 593.249 317.379 593.858 317.646 594.341C317.914 594.824 318.523 594.999 319.006 594.731L318.037 592.982ZM326.051 591.333C326.561 591.121 326.803 590.536 326.591 590.026C326.38 589.516 325.795 589.274 325.285 589.485L326.051 591.333ZM332.88 586.828C332.349 586.98 332.042 587.534 332.195 588.065C332.348 588.596 332.902 588.902 333.432 588.75L332.88 586.828ZM341.059 587.016C341.604 586.924 341.971 586.408 341.879 585.863C341.787 585.319 341.271 584.952 340.727 585.043L341.059 587.016ZM348.726 584.151C348.174 584.182 347.752 584.654 347.782 585.205C347.813 585.756 348.285 586.179 348.836 586.148L348.726 584.151ZM353.432 586.04C353.985 586.04 354.432 585.593 354.432 585.04C354.432 584.488 353.985 584.04 353.432 584.04V586.04ZM354.797 584.04C354.245 584.04 353.797 584.488 353.797 585.04C353.797 585.593 354.245 586.04 354.797 586.04V584.04ZM359.351 585.934C359.903 585.903 360.325 585.431 360.294 584.88C360.264 584.328 359.792 583.906 359.241 583.937L359.351 585.934ZM366.713 583.103C366.168 583.195 365.801 583.711 365.893 584.256C365.985 584.8 366.501 585.167 367.046 585.075L366.713 583.103ZM374.594 583.359C375.125 583.206 375.432 582.652 375.279 582.122C375.126 581.591 374.572 581.284 374.041 581.437L374.594 583.359ZM381.134 578.955C380.624 579.167 380.382 579.752 380.593 580.262C380.805 580.772 381.39 581.014 381.9 580.803L381.134 578.955ZM388.872 577.439C389.356 577.171 389.53 576.563 389.263 576.08C388.995 575.597 388.387 575.422 387.903 575.689L388.872 577.439ZM394.264 571.684C393.814 572.004 393.709 572.629 394.029 573.079C394.349 573.529 394.973 573.635 395.423 573.315L394.264 571.684ZM401.472 568.485C401.883 568.117 401.919 567.485 401.55 567.073C401.182 566.661 400.55 566.626 400.138 566.994L401.472 568.485ZM405.454 561.679C405.086 562.09 405.121 562.723 405.533 563.091C405.944 563.459 406.577 563.424 406.945 563.012L405.454 561.679ZM411.774 556.964C412.094 556.513 411.989 555.889 411.539 555.569C411.088 555.249 410.464 555.355 410.144 555.805L411.774 556.964ZM414.149 549.444C413.882 549.927 414.056 550.535 414.539 550.803C415.023 551.071 415.631 550.896 415.899 550.413L414.149 549.444ZM419.262 543.441C419.474 542.93 419.232 542.345 418.722 542.134C418.211 541.922 417.626 542.164 417.415 542.674L419.262 543.441ZM419.897 535.582C419.744 536.113 420.051 536.667 420.581 536.819C421.112 536.972 421.666 536.665 421.819 536.135L419.897 535.582ZM423.535 528.586C423.627 528.041 423.26 527.525 422.715 527.434C422.171 527.342 421.655 527.709 421.563 528.253L423.535 528.586ZM422.396 520.781C422.366 521.332 422.788 521.804 423.34 521.835C423.891 521.865 424.363 521.443 424.393 520.891L422.396 520.781ZM424.604 513.259C424.634 512.708 424.212 512.236 423.66 512.206C423.109 512.175 422.637 512.597 422.607 513.149L424.604 513.259ZM423.465 505.454C423.373 505.999 423.74 506.515 424.285 506.607C424.829 506.699 425.345 506.332 425.437 505.787L423.465 505.454ZM427.103 498.459C427.256 497.928 426.949 497.374 426.419 497.221C425.888 497.068 425.334 497.375 425.181 497.906L427.103 498.459ZM427.738 490.6C427.526 491.11 427.768 491.695 428.278 491.907C428.789 492.118 429.374 491.876 429.585 491.366L427.738 490.6ZM432.851 484.597C433.118 484.113 432.944 483.505 432.461 483.237C431.977 482.97 431.369 483.144 431.101 483.628L432.851 484.597ZM435.226 477.077C434.906 477.527 435.011 478.151 435.461 478.471C435.912 478.791 436.536 478.686 436.856 478.236L435.226 477.077ZM441.546 472.362C441.914 471.95 441.879 471.318 441.467 470.95C441.056 470.581 440.423 470.617 440.055 471.028L441.546 472.362ZM445.528 465.555C445.117 465.923 445.081 466.556 445.45 466.967C445.818 467.379 446.45 467.414 446.862 467.046L445.528 465.555ZM452.736 462.356C453.186 462.036 453.291 461.412 452.971 460.961C452.651 460.511 452.027 460.406 451.577 460.726L452.736 462.356ZM458.128 456.601C457.644 456.869 457.47 457.477 457.737 457.961C458.005 458.444 458.613 458.618 459.097 458.351L458.128 456.601ZM465.866 455.085C466.376 454.874 466.618 454.289 466.407 453.778C466.195 453.268 465.61 453.026 465.1 453.238L465.866 455.085ZM472.406 450.681C471.875 450.834 471.568 451.388 471.721 451.919C471.874 452.449 472.428 452.756 472.959 452.603L472.406 450.681ZM480.287 450.937C480.832 450.845 481.199 450.329 481.107 449.785C481.015 449.24 480.499 448.873 479.954 448.965L480.287 450.937ZM487.649 448.107C487.098 448.137 486.675 448.609 486.706 449.16C486.736 449.712 487.208 450.134 487.759 450.104L487.649 448.107ZM495.287 450C495.84 450 496.287 449.552 496.287 449C496.287 448.448 495.84 448 495.287 448V450ZM502.822 448C502.269 448 501.822 448.448 501.822 449C501.822 449.552 502.269 450 502.822 450V448ZM510.356 450C510.908 450 511.356 449.552 511.356 449C511.356 448.448 510.908 448 510.356 448V450ZM517.89 448C517.338 448 516.89 448.448 516.89 449C516.89 449.552 517.338 450 517.89 450V448ZM525.424 450C525.977 450 526.424 449.552 526.424 449C526.424 448.448 525.977 448 525.424 448V450ZM532.959 448C532.406 448 531.959 448.448 531.959 449C531.959 449.552 532.406 450 532.959 450V448ZM540.493 450C541.045 450 541.493 449.552 541.493 449C541.493 448.448 541.045 448 540.493 448V450ZM548.027 448C547.475 448 547.027 448.448 547.027 449C547.027 449.552 547.475 450 548.027 450V448ZM555.561 450C556.114 450 556.561 449.552 556.561 449C556.561 448.448 556.114 448 555.561 448V450ZM563.096 448C562.543 448 562.096 448.448 562.096 449C562.096 449.552 562.543 450 563.096 450V448ZM570.63 450C571.182 450 571.63 449.552 571.63 449C571.63 448.448 571.182 448 570.63 448V450ZM578.164 448C577.612 448 577.164 448.448 577.164 449C577.164 449.552 577.612 450 578.164 450V448ZM585.699 450C586.251 450 586.699 449.552 586.699 449C586.699 448.448 586.251 448 585.699 448V450ZM593.233 448C592.681 448 592.233 448.448 592.233 449C592.233 449.552 592.681 450 593.233 450V448ZM283 724V719.737H281V724H283ZM283 711.211V702.684H281V711.211H283ZM283 694.158V685.632H281V694.158H283ZM283 677.106V668.58H281V677.106H283ZM283 660.053V655.79H281V660.053H283ZM283 655.79C283 654.477 283.036 653.172 283.108 651.876L281.111 651.766C281.037 653.098 281 654.44 281 655.79H283ZM283.975 644.1C284.413 641.506 284.994 638.961 285.709 636.473L283.787 635.92C283.051 638.48 282.453 641.098 282.003 643.767L283.975 644.1ZM288.292 629.091C289.296 626.671 290.432 624.32 291.691 622.046L289.941 621.077C288.646 623.416 287.477 625.835 286.445 628.325L288.292 629.091ZM295.859 615.426C297.373 613.296 299.003 611.256 300.74 609.313L299.25 607.98C297.463 609.978 295.786 612.077 294.229 614.267L295.859 615.426ZM306.272 603.781C308.215 602.043 310.256 600.413 312.386 598.899L311.227 597.269C309.037 598.826 306.938 600.503 304.939 602.29L306.272 603.781ZM319.006 594.731C321.279 593.472 323.631 592.336 326.051 591.333L325.285 589.485C322.795 590.518 320.376 591.686 318.037 592.982L319.006 594.731ZM333.432 588.75C335.92 588.034 338.466 587.453 341.059 587.016L340.727 585.043C338.058 585.494 335.44 586.091 332.88 586.828L333.432 588.75ZM348.836 586.148C350.132 586.077 351.436 586.04 352.75 586.04V584.04C351.4 584.04 350.058 584.078 348.726 584.151L348.836 586.148ZM352.75 586.04H353.432V584.04H352.75V586.04ZM354.797 586.04H355.48V584.04H354.797V586.04ZM355.48 586.04C356.779 586.04 358.07 586.004 359.351 585.934L359.241 583.937C357.996 584.005 356.742 584.04 355.48 584.04V586.04ZM367.046 585.075C369.613 584.642 372.132 584.067 374.594 583.359L374.041 581.437C371.651 582.125 369.205 582.683 366.713 583.103L367.046 585.075ZM381.9 580.803C384.295 579.809 386.622 578.685 388.872 577.439L387.903 575.689C385.719 576.899 383.459 577.991 381.134 578.955L381.9 580.803ZM395.423 573.315C397.53 571.817 399.549 570.204 401.472 568.485L400.138 566.994C398.272 568.664 396.311 570.23 394.264 571.684L395.423 573.315ZM406.945 563.012C408.664 561.09 410.277 559.07 411.774 556.964L410.144 555.805C408.69 557.851 407.123 559.812 405.454 561.679L406.945 563.012ZM415.899 550.413C417.145 548.163 418.269 545.836 419.262 543.441L417.415 542.674C416.451 545 415.359 547.259 414.149 549.444L415.899 550.413ZM421.819 536.135C422.527 533.672 423.102 531.153 423.535 528.586L421.563 528.253C421.142 530.746 420.584 533.191 419.897 535.582L421.819 536.135ZM424.393 520.891C424.464 519.61 424.5 518.319 424.5 517.02H422.5C422.5 518.282 422.465 519.536 422.396 520.781L424.393 520.891ZM424.5 517.02C424.5 515.758 424.535 514.504 424.604 513.259L422.607 513.149C422.536 514.43 422.5 515.721 422.5 517.02H424.5ZM425.437 505.787C425.858 503.295 426.416 500.849 427.103 498.459L425.181 497.906C424.473 500.368 423.898 502.887 423.465 505.454L425.437 505.787ZM429.585 491.366C430.549 489.041 431.641 486.781 432.851 484.597L431.101 483.628C429.855 485.878 428.731 488.205 427.738 490.6L429.585 491.366ZM436.856 478.236C438.31 476.189 439.877 474.228 441.546 472.362L440.055 471.028C438.336 472.951 436.723 474.97 435.226 477.077L436.856 478.236ZM446.862 467.046C448.728 465.377 450.689 463.81 452.736 462.356L451.577 460.726C449.47 462.223 447.451 463.836 445.528 465.555L446.862 467.046ZM459.097 458.351C461.281 457.141 463.541 456.049 465.866 455.085L465.1 453.238C462.705 454.231 460.378 455.355 458.128 456.601L459.097 458.351ZM472.959 452.603C475.349 451.916 477.795 451.358 480.287 450.937L479.954 448.965C477.387 449.398 474.868 449.973 472.406 450.681L472.959 452.603ZM487.759 450.104C489.004 450.035 490.258 450 491.52 450V448C490.221 448 488.93 448.036 487.649 448.107L487.759 450.104ZM491.52 450H495.287V448H491.52V450ZM502.822 450H510.356V448H502.822V450ZM517.89 450H525.424V448H517.89V450ZM532.959 450H540.493V448H532.959V450ZM548.027 450H555.561V448H548.027V450ZM563.096 450H570.63V448H563.096V450ZM578.164 450H585.699V448H578.164V450ZM593.233 450H597V448H593.233V450Z" fill="black"/>
<circle cx="282" cy="724" r="65" stroke="#0AC5A8" stroke-width="4"/>
<circle opacity="0.2" cx="282" cy="724" r="51.3158" fill="#0AC5A8"/>
<circle cx="282.368" cy="724.368" r="27.3684" fill="#0AC5A8"/>
<path d="M292.438 736.023V737H270.562V736.023C270.562 735.7 270.825 735.438 271.148 735.438H272.125V717.859C272.125 717.212 272.65 716.688 273.297 716.688H277.594V713.172C277.594 712.525 278.118 712 278.766 712H284.234C284.882 712 285.406 712.525 285.406 713.172V716.688H289.703C290.35 716.688 290.875 717.212 290.875 717.859V735.438H291.852C292.175 735.438 292.438 735.7 292.438 736.023ZM285.602 721.375H283.648C283.325 721.375 283.062 721.637 283.062 721.961V723.914C283.062 724.238 283.325 724.5 283.648 724.5H285.602C285.925 724.5 286.188 724.238 286.188 723.914V721.961C286.188 721.637 285.925 721.375 285.602 721.375ZM277.398 724.5H279.352C279.675 724.5 279.938 724.238 279.938 723.914V721.961C279.938 721.637 279.675 721.375 279.352 721.375H277.398C277.075 721.375 276.812 721.637 276.812 721.961V723.914C276.812 724.238 277.075 724.5 277.398 724.5ZM282.477 730.75H280.523C280.2 730.75 279.938 731.012 279.938 731.336V735.438H283.062V731.336C283.062 731.012 282.8 730.75 282.477 730.75ZM285.602 726.062H283.648C283.325 726.062 283.062 726.325 283.062 726.648V728.602C283.062 728.925 283.325 729.188 283.648 729.188H285.602C285.925 729.188 286.188 728.925 286.188 728.602V726.648C286.188 726.325 285.925 726.062 285.602 726.062ZM279.938 726.648C279.938 726.325 279.675 726.062 279.352 726.062H277.398C277.075 726.062 276.812 726.325 276.812 726.648V728.602C276.812 728.925 277.075 729.188 277.398 729.188H279.352C279.675 729.188 279.938 728.925 279.938 728.602V726.648ZM279.449 716.688H280.719V717.957C280.719 718.035 280.75 718.109 280.805 718.164C280.86 718.219 280.934 718.25 281.012 718.25H281.988C282.066 718.25 282.14 718.219 282.195 718.164C282.25 718.109 282.281 718.035 282.281 717.957V716.688H283.551C283.628 716.688 283.703 716.657 283.758 716.602C283.813 716.547 283.844 716.472 283.844 716.395V715.418C283.844 715.34 283.813 715.266 283.758 715.211C283.703 715.156 283.628 715.125 283.551 715.125H282.281V713.855C282.281 713.778 282.25 713.703 282.195 713.648C282.14 713.593 282.066 713.562 281.988 713.562H281.012C280.934 713.562 280.86 713.593 280.805 713.648C280.75 713.703 280.719 713.778 280.719 713.855V715.125H279.449C279.372 715.125 279.297 715.156 279.242 715.211C279.187 715.266 279.156 715.34 279.156 715.418V716.395C279.156 716.472 279.187 716.547 279.242 716.602C279.297 716.657 279.372 716.688 279.449 716.688Z" fill="white"/>
<path d="M597.707 392.707C598.098 392.317 598.098 391.683 597.707 391.293L591.343 384.929C590.953 384.538 590.319 384.538 589.929 384.929C589.538 385.319 589.538 385.953 589.929 386.343L595.586 392L589.929 397.657C589.538 398.047 589.538 398.681 589.929 399.071C590.319 399.462 590.953 399.462 591.343 399.071L597.707 392.707ZM263.314 439.5C263.314 440.052 263.762 440.5 264.314 440.5C264.866 440.5 265.314 440.052 265.314 439.5H263.314ZM265.314 439.5C265.314 438.948 264.866 438.5 264.314 438.5C263.762 438.5 263.314 438.948 263.314 439.5H265.314ZM71.1615 488C71.7138 488 72.1615 487.552 72.1615 487C72.1615 486.448 71.7138 486 71.1615 486V488ZM79.4845 486C78.9322 486 78.4845 486.448 78.4845 487C78.4845 487.552 78.9322 488 79.4845 488V486ZM87.8075 488C88.3598 488 88.8075 487.552 88.8075 487C88.8075 486.448 88.3598 486 87.8075 486V488ZM96.1305 486C95.5782 486 95.1305 486.448 95.1305 487C95.1305 487.552 95.5782 488 96.1305 488V486ZM104.453 488C105.006 488 105.453 487.552 105.453 487C105.453 486.448 105.006 486 104.453 486V488ZM112.776 486C112.224 486 111.776 486.448 111.776 487C111.776 487.552 112.224 488 112.776 488V486ZM121.099 488C121.652 488 122.099 487.552 122.099 487C122.099 486.448 121.652 486 121.099 486V488ZM129.422 486C128.87 486 128.422 486.448 128.422 487C128.422 487.552 128.87 488 129.422 488V486ZM137.745 488C138.298 488 138.745 487.552 138.745 487C138.745 486.448 138.298 486 137.745 486V488ZM146.068 486C145.516 486 145.068 486.448 145.068 487C145.068 487.552 145.516 488 146.068 488V486ZM154.391 488C154.944 488 155.391 487.552 155.391 487C155.391 486.448 154.944 486 154.391 486V488ZM162.714 486C162.162 486 161.714 486.448 161.714 487C161.714 487.552 162.162 488 162.714 488V486ZM171.037 488C171.59 488 172.037 487.552 172.037 487C172.037 486.448 171.59 486 171.037 486V488ZM179.36 486C178.808 486 178.36 486.448 178.36 487C178.36 487.552 178.808 488 179.36 488V486ZM187.683 488C188.236 488 188.683 487.552 188.683 487C188.683 486.448 188.236 486 187.683 486V488ZM196.006 486C195.454 486 195.006 486.448 195.006 487C195.006 487.552 195.454 488 196.006 488V486ZM204.329 488C204.882 488 205.329 487.552 205.329 487C205.329 486.448 204.882 486 204.329 486V488ZM212.652 486C212.1 486 211.652 486.448 211.652 487C211.652 487.552 212.1 488 212.652 488V486ZM220.622 487.853C221.172 487.81 221.584 487.329 221.541 486.778C221.499 486.228 221.018 485.816 220.467 485.859L220.622 487.853ZM227.675 484.725C227.138 484.854 226.806 485.393 226.935 485.93C227.063 486.467 227.603 486.799 228.14 486.67L227.675 484.725ZM235.379 484.319C235.89 484.108 236.132 483.523 235.92 483.013C235.708 482.502 235.123 482.26 234.613 482.472L235.379 484.319ZM241.112 479.154C240.642 479.443 240.494 480.059 240.783 480.53C241.072 481 241.688 481.148 242.159 480.859L241.112 479.154ZM248.313 476.38C248.733 476.021 248.782 475.39 248.423 474.97C248.064 474.551 247.433 474.501 247.013 474.86L248.313 476.38ZM252.174 469.699C251.815 470.119 251.864 470.75 252.284 471.109C252.704 471.468 253.335 471.419 253.694 470.999L252.174 469.699ZM258.173 464.845C258.462 464.374 258.314 463.758 257.844 463.469C257.373 463.18 256.757 463.328 256.468 463.798L258.173 464.845ZM259.786 457.299C259.574 457.81 259.816 458.395 260.326 458.606C260.837 458.818 261.422 458.576 261.633 458.065L259.786 457.299ZM263.984 450.826C264.113 450.289 263.781 449.749 263.244 449.621C262.707 449.492 262.167 449.824 262.039 450.361L263.984 450.826ZM263.173 443.153C263.13 443.704 263.541 444.185 264.092 444.227C264.643 444.27 265.124 443.859 265.167 443.308L263.173 443.153ZM265.455 435.847C265.498 435.296 265.086 434.815 264.536 434.773C263.985 434.73 263.504 435.141 263.461 435.692L265.455 435.847ZM264.644 428.174C264.515 428.711 264.846 429.251 265.384 429.379C265.921 429.508 266.46 429.176 266.589 428.639L264.644 428.174ZM268.842 421.701C269.053 421.19 268.811 420.605 268.301 420.394C267.791 420.182 267.206 420.424 266.994 420.935L268.842 421.701ZM270.455 414.155C270.166 414.626 270.313 415.242 270.784 415.531C271.255 415.82 271.87 415.672 272.159 415.202L270.455 414.155ZM276.454 409.301C276.813 408.881 276.763 408.25 276.343 407.891C275.924 407.532 275.292 407.581 274.934 408.001L276.454 409.301ZM280.315 402.62C279.895 402.979 279.846 403.61 280.205 404.03C280.563 404.449 281.195 404.499 281.615 404.14L280.315 402.62ZM287.516 399.846C287.986 399.557 288.133 398.941 287.844 398.47C287.555 398 286.94 397.852 286.469 398.141L287.516 399.846ZM293.248 394.681C292.738 394.892 292.496 395.477 292.708 395.987C292.919 396.498 293.504 396.74 294.014 396.528L293.248 394.681ZM300.953 394.275C301.49 394.146 301.821 393.607 301.693 393.07C301.564 392.533 301.025 392.201 300.488 392.33L300.953 394.275ZM308.006 391.147C307.455 391.19 307.044 391.671 307.086 392.222C307.129 392.772 307.61 393.184 308.161 393.141L308.006 391.147ZM315.775 393C316.327 393 316.775 392.552 316.775 392C316.775 391.448 316.327 391 315.775 391V393ZM323.697 391C323.144 391 322.697 391.448 322.697 392C322.697 392.552 323.144 393 323.697 393V391ZM331.618 393C332.171 393 332.618 392.552 332.618 392C332.618 391.448 332.171 391 331.618 391V393ZM339.54 391C338.988 391 338.54 391.448 338.54 392C338.54 392.552 338.988 393 339.54 393V391ZM347.462 393C348.014 393 348.462 392.552 348.462 392C348.462 391.448 348.014 391 347.462 391V393ZM355.384 391C354.832 391 354.384 391.448 354.384 392C354.384 392.552 354.832 393 355.384 393V391ZM363.306 393C363.858 393 364.306 392.552 364.306 392C364.306 391.448 363.858 391 363.306 391V393ZM371.228 391C370.675 391 370.228 391.448 370.228 392C370.228 392.552 370.675 393 371.228 393V391ZM379.149 393C379.702 393 380.149 392.552 380.149 392C380.149 391.448 379.702 391 379.149 391V393ZM387.071 391C386.519 391 386.071 391.448 386.071 392C386.071 392.552 386.519 393 387.071 393V391ZM394.993 393C395.545 393 395.993 392.552 395.993 392C395.993 391.448 395.545 391 394.993 391V393ZM402.915 391C402.363 391 401.915 391.448 401.915 392C401.915 392.552 402.363 393 402.915 393V391ZM410.837 393C411.389 393 411.837 392.552 411.837 392C411.837 391.448 411.389 391 410.837 391V393ZM418.759 391C418.206 391 417.759 391.448 417.759 392C417.759 392.552 418.206 393 418.759 393V391ZM426.68 393C427.233 393 427.68 392.552 427.68 392C427.68 391.448 427.233 391 426.68 391V393ZM434.602 391C434.05 391 433.602 391.448 433.602 392C433.602 392.552 434.05 393 434.602 393V391ZM442.524 393C443.076 393 443.524 392.552 443.524 392C443.524 391.448 443.076 391 442.524 391V393ZM450.446 391C449.894 391 449.446 391.448 449.446 392C449.446 392.552 449.894 393 450.446 393V391ZM458.368 393C458.92 393 459.368 392.552 459.368 392C459.368 391.448 458.92 391 458.368 391V393ZM466.29 391C465.737 391 465.29 391.448 465.29 392C465.29 392.552 465.737 393 466.29 393V391ZM474.212 393C474.764 393 475.212 392.552 475.212 392C475.212 391.448 474.764 391 474.212 391V393ZM482.133 391C481.581 391 481.133 391.448 481.133 392C481.133 392.552 481.581 393 482.133 393V391ZM490.055 393C490.608 393 491.055 392.552 491.055 392C491.055 391.448 490.608 391 490.055 391V393ZM497.977 391C497.425 391 496.977 391.448 496.977 392C496.977 392.552 497.425 393 497.977 393V391ZM505.899 393C506.451 393 506.899 392.552 506.899 392C506.899 391.448 506.451 391 505.899 391V393ZM513.821 391C513.268 391 512.821 391.448 512.821 392C512.821 392.552 513.268 393 513.821 393V391ZM521.743 393C522.295 393 522.743 392.552 522.743 392C522.743 391.448 522.295 391 521.743 391V393ZM529.664 391C529.112 391 528.664 391.448 528.664 392C528.664 392.552 529.112 393 529.664 393V391ZM537.586 393C538.139 393 538.586 392.552 538.586 392C538.586 391.448 538.139 391 537.586 391V393ZM545.508 391C544.956 391 544.508 391.448 544.508 392C544.508 392.552 544.956 393 545.508 393V391ZM553.43 393C553.982 393 554.43 392.552 554.43 392C554.43 391.448 553.982 391 553.43 391V393ZM561.352 391C560.8 391 560.352 391.448 560.352 392C560.352 392.552 560.8 393 561.352 393V391ZM569.274 393C569.826 393 570.274 392.552 570.274 392C570.274 391.448 569.826 391 569.274 391V393ZM577.196 391C576.643 391 576.196 391.448 576.196 392C576.196 392.552 576.643 393 577.196 393V391ZM585.117 393C585.67 393 586.117 392.552 586.117 392C586.117 391.448 585.67 391 585.117 391V393ZM593.039 391C592.487 391 592.039 391.448 592.039 392C592.039 392.552 592.487 393 593.039 393V391ZM67 488H71.1615V486H67V488ZM79.4845 488H87.8075V486H79.4845V488ZM96.1305 488H104.453V486H96.1305V488ZM112.776 488H121.099V486H112.776V488ZM129.422 488H137.745V486H129.422V488ZM146.068 488H154.391V486H146.068V488ZM162.714 488H171.037V486H162.714V488ZM179.36 488H187.683V486H179.36V488ZM196.006 488H204.329V486H196.006V488ZM212.652 488H216.814V486H212.652V488ZM216.814 488C218.095 488 219.365 487.95 220.622 487.853L220.467 485.859C219.262 485.952 218.043 486 216.814 486V488ZM228.14 486.67C230.633 486.074 233.052 485.284 235.379 484.319L234.613 482.472C232.383 483.397 230.064 484.153 227.675 484.725L228.14 486.67ZM242.159 480.859C244.329 479.526 246.386 478.027 248.313 476.38L247.013 474.86C245.166 476.439 243.193 477.877 241.112 479.154L242.159 480.859ZM253.694 470.999C255.341 469.072 256.84 467.015 258.173 464.845L256.468 463.798C255.19 465.879 253.753 467.852 252.174 469.699L253.694 470.999ZM261.633 458.065C262.598 455.738 263.387 453.32 263.984 450.826L262.039 450.361C261.467 452.751 260.711 455.069 259.786 457.299L261.633 458.065ZM265.167 443.308C265.264 442.051 265.314 440.781 265.314 439.5H263.314C263.314 440.73 263.266 441.948 263.173 443.153L265.167 443.308ZM265.314 439.5C265.314 438.27 265.362 437.052 265.455 435.847L263.461 435.692C263.364 436.949 263.314 438.219 263.314 439.5H265.314ZM266.589 428.639C267.161 426.249 267.917 423.931 268.842 421.701L266.994 420.935C266.029 423.262 265.24 425.68 264.644 428.174L266.589 428.639ZM272.159 415.202C273.437 413.121 274.874 411.148 276.454 409.301L274.934 408.001C273.287 409.928 271.788 411.985 270.455 414.155L272.159 415.202ZM281.615 404.14C283.462 402.561 285.435 401.123 287.516 399.846L286.469 398.141C284.299 399.474 282.241 400.973 280.315 402.62L281.615 404.14ZM294.014 396.528C296.245 395.603 298.563 394.847 300.953 394.275L300.488 392.33C297.994 392.926 295.576 393.716 293.248 394.681L294.014 396.528ZM308.161 393.141C309.366 393.048 310.584 393 311.814 393V391C310.533 391 309.263 391.05 308.006 391.147L308.161 393.141ZM311.814 393H315.775V391H311.814V393ZM323.697 393H331.618V391H323.697V393ZM339.54 393H347.462V391H339.54V393ZM355.384 393H363.306V391H355.384V393ZM371.228 393H379.149V391H371.228V393ZM387.071 393H394.993V391H387.071V393ZM402.915 393H410.837V391H402.915V393ZM418.759 393H426.68V391H418.759V393ZM434.602 393H442.524V391H434.602V393ZM450.446 393H458.368V391H450.446V393ZM466.29 393H474.212V391H466.29V393ZM482.133 393H490.055V391H482.133V393ZM497.977 393H505.899V391H497.977V393ZM513.821 393H521.743V391H513.821V393ZM529.664 393H537.586V391H529.664V393ZM545.508 393H553.43V391H545.508V393ZM561.352 393H569.274V391H561.352V393ZM577.196 393H585.117V391H577.196V393ZM593.039 393H597V391H593.039V393Z" fill="black"/>
<circle cx="67" cy="487" r="65" stroke="#0AC5A8" stroke-width="4"/>
<circle opacity="0.2" cx="67" cy="487" r="51.3158" fill="#0AC5A8"/>
<circle cx="67.3684" cy="487.368" r="27.3684" fill="#0AC5A8"/>
<g clip-path="url(#clip4_537_1257)">
<path d="M76.8311 479.469C75.1611 479.493 73.7891 480.856 73.7549 482.525C73.7305 483.712 74.3652 484.752 75.3174 485.299V490.797C75.3174 493.595 72.8662 495.875 69.8486 495.875C66.9189 495.875 64.5166 493.722 64.3848 491.031C67.9395 490.299 70.625 487.145 70.625 483.375V475.787C70.625 475.231 70.2295 474.747 69.6826 474.64L66.6113 474.025C65.9766 473.898 65.3613 474.308 65.2344 474.942L65.0781 475.709C64.9512 476.344 65.3613 476.959 65.9961 477.086L67.4951 477.384V483.312C67.4951 485.895 65.4346 488.033 62.8516 488.058C60.2441 488.082 58.1201 485.973 58.1201 483.37V477.389L59.6191 477.091C60.2539 476.964 60.6641 476.349 60.5371 475.714L60.3857 474.947C60.2588 474.313 59.6436 473.902 59.0088 474.029L55.9424 474.635C55.3955 474.747 55 475.226 55 475.787V483.375C55 487.15 57.6904 490.309 61.2549 491.031C61.3818 495.445 65.1855 499 69.8438 499C74.5801 499 78.4375 495.318 78.4375 490.797V485.299C79.3701 484.757 80 483.751 80 482.594C80 480.851 78.5742 479.444 76.8311 479.469ZM76.875 483.375C76.4453 483.375 76.0938 483.024 76.0938 482.594C76.0938 482.164 76.4453 481.813 76.875 481.813C77.3047 481.813 77.6562 482.164 77.6562 482.594C77.6562 483.024 77.3047 483.375 76.875 483.375Z" fill="white"/>
</g>
<path d="M154.5 493.333C153.027 493.333 151.833 494.527 151.833 496C151.833 497.473 153.027 498.667 154.5 498.667C155.973 498.667 157.167 497.473 157.167 496C157.167 494.527 155.973 493.333 154.5 493.333ZM154 496L154 591L155 591L155 496L154 496Z" fill="#0AC5A8"/>
<path d="M119.64 611V596.9H124.62C126.94 596.9 128.727 597.507 129.98 598.72C131.247 599.933 131.88 601.673 131.88 603.94C131.88 606.207 131.247 607.953 129.98 609.18C128.727 610.393 126.94 611 124.62 611H119.64ZM121.72 609.26H124.5C127.98 609.26 129.72 607.487 129.72 603.94C129.72 600.407 127.98 598.64 124.5 598.64H121.72V609.26ZM138.68 611.18C137.693 611.18 136.84 610.973 136.12 610.56C135.4 610.147 134.84 609.567 134.44 608.82C134.053 608.06 133.86 607.16 133.86 606.12C133.86 605.08 134.053 604.187 134.44 603.44C134.84 602.68 135.4 602.093 136.12 601.68C136.84 601.267 137.693 601.06 138.68 601.06C139.64 601.06 140.48 601.267 141.2 601.68C141.92 602.093 142.48 602.68 142.88 603.44C143.28 604.187 143.48 605.08 143.48 606.12C143.48 607.16 143.28 608.06 142.88 608.82C142.48 609.567 141.92 610.147 141.2 610.56C140.48 610.973 139.64 611.18 138.68 611.18ZM138.68 609.62C139.506 609.62 140.173 609.32 140.68 608.72C141.186 608.12 141.44 607.253 141.44 606.12C141.44 604.987 141.186 604.127 140.68 603.54C140.173 602.94 139.506 602.64 138.68 602.64C137.84 602.64 137.166 602.94 136.66 603.54C136.153 604.127 135.9 604.987 135.9 606.12C135.9 607.253 136.153 608.12 136.66 608.72C137.166 609.32 137.84 609.62 138.68 609.62ZM150.048 611.18C149.048 611.18 148.181 610.973 147.448 610.56C146.728 610.133 146.168 609.54 145.768 608.78C145.368 608.007 145.168 607.1 145.168 606.06C145.168 604.513 145.608 603.293 146.488 602.4C147.368 601.507 148.555 601.06 150.048 601.06C150.661 601.06 151.268 601.167 151.868 601.38C152.468 601.593 152.961 601.887 153.348 602.26L152.708 603.68C152.335 603.333 151.921 603.08 151.468 602.92C151.028 602.747 150.608 602.66 150.208 602.66C149.261 602.66 148.528 602.96 148.008 603.56C147.501 604.147 147.248 604.987 147.248 606.08C147.248 607.173 147.501 608.033 148.008 608.66C148.528 609.273 149.261 609.58 150.208 609.58C150.608 609.58 151.028 609.5 151.468 609.34C151.921 609.167 152.335 608.907 152.708 608.56L153.348 610C152.961 610.36 152.461 610.647 151.848 610.86C151.248 611.073 150.648 611.18 150.048 611.18ZM159.264 611.18C158.037 611.18 157.124 610.867 156.524 610.24C155.924 609.613 155.624 608.707 155.624 607.52V602.8H153.724V601.24H155.624V598.3H157.644V601.24H160.664V602.8H157.644V607.36C157.644 608.067 157.79 608.6 158.084 608.96C158.39 609.32 158.884 609.5 159.564 609.5C159.777 609.5 159.984 609.48 160.184 609.44C160.384 609.387 160.584 609.327 160.784 609.26L161.104 610.78C160.904 610.9 160.624 610.993 160.264 611.06C159.917 611.14 159.584 611.18 159.264 611.18ZM166.551 611.18C165.564 611.18 164.711 610.973 163.991 610.56C163.271 610.147 162.711 609.567 162.311 608.82C161.924 608.06 161.731 607.16 161.731 606.12C161.731 605.08 161.924 604.187 162.311 603.44C162.711 602.68 163.271 602.093 163.991 601.68C164.711 601.267 165.564 601.06 166.551 601.06C167.511 601.06 168.351 601.267 169.071 601.68C169.791 602.093 170.351 602.68 170.751 603.44C171.151 604.187 171.351 605.08 171.351 606.12C171.351 607.16 171.151 608.06 170.751 608.82C170.351 609.567 169.791 610.147 169.071 610.56C168.351 610.973 167.511 611.18 166.551 611.18ZM166.551 609.62C167.377 609.62 168.044 609.32 168.551 608.72C169.057 608.12 169.311 607.253 169.311 606.12C169.311 604.987 169.057 604.127 168.551 603.54C168.044 602.94 167.377 602.64 166.551 602.64C165.711 602.64 165.037 602.94 164.531 603.54C164.024 604.127 163.771 604.987 163.771 606.12C163.771 607.253 164.024 608.12 164.531 608.72C165.037 609.32 165.711 609.62 166.551 609.62ZM173.619 611V601.24H175.579V602.98C176.086 601.82 177.139 601.173 178.739 601.04L179.399 601L179.539 602.72L178.319 602.84C176.546 603.013 175.659 603.927 175.659 605.58V611H173.619ZM184.403 611.18C183.603 611.18 182.856 611.08 182.163 610.88C181.469 610.667 180.889 610.373 180.423 610L181.003 608.64C181.496 608.987 182.036 609.253 182.623 609.44C183.223 609.627 183.823 609.72 184.423 609.72C185.129 609.72 185.663 609.593 186.023 609.34C186.383 609.087 186.563 608.747 186.563 608.32C186.563 607.973 186.443 607.707 186.203 607.52C185.963 607.32 185.603 607.167 185.123 607.06L183.223 606.68C181.543 606.333 180.703 605.467 180.703 604.08C180.703 603.16 181.069 602.427 181.803 601.88C182.536 601.333 183.496 601.06 184.683 601.06C185.363 601.06 186.009 601.16 186.623 601.36C187.249 601.56 187.769 601.86 188.183 602.26L187.603 603.62C187.203 603.273 186.743 603.007 186.223 602.82C185.703 602.633 185.189 602.54 184.683 602.54C183.989 602.54 183.463 602.673 183.103 602.94C182.743 603.193 182.563 603.54 182.563 603.98C182.563 604.647 183.003 605.073 183.883 605.26L185.783 605.64C186.649 605.813 187.303 606.107 187.743 606.52C188.196 606.933 188.423 607.493 188.423 608.2C188.423 609.133 188.056 609.867 187.323 610.4C186.589 610.92 185.616 611.18 184.403 611.18Z" fill="#2C3C5B"/>
<path d="M347.966 792V777.9H350.046V783.98H357.946V777.9H360.006V792H357.946V785.72H350.046V792H347.966ZM367.318 792.18C366.332 792.18 365.478 791.973 364.758 791.56C364.038 791.147 363.478 790.567 363.078 789.82C362.692 789.06 362.498 788.16 362.498 787.12C362.498 786.08 362.692 785.187 363.078 784.44C363.478 783.68 364.038 783.093 364.758 782.68C365.478 782.267 366.332 782.06 367.318 782.06C368.278 782.06 369.118 782.267 369.838 782.68C370.558 783.093 371.118 783.68 371.518 784.44C371.918 785.187 372.118 786.08 372.118 787.12C372.118 788.16 371.918 789.06 371.518 789.82C371.118 790.567 370.558 791.147 369.838 791.56C369.118 791.973 368.278 792.18 367.318 792.18ZM367.318 790.62C368.145 790.62 368.812 790.32 369.318 789.72C369.825 789.12 370.078 788.253 370.078 787.12C370.078 785.987 369.825 785.127 369.318 784.54C368.812 783.94 368.145 783.64 367.318 783.64C366.478 783.64 365.805 783.94 365.298 784.54C364.792 785.127 364.538 785.987 364.538 787.12C364.538 788.253 364.792 789.12 365.298 789.72C365.805 790.32 366.478 790.62 367.318 790.62ZM377.807 792.18C377.007 792.18 376.26 792.08 375.567 791.88C374.873 791.667 374.293 791.373 373.827 791L374.407 789.64C374.9 789.987 375.44 790.253 376.027 790.44C376.627 790.627 377.227 790.72 377.827 790.72C378.533 790.72 379.067 790.593 379.427 790.34C379.787 790.087 379.967 789.747 379.967 789.32C379.967 788.973 379.847 788.707 379.607 788.52C379.367 788.32 379.007 788.167 378.527 788.06L376.627 787.68C374.947 787.333 374.107 786.467 374.107 785.08C374.107 784.16 374.473 783.427 375.207 782.88C375.94 782.333 376.9 782.06 378.087 782.06C378.767 782.06 379.413 782.16 380.027 782.36C380.653 782.56 381.173 782.86 381.587 783.26L381.007 784.62C380.607 784.273 380.147 784.007 379.627 783.82C379.107 783.633 378.593 783.54 378.087 783.54C377.393 783.54 376.867 783.673 376.507 783.94C376.147 784.193 375.967 784.54 375.967 784.98C375.967 785.647 376.407 786.073 377.287 786.26L379.187 786.64C380.053 786.813 380.707 787.107 381.147 787.52C381.6 787.933 381.827 788.493 381.827 789.2C381.827 790.133 381.46 790.867 380.727 791.4C379.993 791.92 379.02 792.18 377.807 792.18ZM384.074 795.6V782.24H386.054V783.9C386.334 783.34 386.761 782.893 387.334 782.56C387.908 782.227 388.568 782.06 389.314 782.06C390.181 782.06 390.934 782.267 391.574 782.68C392.228 783.093 392.728 783.68 393.074 784.44C393.434 785.187 393.614 786.08 393.614 787.12C393.614 788.16 393.434 789.06 393.074 789.82C392.728 790.58 392.228 791.167 391.574 791.58C390.934 791.98 390.181 792.18 389.314 792.18C388.594 792.18 387.948 792.027 387.374 791.72C386.814 791.4 386.388 790.967 386.094 790.42V795.6H384.074ZM388.814 790.62C389.654 790.62 390.321 790.32 390.814 789.72C391.321 789.12 391.574 788.253 391.574 787.12C391.574 785.987 391.321 785.127 390.814 784.54C390.321 783.94 389.654 783.64 388.814 783.64C387.974 783.64 387.301 783.94 386.794 784.54C386.301 785.127 386.054 785.987 386.054 787.12C386.054 788.253 386.301 789.12 386.794 789.72C387.301 790.32 387.974 790.62 388.814 790.62ZM395.711 779.98V777.88H398.071V779.98H395.711ZM395.891 792V782.24H397.911V792H395.891ZM404.914 792.18C403.687 792.18 402.774 791.867 402.174 791.24C401.574 790.613 401.274 789.707 401.274 788.52V783.8H399.374V782.24H401.274V779.3H403.294V782.24H406.314V783.8H403.294V788.36C403.294 789.067 403.441 789.6 403.734 789.96C404.041 790.32 404.534 790.5 405.214 790.5C405.427 790.5 405.634 790.48 405.834 790.44C406.034 790.387 406.234 790.327 406.434 790.26L406.754 791.78C406.554 791.9 406.274 791.993 405.914 792.06C405.567 792.14 405.234 792.18 404.914 792.18ZM411.179 792.18C410.499 792.18 409.892 792.047 409.359 791.78C408.825 791.513 408.399 791.153 408.079 790.7C407.772 790.247 407.619 789.733 407.619 789.16C407.619 788.44 407.799 787.873 408.159 787.46C408.532 787.047 409.139 786.747 409.979 786.56C410.832 786.373 411.979 786.28 413.419 786.28H414.099V785.76C414.099 785 413.939 784.453 413.619 784.12C413.299 783.787 412.772 783.62 412.039 783.62C411.479 783.62 410.919 783.707 410.359 783.88C409.799 784.04 409.225 784.3 408.639 784.66L408.019 783.24C408.525 782.88 409.159 782.593 409.919 782.38C410.679 782.167 411.405 782.06 412.099 782.06C413.432 782.06 414.419 782.38 415.059 783.02C415.699 783.647 416.019 784.633 416.019 785.98V792H414.119V790.38C413.879 790.94 413.505 791.38 412.999 791.7C412.492 792.02 411.885 792.18 411.179 792.18ZM411.579 790.74C412.299 790.74 412.899 790.487 413.379 789.98C413.859 789.473 414.099 788.833 414.099 788.06V787.52H413.439C412.465 787.52 411.699 787.567 411.139 787.66C410.592 787.753 410.199 787.913 409.959 788.14C409.732 788.353 409.619 788.653 409.619 789.04C409.619 789.547 409.792 789.96 410.139 790.28C410.485 790.587 410.965 790.74 411.579 790.74ZM421.981 792.18C420.914 792.18 420.114 791.88 419.581 791.28C419.061 790.68 418.801 789.8 418.801 788.64V777.9H420.821V788.52C420.821 789.84 421.361 790.5 422.441 790.5C422.601 790.5 422.748 790.493 422.881 790.48C423.028 790.467 423.174 790.44 423.321 790.4L423.281 792.02C422.828 792.127 422.394 792.18 421.981 792.18ZM435.088 792.18C433.981 792.18 432.968 792.04 432.048 791.76C431.128 791.467 430.348 791.06 429.708 790.54L430.368 788.9C431.035 789.407 431.748 789.787 432.508 790.04C433.268 790.293 434.128 790.42 435.088 790.42C436.221 790.42 437.055 790.22 437.588 789.82C438.135 789.407 438.408 788.873 438.408 788.22C438.408 787.687 438.215 787.267 437.828 786.96C437.441 786.64 436.795 786.387 435.888 786.2L433.748 785.76C432.481 785.493 431.535 785.053 430.908 784.44C430.295 783.827 429.988 783 429.988 781.96C429.988 781.12 430.208 780.38 430.648 779.74C431.101 779.1 431.728 778.607 432.528 778.26C433.328 777.9 434.248 777.72 435.288 777.72C436.248 777.72 437.135 777.867 437.948 778.16C438.775 778.44 439.475 778.853 440.048 779.4L439.368 780.98C438.235 779.98 436.868 779.48 435.268 779.48C434.281 779.48 433.495 779.7 432.908 780.14C432.335 780.58 432.048 781.167 432.048 781.9C432.048 782.46 432.228 782.907 432.588 783.24C432.948 783.573 433.548 783.827 434.388 784L436.508 784.44C437.841 784.72 438.835 785.153 439.488 785.74C440.141 786.313 440.468 787.093 440.468 788.08C440.468 788.907 440.248 789.627 439.808 790.24C439.368 790.853 438.748 791.333 437.948 791.68C437.148 792.013 436.195 792.18 435.088 792.18ZM446.711 792.18C445.484 792.18 444.571 791.867 443.971 791.24C443.371 790.613 443.071 789.707 443.071 788.52V783.8H441.171V782.24H443.071V779.3H445.091V782.24H448.111V783.8H445.091V788.36C445.091 789.067 445.238 789.6 445.531 789.96C445.838 790.32 446.331 790.5 447.011 790.5C447.224 790.5 447.431 790.48 447.631 790.44C447.831 790.387 448.031 790.327 448.231 790.26L448.551 791.78C448.351 791.9 448.071 791.993 447.711 792.06C447.364 792.14 447.031 792.18 446.711 792.18ZM452.976 792.18C452.296 792.18 451.689 792.047 451.156 791.78C450.622 791.513 450.196 791.153 449.876 790.7C449.569 790.247 449.416 789.733 449.416 789.16C449.416 788.44 449.596 787.873 449.956 787.46C450.329 787.047 450.936 786.747 451.776 786.56C452.629 786.373 453.776 786.28 455.216 786.28H455.896V785.76C455.896 785 455.736 784.453 455.416 784.12C455.096 783.787 454.569 783.62 453.836 783.62C453.276 783.62 452.716 783.707 452.156 783.88C451.596 784.04 451.022 784.3 450.436 784.66L449.816 783.24C450.322 782.88 450.956 782.593 451.716 782.38C452.476 782.167 453.202 782.06 453.896 782.06C455.229 782.06 456.216 782.38 456.856 783.02C457.496 783.647 457.816 784.633 457.816 785.98V792H455.916V790.38C455.676 790.94 455.302 791.38 454.796 791.7C454.289 792.02 453.682 792.18 452.976 792.18ZM453.376 790.74C454.096 790.74 454.696 790.487 455.176 789.98C455.656 789.473 455.896 788.833 455.896 788.06V787.52H455.236C454.262 787.52 453.496 787.567 452.936 787.66C452.389 787.753 451.996 787.913 451.756 788.14C451.529 788.353 451.416 788.653 451.416 789.04C451.416 789.547 451.589 789.96 451.936 790.28C452.282 790.587 452.762 790.74 453.376 790.74ZM461.178 792V783.8H459.278V782.24H461.178V782.06C461.178 780.713 461.518 779.7 462.198 779.02C462.891 778.34 463.951 777.96 465.378 777.88L466.258 777.82L466.398 779.34L465.478 779.4C464.664 779.453 464.078 779.673 463.718 780.06C463.371 780.447 463.198 781.02 463.198 781.78V782.24H465.938V783.8H463.198V792H461.178ZM467.74 792V783.8H465.84V782.24H467.74V782.06C467.74 780.713 468.08 779.7 468.76 779.02C469.454 778.34 470.514 777.96 471.94 777.88L472.82 777.82L472.96 779.34L472.04 779.4C471.227 779.453 470.64 779.673 470.28 780.06C469.934 780.447 469.76 781.02 469.76 781.78V782.24H472.5V783.8H469.76V792H467.74Z" fill="#2C3C5B"/>
<path d="M1180.95 681V666.9H1186.83C1188.3 666.9 1189.43 667.227 1190.23 667.88C1191.04 668.52 1191.45 669.42 1191.45 670.58C1191.45 671.34 1191.25 671.993 1190.85 672.54C1190.45 673.087 1189.9 673.487 1189.21 673.74C1190.02 673.953 1190.66 674.347 1191.11 674.92C1191.56 675.493 1191.79 676.22 1191.79 677.1C1191.79 678.353 1191.37 679.32 1190.53 680C1189.7 680.667 1188.55 681 1187.07 681H1180.95ZM1182.95 673.06H1186.51C1188.46 673.06 1189.43 672.3 1189.43 670.78C1189.43 669.26 1188.46 668.5 1186.51 668.5H1182.95V673.06ZM1182.95 679.4H1186.83C1188.79 679.4 1189.77 678.607 1189.77 677.02C1189.77 675.447 1188.79 674.66 1186.83 674.66H1182.95V679.4ZM1197.54 681.18C1196.48 681.18 1195.68 680.88 1195.14 680.28C1194.62 679.68 1194.36 678.8 1194.36 677.64V666.9H1196.38V677.52C1196.38 678.84 1196.92 679.5 1198 679.5C1198.16 679.5 1198.31 679.493 1198.44 679.48C1198.59 679.467 1198.74 679.44 1198.88 679.4L1198.84 681.02C1198.39 681.127 1197.96 681.18 1197.54 681.18ZM1204.62 681.18C1203.63 681.18 1202.78 680.973 1202.06 680.56C1201.34 680.147 1200.78 679.567 1200.38 678.82C1199.99 678.06 1199.8 677.16 1199.8 676.12C1199.8 675.08 1199.99 674.187 1200.38 673.44C1200.78 672.68 1201.34 672.093 1202.06 671.68C1202.78 671.267 1203.63 671.06 1204.62 671.06C1205.58 671.06 1206.42 671.267 1207.14 671.68C1207.86 672.093 1208.42 672.68 1208.82 673.44C1209.22 674.187 1209.42 675.08 1209.42 676.12C1209.42 677.16 1209.22 678.06 1208.82 678.82C1208.42 679.567 1207.86 680.147 1207.14 680.56C1206.42 680.973 1205.58 681.18 1204.62 681.18ZM1204.62 679.62C1205.45 679.62 1206.11 679.32 1206.62 678.72C1207.13 678.12 1207.38 677.253 1207.38 676.12C1207.38 674.987 1207.13 674.127 1206.62 673.54C1206.11 672.94 1205.45 672.64 1204.62 672.64C1203.78 672.64 1203.11 672.94 1202.6 673.54C1202.09 674.127 1201.84 674.987 1201.84 676.12C1201.84 677.253 1202.09 678.12 1202.6 678.72C1203.11 679.32 1203.78 679.62 1204.62 679.62ZM1215.99 681.18C1214.99 681.18 1214.12 680.973 1213.39 680.56C1212.67 680.133 1212.11 679.54 1211.71 678.78C1211.31 678.007 1211.11 677.1 1211.11 676.06C1211.11 674.513 1211.55 673.293 1212.43 672.4C1213.31 671.507 1214.49 671.06 1215.99 671.06C1216.6 671.06 1217.21 671.167 1217.81 671.38C1218.41 671.593 1218.9 671.887 1219.29 672.26L1218.65 673.68C1218.27 673.333 1217.86 673.08 1217.41 672.92C1216.97 672.747 1216.55 672.66 1216.15 672.66C1215.2 672.66 1214.47 672.96 1213.95 673.56C1213.44 674.147 1213.19 674.987 1213.19 676.08C1213.19 677.173 1213.44 678.033 1213.95 678.66C1214.47 679.273 1215.2 679.58 1216.15 679.58C1216.55 679.58 1216.97 679.5 1217.41 679.34C1217.86 679.167 1218.27 678.907 1218.65 678.56L1219.29 680C1218.9 680.36 1218.4 680.647 1217.79 680.86C1217.19 681.073 1216.59 681.18 1215.99 681.18ZM1221.02 681V666.9H1223.04V675.5H1223.08L1227.32 671.24H1229.82L1225.14 675.94L1230.18 681H1227.66L1223.08 676.54H1223.04V681H1221.02ZM1235.42 681.18C1234.42 681.18 1233.55 680.973 1232.82 680.56C1232.1 680.133 1231.54 679.54 1231.14 678.78C1230.74 678.007 1230.54 677.1 1230.54 676.06C1230.54 674.513 1230.98 673.293 1231.86 672.4C1232.74 671.507 1233.93 671.06 1235.42 671.06C1236.03 671.06 1236.64 671.167 1237.24 671.38C1237.84 671.593 1238.33 671.887 1238.72 672.26L1238.08 673.68C1237.71 673.333 1237.29 673.08 1236.84 672.92C1236.4 672.747 1235.98 672.66 1235.58 672.66C1234.63 672.66 1233.9 672.96 1233.38 673.56C1232.87 674.147 1232.62 674.987 1232.62 676.08C1232.62 677.173 1232.87 678.033 1233.38 678.66C1233.9 679.273 1234.63 679.58 1235.58 679.58C1235.98 679.58 1236.4 679.5 1236.84 679.34C1237.29 679.167 1237.71 678.907 1238.08 678.56L1238.72 680C1238.33 680.36 1237.83 680.647 1237.22 680.86C1236.62 681.073 1236.02 681.18 1235.42 681.18ZM1240.46 681V666.9H1242.48V672.76C1242.81 672.2 1243.26 671.78 1243.82 671.5C1244.39 671.207 1245.03 671.06 1245.74 671.06C1248.04 671.06 1249.2 672.367 1249.2 674.98V681H1247.18V675.1C1247.18 674.26 1247.01 673.647 1246.68 673.26C1246.36 672.873 1245.85 672.68 1245.16 672.68C1244.34 672.68 1243.69 672.94 1243.2 673.46C1242.72 673.967 1242.48 674.64 1242.48 675.48V681H1240.46ZM1255.1 681.18C1254.42 681.18 1253.81 681.047 1253.28 680.78C1252.75 680.513 1252.32 680.153 1252 679.7C1251.69 679.247 1251.54 678.733 1251.54 678.16C1251.54 677.44 1251.72 676.873 1252.08 676.46C1252.45 676.047 1253.06 675.747 1253.9 675.56C1254.75 675.373 1255.9 675.28 1257.34 675.28H1258.02V674.76C1258.02 674 1257.86 673.453 1257.54 673.12C1257.22 672.787 1256.69 672.62 1255.96 672.62C1255.4 672.62 1254.84 672.707 1254.28 672.88C1253.72 673.04 1253.15 673.3 1252.56 673.66L1251.94 672.24C1252.45 671.88 1253.08 671.593 1253.84 671.38C1254.6 671.167 1255.33 671.06 1256.02 671.06C1257.35 671.06 1258.34 671.38 1258.98 672.02C1259.62 672.647 1259.94 673.633 1259.94 674.98V681H1258.04V679.38C1257.8 679.94 1257.43 680.38 1256.92 680.7C1256.41 681.02 1255.81 681.18 1255.1 681.18ZM1255.5 679.74C1256.22 679.74 1256.82 679.487 1257.3 678.98C1257.78 678.473 1258.02 677.833 1258.02 677.06V676.52H1257.36C1256.39 676.52 1255.62 676.567 1255.06 676.66C1254.51 676.753 1254.12 676.913 1253.88 677.14C1253.65 677.353 1253.54 677.653 1253.54 678.04C1253.54 678.547 1253.71 678.96 1254.06 679.28C1254.41 679.587 1254.89 679.74 1255.5 679.74ZM1262.54 668.98V666.88H1264.9V668.98H1262.54ZM1262.72 681V671.24H1264.74V681H1262.72ZM1267.59 681V671.24H1269.55V672.86C1269.88 672.273 1270.33 671.827 1270.91 671.52C1271.49 671.213 1272.15 671.06 1272.87 671.06C1275.17 671.06 1276.33 672.367 1276.33 674.98V681H1274.31V675.1C1274.31 674.26 1274.14 673.647 1273.81 673.26C1273.49 672.873 1272.98 672.68 1272.29 672.68C1271.47 672.68 1270.82 672.94 1270.33 673.46C1269.85 673.967 1269.61 674.64 1269.61 675.48V681H1267.59Z" fill="#2C3C5B"/>
<path d="M105.128 305V290.9H110.968C112.488 290.9 113.662 291.28 114.488 292.04C115.315 292.787 115.728 293.84 115.728 295.2C115.728 296.573 115.315 297.64 114.488 298.4C113.662 299.147 112.488 299.52 110.968 299.52H107.208V305H105.128ZM107.208 297.86H110.668C112.695 297.86 113.708 296.973 113.708 295.2C113.708 293.44 112.695 292.56 110.668 292.56H107.208V297.86ZM120.372 305.18C119.692 305.18 119.085 305.047 118.552 304.78C118.019 304.513 117.592 304.153 117.272 303.7C116.965 303.247 116.812 302.733 116.812 302.16C116.812 301.44 116.992 300.873 117.352 300.46C117.725 300.047 118.332 299.747 119.172 299.56C120.025 299.373 121.172 299.28 122.612 299.28H123.292V298.76C123.292 298 123.132 297.453 122.812 297.12C122.492 296.787 121.965 296.62 121.232 296.62C120.672 296.62 120.112 296.707 119.552 296.88C118.992 297.04 118.419 297.3 117.832 297.66L117.212 296.24C117.719 295.88 118.352 295.593 119.112 295.38C119.872 295.167 120.599 295.06 121.292 295.06C122.625 295.06 123.612 295.38 124.252 296.02C124.892 296.647 125.212 297.633 125.212 298.98V305H123.312V303.38C123.072 303.94 122.699 304.38 122.192 304.7C121.685 305.02 121.079 305.18 120.372 305.18ZM120.772 303.74C121.492 303.74 122.092 303.487 122.572 302.98C123.052 302.473 123.292 301.833 123.292 301.06V300.52H122.632C121.659 300.52 120.892 300.567 120.332 300.66C119.785 300.753 119.392 300.913 119.152 301.14C118.925 301.353 118.812 301.653 118.812 302.04C118.812 302.547 118.985 302.96 119.332 303.28C119.679 303.587 120.159 303.74 120.772 303.74ZM132.154 305.18C130.928 305.18 130.014 304.867 129.414 304.24C128.814 303.613 128.514 302.707 128.514 301.52V296.8H126.614V295.24H128.514V292.3H130.534V295.24H133.554V296.8H130.534V301.36C130.534 302.067 130.681 302.6 130.974 302.96C131.281 303.32 131.774 303.5 132.454 303.5C132.668 303.5 132.874 303.48 133.074 303.44C133.274 303.387 133.474 303.327 133.674 303.26L133.994 304.78C133.794 304.9 133.514 304.993 133.154 305.06C132.808 305.14 132.474 305.18 132.154 305.18ZM135.119 292.98V290.88H137.479V292.98H135.119ZM135.299 305V295.24H137.319V305H135.299ZM144.742 305.18C143.142 305.18 141.882 304.733 140.962 303.84C140.042 302.933 139.582 301.7 139.582 300.14C139.582 299.14 139.782 298.26 140.182 297.5C140.596 296.727 141.162 296.127 141.882 295.7C142.602 295.273 143.429 295.06 144.362 295.06C145.709 295.06 146.769 295.493 147.542 296.36C148.316 297.213 148.702 298.393 148.702 299.9V300.58H141.542C141.689 302.607 142.762 303.62 144.762 303.62C145.322 303.62 145.869 303.533 146.402 303.36C146.949 303.187 147.462 302.9 147.942 302.5L148.542 303.9C148.102 304.3 147.536 304.613 146.842 304.84C146.149 305.067 145.449 305.18 144.742 305.18ZM144.442 296.48C143.602 296.48 142.936 296.74 142.442 297.26C141.949 297.78 141.649 298.473 141.542 299.34H147.002C146.962 298.433 146.722 297.733 146.282 297.24C145.842 296.733 145.229 296.48 144.442 296.48ZM150.904 305V295.24H152.864V296.86C153.198 296.273 153.651 295.827 154.224 295.52C154.811 295.213 155.464 295.06 156.184 295.06C158.491 295.06 159.644 296.367 159.644 298.98V305H157.624V299.1C157.624 298.26 157.458 297.647 157.124 297.26C156.804 296.873 156.298 296.68 155.604 296.68C154.791 296.68 154.138 296.94 153.644 297.46C153.164 297.967 152.924 298.64 152.924 299.48V305H150.904ZM166.588 305.18C165.361 305.18 164.448 304.867 163.848 304.24C163.248 303.613 162.948 302.707 162.948 301.52V296.8H161.048V295.24H162.948V292.3H164.968V295.24H167.988V296.8H164.968V301.36C164.968 302.067 165.114 302.6 165.408 302.96C165.714 303.32 166.208 303.5 166.888 303.5C167.101 303.5 167.308 303.48 167.508 303.44C167.708 303.387 167.908 303.327 168.108 303.26L168.428 304.78C168.228 304.9 167.948 304.993 167.588 305.06C167.241 305.14 166.908 305.18 166.588 305.18ZM173.153 305.18C172.353 305.18 171.606 305.08 170.913 304.88C170.219 304.667 169.639 304.373 169.173 304L169.753 302.64C170.246 302.987 170.786 303.253 171.373 303.44C171.973 303.627 172.573 303.72 173.173 303.72C173.879 303.72 174.413 303.593 174.773 303.34C175.133 303.087 175.313 302.747 175.313 302.32C175.313 301.973 175.193 301.707 174.953 301.52C174.713 301.32 174.353 301.167 173.873 301.06L171.973 300.68C170.293 300.333 169.453 299.467 169.453 298.08C169.453 297.16 169.819 296.427 170.553 295.88C171.286 295.333 172.246 295.06 173.433 295.06C174.113 295.06 174.759 295.16 175.373 295.36C175.999 295.56 176.519 295.86 176.933 296.26L176.353 297.62C175.953 297.273 175.493 297.007 174.973 296.82C174.453 296.633 173.939 296.54 173.433 296.54C172.739 296.54 172.213 296.673 171.853 296.94C171.493 297.193 171.313 297.54 171.313 297.98C171.313 298.647 171.753 299.073 172.633 299.26L174.533 299.64C175.399 299.813 176.053 300.107 176.493 300.52C176.946 300.933 177.173 301.493 177.173 302.2C177.173 303.133 176.806 303.867 176.073 304.4C175.339 304.92 174.366 305.18 173.153 305.18Z" fill="#2C3C5B"/>
<path d="M348.333 594C348.333 595.473 349.527 596.667 351 596.667C352.473 596.667 353.667 595.473 353.667 594C353.667 592.527 352.473 591.333 351 591.333C349.527 591.333 348.333 592.527 348.333 594ZM350.5 594V617H351.5V594H350.5ZM408.5 675V772H409.5V675H408.5ZM380 646.5C395.74 646.5 408.5 659.26 408.5 675H409.5C409.5 658.708 396.292 645.5 380 645.5V646.5ZM350.5 617C350.5 633.292 363.708 646.5 380 646.5V645.5C364.26 645.5 351.5 632.74 351.5 617H350.5Z" fill="#0AC5A8"/>
<path d="M1288.67 483C1288.67 484.473 1287.47 485.667 1286 485.667C1284.53 485.667 1283.33 484.473 1283.33 483C1283.33 481.527 1284.53 480.333 1286 480.333C1287.47 480.333 1288.67 481.527 1288.67 483ZM1286.5 483V506H1285.5V483H1286.5ZM1228.5 564V661H1227.5V564H1228.5ZM1257 535.5C1241.26 535.5 1228.5 548.26 1228.5 564H1227.5C1227.5 547.708 1240.71 534.5 1257 534.5V535.5ZM1286.5 506C1286.5 522.292 1273.29 535.5 1257 535.5V534.5C1272.74 534.5 1285.5 521.74 1285.5 506H1286.5Z" fill="#0AC5A8"/>
<path d="M366 238.333C364.527 238.333 363.333 239.527 363.333 241C363.333 242.473 364.527 243.667 366 243.667C367.473 243.667 368.667 242.473 368.667 241C368.667 239.527 367.473 238.333 366 238.333ZM366 240.5H343V241.5H366V240.5ZM285 298.5L188 298.5V299.5L285 299.5V298.5ZM313.5 270C313.5 285.74 300.74 298.5 285 298.5V299.5C301.292 299.5 314.5 286.292 314.5 270H313.5ZM343 240.5C326.708 240.5 313.5 253.708 313.5 270H314.5C314.5 254.26 327.26 241.5 343 241.5V240.5Z" fill="#0AC5A8"/>
<defs>
<clipPath id="clip0_537_1257">
<rect width="592" height="375" fill="white" transform="translate(597 203)"/>
</clipPath>
<clipPath id="clip1_537_1257">
<rect width="17" height="16" fill="white" transform="translate(784 311)"/>
</clipPath>
<clipPath id="clip2_537_1257">
<rect width="152" height="152" fill="white" transform="translate(1210 335)"/>
</clipPath>
<clipPath id="clip3_537_1257">
<rect width="25" height="25" fill="white" transform="translate(250 55)"/>
</clipPath>
<clipPath id="clip4_537_1257">
<rect width="25" height="25" fill="white" transform="translate(55 474)"/>
</clipPath>
</defs>
</svg>
