<svg width="1560" height="566" viewBox="0 0 1560 566" fill="none" xmlns="http://www.w3.org/2000/svg">
<g opacity="0.1" clip-path="url(#clip0_493_1574)">
<path d="M289 472.25V477.5H283.75C282.503 477.5 281.5 478.503 281.5 479.75V484.25C281.5 485.497 282.503 486.5 283.75 486.5H289V491.75C289 492.997 290.003 494 291.25 494H295.75C296.997 494 298 492.997 298 491.75V486.5H303.25C304.497 486.5 305.5 485.497 305.5 484.25V479.75C305.5 478.503 304.497 477.5 303.25 477.5H298V472.25C298 471.003 296.997 470 295.75 470H291.25C290.003 470 289 471.003 289 472.25ZM320.472 506.769C322.141 505.541 322.497 503.197 321.269 501.528C320.041 499.859 317.697 499.503 316.028 500.731L304.806 509H293.5C292.675 509 292 508.325 292 507.5C292 506.675 292.675 506 293.5 506H295H301C302.659 506 304 504.659 304 503C304 501.341 302.659 500 301 500H295H293.5H286.159C283.431 500 280.787 500.928 278.659 502.625L274.45 506H271C269.341 506 268 507.341 268 509V515C268 516.659 269.341 518 271 518H286H301.047C303.766 518 306.419 517.128 308.613 515.516L320.481 506.769H320.472ZM286.066 506H286.15C286.122 506 286.094 506 286.066 506Z" fill="black"/>
</g>
<g opacity="0.1" clip-path="url(#clip1_493_1574)">
<path d="M41.3437 256.656L44.3437 259.656L47.3437 262.656C48.225 263.537 48.225 264.962 47.3437 265.834C46.4625 266.706 45.0375 266.716 44.1656 265.834L42.7594 264.428L39.1781 268L44.3344 273.156C45.2156 274.037 45.2156 275.462 44.3344 276.334C43.4531 277.206 42.0281 277.216 41.1562 276.334L34.4062 269.584L27.6562 262.844C26.775 261.962 26.775 260.537 27.6562 259.666C28.5375 258.794 29.9625 258.784 30.8344 259.666L35.9906 264.822L39.5719 261.25L38.1562 259.844C37.275 258.962 37.275 257.537 38.1562 256.666C39.0375 255.794 40.4625 255.784 41.3344 256.666L41.3437 256.656ZM19.7156 270.597L25.4437 264.869C25.4719 264.897 25.5 264.934 25.5375 264.962L27.0375 266.462L32.2875 271.712L37.5375 276.962L39.0375 278.462C39.0656 278.491 39.0937 278.519 39.1312 278.556L21.225 296.462C20.2406 297.447 18.9094 298 17.5125 298H9.17812L3.84375 303.344C2.9625 304.225 1.5375 304.225 0.665621 303.344C-0.206254 302.462 -0.215629 301.037 0.665621 300.166L6.00937 294.822V286.497C6.00937 285.1 6.5625 283.769 7.54687 282.784L11.6062 278.725L16.95 284.069C17.5312 284.65 18.4875 284.65 19.0687 284.069C19.65 283.487 19.65 282.531 19.0687 281.95L13.725 276.606L17.6062 272.725L22.95 278.069C23.5312 278.65 24.4875 278.65 25.0687 278.069C25.65 277.487 25.65 276.531 25.0687 275.95L19.725 270.606L19.7156 270.597Z" fill="black"/>
</g>
<g opacity="0.1" clip-path="url(#clip2_493_1574)">
<path d="M319.75 9C319.75 8.17125 320.425 7.5 321.25 7.5H322.75C323.575 7.5 324.25 8.17125 324.25 9V11.25H326.5C327.325 11.25 328 11.925 328 12.75V14.25C328 15.075 327.325 15.75 326.5 15.75H324.25V18C324.25 18.825 323.575 19.5 322.75 19.5H321.25C320.425 19.5 319.75 18.825 319.75 18V15.75H317.5C316.675 15.75 316 15.075 316 14.25V12.75C316 11.925 316.675 11.25 317.5 11.25H319.75V9ZM330.25 0C333.981 0 337 3.0225 337 6.75V7.5H345.25C348.981 7.5 352 10.5188 352 14.25V41.25C352 44.9813 348.981 48 345.25 48H298.748C295.018 48 292 44.9813 292 41.25V14.25C292 10.5188 295.023 7.5 298.75 7.5H307V6.75C307 3.0225 310.019 0 313.75 0H330.25ZM337 12V43.5H345.25C346.497 43.5 347.5 42.4969 347.5 41.25V31.5H342.25C341.003 31.5 340 30.4969 340 29.25C340 28.0031 341.003 27 342.25 27H347.5V22.5H342.25C341.003 22.5 340 21.4969 340 20.25C340 19.0031 341.003 18 342.25 18H347.5V14.25C347.5 13.0031 346.497 12 345.25 12H337ZM296.5 14.25V18H301.75C302.997 18 304 19.0031 304 20.25C304 21.4969 302.997 22.5 301.75 22.5H296.5V27H301.75C302.997 27 304 28.0031 304 29.25C304 30.4969 302.997 31.5 301.75 31.5H296.5V41.25C296.5 42.4969 297.507 43.5 298.748 43.5H307V12H298.75C297.508 12 296.5 13.0031 296.5 14.25ZM311.5 43.5H317.5V37.5C317.5 35.0156 319.516 33 322 33C324.484 33 326.5 35.0156 326.5 37.5V43.5H332.5V6.75C332.5 5.50781 331.497 4.5 330.25 4.5H313.75C312.503 4.5 311.5 5.50781 311.5 6.75V43.5Z" fill="black"/>
</g>
<g opacity="0.1">
<path d="M1248.5 497C1248.5 495.341 1249.84 494 1251.5 494H1254.5C1256.16 494 1257.5 495.341 1257.5 497V510.209L1268.94 503.609C1270.37 502.784 1272.21 503.272 1273.03 504.706L1274.53 507.303C1275.36 508.737 1274.87 510.575 1273.44 511.4L1262 518L1273.44 524.6C1274.87 525.425 1275.36 527.263 1274.53 528.697L1273.03 531.294C1272.21 532.728 1270.37 533.225 1268.94 532.391L1257.5 525.791V539C1257.5 540.659 1256.16 542 1254.5 542H1251.5C1249.84 542 1248.5 540.659 1248.5 539V525.791L1237.06 532.4C1235.63 533.225 1233.79 532.737 1232.97 531.303L1231.47 528.706C1230.64 527.272 1231.13 525.434 1232.56 524.609L1244 518L1232.56 511.4C1231.13 510.575 1230.64 508.737 1231.47 507.303L1232.97 504.706C1233.79 503.262 1235.63 502.775 1237.06 503.6L1248.5 510.2V497Z" fill="black"/>
</g>
<g opacity="0.1">
<path d="M1521 207V183C1521 179.691 1523.69 177 1527 177H1551C1554.31 177 1557 179.691 1557 183V201.516C1557 203.109 1556.37 204.637 1555.25 205.762L1549.76 211.247C1548.64 212.372 1547.11 213 1545.52 213H1527C1523.69 213 1521 210.309 1521 207ZM1537.5 186C1536.67 186 1536 186.675 1536 187.5V192H1531.5C1530.67 192 1530 192.675 1530 193.5V196.5C1530 197.325 1530.67 198 1531.5 198H1536V202.5C1536 203.325 1536.67 204 1537.5 204H1540.5C1541.33 204 1542 203.325 1542 202.5V198H1546.5C1547.33 198 1548 197.325 1548 196.5V193.5C1548 192.675 1547.33 192 1546.5 192H1542V187.5C1542 186.675 1541.33 186 1540.5 186H1537.5ZM1539.75 217.5C1541 217.5 1542 218.503 1542 219.75C1542 220.997 1541 222 1539.75 222H1524.75C1517.71 222 1512 216.291 1512 209.25V188.25C1512 187.003 1513 186 1514.25 186C1515.5 186 1516.5 187.003 1516.5 188.25V209.25C1516.5 213.806 1520.19 217.5 1524.75 217.5H1539.75Z" fill="black"/>
</g>
<g opacity="0.1">
<path d="M1190.35 2.05312C1190.87 3.62812 1190.02 5.325 1188.46 5.85L1186 6.66562V18C1186 22.9687 1190.03 27 1195 27C1199.97 27 1204 22.9687 1204 18V6.66562L1201.55 5.85C1199.98 5.325 1199.13 3.62812 1199.66 2.05312C1200.18 0.478124 1201.88 -0.365625 1203.46 0.159374L1205.9 0.974999C1208.35 1.79062 1210 4.07812 1210 6.66562V18C1210 25.2375 1204.88 31.275 1198.07 32.6906C1198.66 37.9312 1203.1 42 1208.5 42C1214.3 42 1219 37.3031 1219 31.5V24.8719C1216.35 23.7187 1214.5 21.075 1214.5 18C1214.5 13.8562 1217.86 10.5 1222 10.5C1226.14 10.5 1229.5 13.8562 1229.5 18C1229.5 21.075 1227.65 23.7187 1225 24.8719V31.5C1225 40.6125 1217.61 48 1208.5 48C1199.79 48 1192.67 41.2594 1192.05 32.7094C1185.17 31.3312 1180 25.275 1180 18V6.66562C1180 4.0875 1181.65 1.79062 1184.11 0.974999L1186.55 0.159374C1188.13 -0.365625 1189.82 0.487499 1190.35 2.05312ZM1222 21C1223.66 21 1225 19.6594 1225 18C1225 16.3406 1223.66 15 1222 15C1220.34 15 1219 16.3406 1219 18C1219 19.6594 1220.34 21 1222 21Z" fill="black"/>
</g>
<g opacity="0.1">
<path d="M872.403 561.978L855.462 546.163C855.069 545.797 854.694 545.403 854.347 545H862.503C864.622 545 866.534 543.725 867.35 541.766L868.334 539.403L872.956 549.669C873.312 550.466 874.091 550.981 874.963 550.991C875.834 551 876.631 550.522 877.025 549.744L881 541.784L881.159 542.103C882.05 543.884 883.869 545.009 885.856 545.009H895.653C895.306 545.413 894.931 545.806 894.537 546.172L877.597 561.978C876.894 562.634 875.966 563 875 563C874.034 563 873.106 562.634 872.403 561.978ZM898.222 540.5H885.847C885.566 540.5 885.303 540.341 885.172 540.088L882.997 535.747C882.612 534.988 881.834 534.5 880.981 534.5C880.128 534.5 879.35 534.978 878.966 535.747L875.084 543.509L870.303 532.831C869.938 532.016 869.112 531.491 868.222 531.509C867.331 531.528 866.525 532.063 866.178 532.897L863.197 540.05C863.084 540.331 862.803 540.509 862.503 540.509H852.5C852.256 540.509 852.031 540.547 851.816 540.613C851.281 539.113 851 537.519 851 535.897V535.353C851 528.8 855.734 523.213 862.194 522.134C866.469 521.422 870.819 522.819 873.875 525.875L875 527L876.125 525.875C879.181 522.819 883.531 521.422 887.806 522.134C894.266 523.213 899 528.8 899 535.353V535.897C899 537.481 898.738 539.038 898.222 540.5Z" fill="black"/>
</g>
<defs>
<clipPath id="clip0_493_1574">
<rect width="54" height="48" fill="white" transform="translate(268 470)"/>
</clipPath>
<clipPath id="clip1_493_1574">
<rect width="48" height="48" fill="white" transform="translate(0 256)"/>
</clipPath>
<clipPath id="clip2_493_1574">
<rect width="60" height="48" fill="white" transform="translate(292)"/>
</clipPath>
</defs>
</svg>
