<svg width="18" height="24" viewBox="0 0 18 24" fill="none" xmlns="http://www.w3.org/2000/svg">
<path d="M3 0C1.34531 0 0 1.34531 0 3V21C0 22.6547 1.34531 24 3 24H15C16.6547 24 18 22.6547 18 21V7.5H12C11.1703 7.5 10.5 6.82969 10.5 6V0H3ZM12 0V6H18L12 0ZM7.5 11.25C7.5 10.8375 7.8375 10.5 8.25 10.5H9.75C10.1625 10.5 10.5 10.8375 10.5 11.25V13.5H12.75C13.1625 13.5 13.5 13.8375 13.5 14.25V15.75C13.5 16.1625 13.1625 16.5 12.75 16.5H10.5V18.75C10.5 19.1625 10.1625 19.5 9.75 19.5H8.25C7.8375 19.5 7.5 19.1625 7.5 18.75V16.5H5.25C4.8375 16.5 4.5 16.1625 4.5 15.75V14.25C4.5 13.8375 4.8375 13.5 5.25 13.5H7.5V11.25Z" fill="current"/>
</svg>
