<svg width="22" height="24" viewBox="0 0 22 24" fill="none" xmlns="http://www.w3.org/2000/svg">
<path d="M8.74999 1.5C8.74999 0.670312 9.42031 0 10.25 0H11.75C12.5797 0 13.25 0.670312 13.25 1.5V8.10469L18.9687 4.80469C19.6859 4.39219 20.6047 4.63594 21.0172 5.35312L21.7672 6.65156C22.1797 7.36875 21.9359 8.2875 21.2187 8.7L15.5 12L21.2187 15.3C21.9359 15.7125 22.1797 16.6313 21.7672 17.3484L21.0172 18.6469C20.6047 19.3641 19.6859 19.6125 18.9687 19.1953L13.25 15.8953V22.5C13.25 23.3297 12.5797 24 11.75 24H10.25C9.42031 24 8.74999 23.3297 8.74999 22.5V15.8953L3.03124 19.2C2.31406 19.6125 1.39531 19.3687 0.982806 18.6516L0.232806 17.3531C-0.179694 16.6359 0.0640556 15.7172 0.781243 15.3047L6.49999 12L0.781243 8.7C0.0640556 8.2875 -0.179694 7.36875 0.232806 6.65156L0.982806 5.35312C1.39531 4.63125 2.31406 4.3875 3.03124 4.8L8.74999 8.1V1.5Z" fill="current"/>
</svg>
