<svg width="24" height="24" viewBox="0 0 24 24" fill="none" xmlns="http://www.w3.org/2000/svg">
<path d="M20.6478 2.67419L13.1525 8.24105L14.5386 4.95668L20.6478 2.67419Z" fill="#E2761B" stroke="#E2761B" stroke-linecap="round" stroke-linejoin="round"/>
<path d="M3.34464 2.67419L10.7797 8.29378L9.4614 4.95668L3.34464 2.67419ZM17.951 15.5781L15.9548 18.6365L20.226 19.8117L21.4539 15.6459L17.951 15.5781ZM2.55368 15.6459L3.77402 19.8117L8.04521 18.6365L6.04897 15.5781L2.55368 15.6459Z" fill="#E4761B" stroke="#E4761B" stroke-linecap="round" stroke-linejoin="round"/>
<path d="M7.80413 10.4105L6.61392 12.2109L10.855 12.3992L10.7043 7.84179L7.80413 10.4105ZM16.1883 10.4105L13.2505 7.78906L13.1525 12.3992L17.3861 12.2109L16.1883 10.4105ZM8.04518 18.6365L10.5913 17.3936L8.3917 15.6761L8.04518 18.6365ZM13.4011 17.3936L15.9548 18.6365L15.6007 15.6761L13.4011 17.3936Z" fill="#E4761B" stroke="#E4761B" stroke-linecap="round" stroke-linejoin="round"/>
<path d="M15.9548 18.6365L13.4011 17.3936L13.6045 19.0584L13.5819 19.7589L15.9548 18.6365ZM8.0452 18.6365L10.4181 19.7589L10.403 19.0584L10.5913 17.3936L8.0452 18.6365Z" fill="#D7C1B3" stroke="#D7C1B3" stroke-linecap="round" stroke-linejoin="round"/>
<path d="M10.4557 14.5763L8.33145 13.951L9.83051 13.2655L10.4557 14.5763ZM13.5367 14.5763L14.162 13.2655L15.6686 13.951L13.5367 14.5763Z" fill="#233447" stroke="#233447" stroke-linecap="round" stroke-linejoin="round"/>
<path d="M8.04518 18.6365L8.40677 15.5782L6.04895 15.646L8.04518 18.6365ZM15.5932 15.5782L15.9548 18.6365L17.951 15.646L15.5932 15.5782ZM17.3861 12.2109L13.1525 12.3993L13.5442 14.5763L14.1695 13.2656L15.6761 13.951L17.3861 12.2109ZM8.33144 13.951L9.83803 13.2656L10.4557 14.5763L10.855 12.3993L6.61392 12.2109L8.33144 13.951Z" fill="#CD6116" stroke="#CD6116" stroke-linecap="round" stroke-linejoin="round"/>
<path d="M6.61392 12.2109L8.3917 15.6761L8.33144 13.951L6.61392 12.2109ZM15.6761 13.951L15.6007 15.6761L17.3861 12.2109L15.6761 13.951ZM10.855 12.3993L10.4557 14.5763L10.9529 17.145L11.0659 13.7627L10.855 12.3993ZM13.1525 12.3993L12.9491 13.7552L13.0395 17.145L13.5442 14.5763L13.1525 12.3993Z" fill="#E4751F" stroke="#E4751F" stroke-linecap="round" stroke-linejoin="round"/>
<path d="M13.5443 14.5763L13.0395 17.145L13.4011 17.3936L15.6008 15.6761L15.6761 13.951L13.5443 14.5763ZM8.33145 13.951L8.39172 15.6761L10.5913 17.3936L10.9529 17.145L10.4557 14.5763L8.33145 13.951Z" fill="#F6851B" stroke="#F6851B" stroke-linecap="round" stroke-linejoin="round"/>
<path d="M13.5819 19.7589L13.6045 19.0584L13.4162 18.8927H10.5763L10.403 19.0584L10.4181 19.7589L8.0452 18.6365L8.87382 19.3145L10.5537 20.4821H13.4388L15.1262 19.3145L15.9548 18.6365L13.5819 19.7589Z" fill="#C0AD9E" stroke="#C0AD9E" stroke-linecap="round" stroke-linejoin="round"/>
<path d="M13.4011 17.3936L13.0395 17.145H10.9529L10.5913 17.3936L10.403 19.0584L10.5763 18.8927H13.4162L13.6045 19.0584L13.4011 17.3936Z" fill="#161616" stroke="#161616" stroke-linecap="round" stroke-linejoin="round"/>
<path d="M20.9642 8.60263L21.6045 5.52919L20.6478 2.67419L13.4011 8.05273L16.1883 10.4105L20.1281 11.5631L21.0019 10.5461L20.6252 10.2749L21.2279 9.72504L20.7608 9.36346L21.3635 8.90395L20.9642 8.60263ZM2.39548 5.52919L3.03578 8.60263L2.629 8.90395L3.23164 9.36346L2.77213 9.72504L3.37476 10.2749L2.99811 10.5461L3.8644 11.5631L7.80414 10.4105L10.5913 8.05273L3.34463 2.67419L2.39548 5.52919Z" fill="#763D16" stroke="#763D16" stroke-linecap="round" stroke-linejoin="round"/>
<path d="M20.1281 11.5631L16.1883 10.4106L17.3861 12.2109L15.6008 15.6761L17.951 15.646H21.4539L20.1281 11.5631ZM7.80415 10.4106L3.86441 11.5631L2.55368 15.646H6.04897L8.39172 15.6761L6.61394 12.2109L7.80415 10.4106ZM13.1526 12.3993L13.4011 8.05274L14.5461 4.9567H9.4614L10.5913 8.05274L10.855 12.3993L10.9454 13.7703L10.9529 17.145H13.0396L13.0546 13.7703L13.1526 12.3993Z" fill="#F6851B" stroke="#F6851B" stroke-linecap="round" stroke-linejoin="round"/>
</svg>
