<svg width="241" height="308" viewBox="0 0 241 308" fill="none" xmlns="http://www.w3.org/2000/svg">
<path d="M228.909 277.779L228.527 35.068C228.517 29.2332 223.779 24.5104 217.944 24.5195L30.8366 24.8142C25.0016 24.8234 20.2787 29.561 20.2879 35.3958L20.6701 278.107C20.6793 283.942 25.4171 288.665 31.2521 288.656L218.36 288.361C224.195 288.352 228.918 283.614 228.909 277.779Z" fill="url(#paint0_linear_413_917)"/>
<path d="M218.139 33.7303V278.177H31.3557V33.7303H218.139Z" fill="#EFFAFB"/>
<path d="M192.859 248.889C192.621 255.45 186.739 260.838 179.804 260.587C172.945 260.338 168.194 254.674 169.077 248.259C169.915 242.177 175.571 237.562 181.806 237.671C188.104 237.783 193.083 242.675 192.859 248.889Z" fill="#7984A6"/>
<path d="M179.306 265.27C169.879 264.892 163.5 256.989 164.86 248.256L166.53 248.301C165.372 256.087 171.099 263.074 179.47 263.397C179.715 263.406 179.96 263.41 180.201 263.408L180.129 265.283C179.858 265.285 179.581 265.281 179.306 265.27Z" fill="#7984A6"/>
<path d="M197.084 249.113L195.329 249.066C195.521 241.574 189.458 235.722 181.909 235.602L182.036 234.143C190.434 234.268 197.235 240.748 197.084 249.113Z" fill="#7984A6"/>
<path d="M187.231 248.74C187.024 252.178 183.913 254.947 180.306 254.833C176.721 254.72 174.153 251.801 174.541 248.403C174.919 245.101 177.965 242.552 181.373 242.625C184.799 242.7 187.432 245.399 187.231 248.74Z" fill="white"/>
<path d="M84.08 260.442L152.118 263.873L84.08 260.442Z" fill="#7984A6"/>
<path d="M152.021 264.249L83.9033 260.795L84.2559 260.09L152.215 263.497L152.021 264.249Z" fill="#7984A6"/>
<path d="M144.238 264.517C142.418 264.651 140.628 263.299 139.589 260.976C139.393 260.537 139.222 260.054 139.087 259.534C137.743 262.237 135.405 263.78 132.92 263.55C130.045 263.283 127.619 260.798 126.447 256.991C125.489 253.878 124.939 248.527 127.524 240.542C127.998 239.077 128.362 237.929 128.64 237.03C128.324 237.727 127.984 238.483 127.646 239.237C125.377 244.294 122.127 251.54 120.08 254.381C118.519 256.548 117.03 257.717 115.546 257.932C113.07 258.29 111.028 255.972 108.797 250.368C108.329 249.192 107.97 248.29 107.742 247.941C107.636 248.114 107.506 248.351 107.385 248.57C106.43 250.297 104.404 253.96 98.9682 257.8C95.0719 260.551 92.7452 261.475 92.1056 260.515C91.161 259.098 94.8263 254.113 98.5179 250.835C99.9569 249.557 100.367 248.986 100.482 248.782C99.7643 248.898 96.5067 250.676 93.0292 254.103L92.4802 253.646C95.9021 250.286 99.7593 247.871 100.969 247.916C101.262 247.926 101.44 248.073 101.458 248.318C101.483 248.658 101.258 249.341 99.0094 251.344C95.3457 254.607 92.4334 258.973 92.9942 259.807C93.279 260.23 94.9189 259.744 98.6251 257.133C103.754 253.521 105.604 250.192 106.581 248.436C107.05 247.593 107.332 247.086 107.848 246.963C108.481 246.813 108.689 247.324 109.695 249.822C110.989 253.034 113.07 257.404 115.735 257.01C116.829 256.851 118.049 255.851 119.35 254.053C121.323 251.327 124.562 244.159 126.823 239.153C127.548 237.548 128.168 236.178 128.636 235.194C129.344 233.708 129.568 233.285 130.054 233.302C130.512 233.319 130.459 233.677 130.028 235.211C129.719 236.315 129.186 238.046 128.39 240.53C123.916 254.487 128.563 262.14 133.275 262.572C135.437 262.77 137.319 261.421 138.42 258.904C138.546 258.616 138.676 258.326 138.81 258.034C138.47 255.023 139.273 251.243 142.377 247.717C143.555 246.379 144.412 245.446 145.002 244.86C145.632 244.234 146.146 243.771 146.564 243.965C147.108 244.217 146.81 244.832 144.452 249.071C143.01 251.663 141.218 254.883 139.806 257.945C139.937 258.866 140.184 259.699 140.504 260.409C141.483 262.574 143.193 263.817 144.738 263.476C145.901 263.217 146.921 262.08 147.681 260.205L148.585 260.374C147.414 263.284 145.837 264.197 144.722 264.445C144.561 264.481 144.399 264.505 144.238 264.517ZM145.453 245.509C144.964 246.01 144.208 246.829 143.033 248.169C140.683 250.85 139.774 253.686 139.706 256.156C140.986 253.57 142.435 250.98 143.642 248.824C144.331 247.593 145.029 246.346 145.453 245.509Z" fill="#5C6EA6"/>
<g opacity="0.5">
<path d="M180.701 96.5901L69.351 96.7437L69.3439 91.5424L180.694 91.3887L180.701 96.5901Z" fill="#7984A6"/>
</g>
<path d="M203.901 117.793L46.2518 118.011L46.2447 112.809L203.894 112.591L203.901 117.793Z" fill="#D1DBE6"/>
<path d="M203.851 106.243L46.2013 106.461L46.194 101.259L203.844 101.042L203.851 106.243Z" fill="#D1DBE6"/>
<path d="M188.283 129.364L46.2957 129.56L46.2885 124.359L188.276 124.163L188.283 129.364Z" fill="#D1DBE6"/>
<path d="M204.74 141.416L70.6395 141.601L70.6355 138.608L204.735 138.423L204.74 141.416Z" fill="#D1DBE6"/>
<path d="M204.74 147.343L70.6395 147.529L70.6355 144.535L204.735 144.35L204.74 147.343Z" fill="#D1DBE6"/>
<path d="M204.74 153.271L70.6395 153.456L70.6355 150.463L204.735 150.277L204.74 153.271Z" fill="#D1DBE6"/>
<path d="M204.74 165.24L70.6395 165.425L70.6355 162.432L204.735 162.247L204.74 165.24Z" fill="#D1DBE6"/>
<path d="M204.74 171.167L70.6395 171.352L70.6355 168.359L204.735 168.174L204.74 171.167Z" fill="#D1DBE6"/>
<path d="M204.74 177.095L70.6395 177.28L70.6355 174.286L204.735 174.101L204.74 177.095Z" fill="#D1DBE6"/>
<path d="M204.74 190.347L70.6395 190.532L70.6355 187.538L204.735 187.353L204.74 190.347Z" fill="#D1DBE6"/>
<path d="M204.74 196.274L70.6395 196.459L70.6355 193.466L204.735 193.281L204.74 196.274Z" fill="#D1DBE6"/>
<path d="M204.74 202.201L70.6395 202.386L70.6355 199.393L204.735 199.208L204.74 202.201Z" fill="#D1DBE6"/>
<path d="M204.74 214.537L70.6395 214.722L70.6355 211.729L204.735 211.543L204.74 214.537Z" fill="#D1DBE6"/>
<path d="M204.74 220.464L70.6395 220.649L70.6355 217.656L204.735 217.471L204.74 220.464Z" fill="#D1DBE6"/>
<path d="M204.74 226.392L70.6395 226.577L70.6355 223.583L204.735 223.398L204.74 226.392Z" fill="#D1DBE6"/>
<path d="M56.4938 37.6569H42.6441H42.6307H42.4718V37.657L42.299 37.6574L42.268 38.1383C41.8612 41.294 39.2577 43.6669 36.0839 43.7799H35.993V43.9528V44.1254V57.2565H36.3383V44.1052C39.5734 43.8738 42.1925 41.423 42.6114 38.1716L42.6223 38.0021H56.4938V37.6569Z" fill="#7984A6"/>
<path d="M193.602 37.6569H207.452H207.465H207.624V37.657L207.796 37.6574L207.828 38.1383C208.234 41.294 210.838 43.6669 214.012 43.7799H214.102V43.9528V44.1254V57.2565H213.757V44.1052C210.522 43.8738 207.903 41.423 207.484 38.1716L207.473 38.0021H193.602V37.6569Z" fill="#7984A6"/>
<path d="M56.4938 273.503H42.6441H42.6307H42.4718V273.503L42.299 273.503L42.268 273.022C41.8612 269.866 39.2577 267.493 36.0839 267.38H35.993V267.207V267.035V253.904H36.3383V267.055C39.5734 267.286 42.1925 269.737 42.6114 272.989L42.6223 273.158H56.4938V273.503Z" fill="#7984A6"/>
<path d="M193.602 273.503H207.452H207.465H207.624V273.503L207.796 273.503L207.828 273.022C208.234 269.866 210.838 267.493 214.012 267.38H214.102V267.207V267.035V253.904H213.757V267.055C210.522 267.286 207.903 269.737 207.484 272.989L207.473 273.158H193.602V273.503Z" fill="#7984A6"/>
<path d="M80.0116 71.7461H76.4443V79.7012H71.9668V57.9702H80.0413C82.6087 57.9702 84.5885 58.5423 85.9817 59.6864C87.3749 60.8307 88.0715 62.4476 88.0715 64.5372C88.0715 66.0199 87.7506 67.256 87.1088 68.246C86.467 69.2361 85.4942 70.0247 84.1908 70.6117L88.8923 79.4921V79.7012H84.0864L80.0116 71.7461ZM76.4443 68.1191H80.0563C81.1807 68.1191 82.0512 67.8333 82.6682 67.2609C83.2851 66.6888 83.5937 65.9006 83.5937 64.8954C83.5937 63.8708 83.3027 63.0647 82.7205 62.4775C82.1384 61.8905 81.2452 61.5969 80.0413 61.5969H76.4443V68.1191Z" fill="#5C6EA6"/>
<path d="M104.549 70.2833H95.9522V76.1042H106.042V79.7012H91.4745V57.9702H106.012V61.5969H95.9522V66.7759H104.549V70.2833Z" fill="#5C6EA6"/>
<path d="M113.147 72.0446V79.7012H108.669V57.9702H117.147C118.778 57.9702 120.214 58.2687 121.453 58.8656C122.692 59.4627 123.644 60.311 124.311 61.4104C124.978 62.5099 125.311 63.761 125.311 65.1639C125.311 67.2934 124.582 68.9726 123.124 70.2013C121.667 71.4303 119.649 72.0446 117.072 72.0446H113.147ZM113.147 68.4177H117.147C118.331 68.4177 119.233 68.1393 119.856 67.5818C120.477 67.0247 120.788 66.2286 120.788 65.1938C120.788 64.1292 120.475 63.2684 119.848 62.6118C119.221 61.9552 118.355 61.6169 117.251 61.5969H113.147V68.4177Z" fill="#5C6EA6"/>
<path d="M146.237 69.3281C146.237 71.4674 145.858 73.3431 145.102 74.9549C144.346 76.5668 143.264 77.8108 141.856 78.6862C140.448 79.5619 138.834 79.9997 137.013 79.9997C135.212 79.9997 133.605 79.5668 132.192 78.7011C130.779 77.8354 129.684 76.5991 128.908 74.9921C128.132 73.3853 127.739 71.5369 127.729 69.4474V68.3729C127.729 66.2337 128.114 64.3505 128.886 62.7237C129.657 61.0969 130.746 59.8484 132.154 58.9775C133.562 58.1071 135.172 57.6716 136.983 57.6716C138.794 57.6716 140.403 58.1071 141.811 58.9775C143.219 59.8484 144.309 61.0969 145.08 62.7237C145.851 64.3505 146.237 66.2288 146.237 68.3579V69.3281ZM141.699 68.343C141.699 66.0646 141.291 64.3333 140.475 63.1491C139.659 61.9652 138.495 61.3729 136.983 61.3729C135.48 61.3729 134.321 61.9577 133.505 63.1267C132.689 64.2959 132.276 66.0098 132.266 68.2685V69.3281C132.266 71.547 132.674 73.2683 133.49 74.4922C134.306 75.716 135.48 76.328 137.013 76.328C138.515 76.328 139.67 75.7383 140.475 74.5592C141.281 73.3801 141.689 71.6615 141.699 69.4027V68.343Z" fill="#5C6EA6"/>
<path d="M157.535 71.7461H153.968V79.7012H149.49V57.9702H157.565C160.133 57.9702 162.112 58.5423 163.506 59.6864C164.899 60.8307 165.595 62.4476 165.595 64.5372C165.595 66.0199 165.274 67.256 164.633 68.246C163.991 69.2361 163.018 70.0247 161.715 70.6117L166.416 79.4921V79.7012H161.61L157.535 71.7461ZM153.968 68.1191H157.58C158.705 68.1191 159.575 67.8333 160.192 67.2609C160.809 66.6888 161.118 65.9006 161.118 64.8954C161.118 63.8708 160.827 63.0647 160.244 62.4775C159.662 61.8905 158.769 61.5969 157.565 61.5969H153.968V68.1191Z" fill="#5C6EA6"/>
<path d="M184.61 61.5969H177.954V79.7012H173.476V61.5969H166.909V57.9702H184.61V61.5969Z" fill="#5C6EA6"/>
<path d="M63.8353 154.605H46.7253V137.496H63.8353V154.605ZM47.7277 153.603H62.8329V138.498H47.7277V153.603Z" fill="#5C6EA6"/>
<path d="M63.8353 179.045H46.7253V161.935H63.8353V179.045ZM47.7277 178.042H62.8329V162.938H47.7277V178.042Z" fill="#5C6EA6"/>
<path d="M63.8353 203.485H46.7253V186.375H63.8353V203.485ZM47.7277 202.482H62.8329V187.378H47.7277V202.482Z" fill="#5C6EA6"/>
<path d="M63.8353 227.924H46.7253V210.815H63.8353V227.924ZM47.7277 226.922H62.8329V211.817H47.7277V226.922Z" fill="#5C6EA6"/>
<path d="M124.588 26.8323C119.699 26.8323 115.722 23.2638 115.722 18.8775C115.722 14.4912 119.699 10.9227 124.588 10.9227C129.477 10.9227 133.454 14.4912 133.454 18.8775C133.454 23.2638 129.477 26.8323 124.588 26.8323ZM124.588 15.0173C122.216 15.0173 120.286 16.7489 120.286 18.8775C120.286 21.0061 122.216 22.7377 124.588 22.7377C126.96 22.7377 128.89 21.0061 128.89 18.8775C128.89 16.7489 126.96 15.0173 124.588 15.0173Z" fill="url(#paint1_linear_413_917)"/>
<path d="M78.8881 48.2213H116.501C116.745 48.2213 116.983 48.1442 117.18 48.0011C121.614 44.7839 127.605 44.7491 132.076 47.9142L132.21 48.0089C132.405 48.1473 132.639 48.2213 132.878 48.2213H170.462C173.698 48.2213 176.322 45.5982 176.322 42.3621V31.4811C176.322 28.2451 173.698 25.6217 170.462 25.6217H78.8881C75.652 25.6217 73.0287 28.2451 73.0287 31.4811V42.3621C73.0287 45.5982 75.652 48.2213 78.8881 48.2213ZM115.787 45.9165H78.8881C76.9251 45.9165 75.3336 44.325 75.3336 42.3621V31.4811C75.3336 29.5182 76.9251 27.9267 78.8881 27.9267H170.462C172.425 27.9267 174.016 29.5182 174.016 31.4811V42.3621C174.016 44.325 172.425 45.9165 170.462 45.9165H133.591C133.363 45.9165 133.141 45.8463 132.951 45.7215C127.928 42.4342 121.44 42.4397 116.427 45.7215C116.236 45.8463 116.015 45.9165 115.787 45.9165Z" fill="url(#paint2_linear_413_917)"/>
<path d="M83.8373 32.1361H165.339C167.051 32.1361 168.439 30.7483 168.439 29.0361V23.2044C168.439 21.4924 167.051 20.1044 165.339 20.1044H83.8373C82.1251 20.1044 80.7372 21.4924 80.7372 23.2044V29.0361C80.7372 30.7483 82.1251 32.1361 83.8373 32.1361Z" fill="url(#paint3_linear_413_917)"/>
<path d="M44.0783 141.273L55.5278 149.355L77.0799 130.497" stroke="#2B4483" stroke-width="6" stroke-linecap="round"/>
<path d="M44.0783 166.109L55.5278 174.191L77.0799 155.334" stroke="#2B4483" stroke-width="6" stroke-linecap="round"/>
<path d="M44.0783 191.372L55.5278 199.454C55.5278 199.454 75.9956 181.545 77.0386 180.632" stroke="#2B4483" stroke-width="6" stroke-linecap="round"/>
<path d="M44.0783 216.126L55.5278 224.208C55.5278 224.208 67.7901 213.479 73.8157 208.206" stroke="#2B4483" stroke-width="6" stroke-linecap="round"/>
<defs>
<linearGradient id="paint0_linear_413_917" x1="132.046" y1="-66.1769" x2="119.697" y2="302.228" gradientUnits="userSpaceOnUse">
<stop stop-color="#005888"/>
<stop offset="0.56" stop-color="#0E4786"/>
<stop offset="1" stop-color="#1C3785"/>
</linearGradient>
<linearGradient id="paint1_linear_413_917" x1="124.532" y1="10.7923" x2="124.373" y2="23.3168" gradientUnits="userSpaceOnUse">
<stop stop-color="white"/>
<stop offset="0.09" stop-color="#CCCCCC"/>
<stop offset="0.18" stop-color="#999999"/>
<stop offset="0.36" stop-color="#666666"/>
<stop offset="0.53" stop-color="#333333"/>
<stop offset="0.7" stop-color="#808080"/>
<stop offset="0.87" stop-color="#CCCCCC"/>
</linearGradient>
<linearGradient id="paint2_linear_413_917" x1="124.268" y1="23.0707" x2="124.642" y2="53.1959" gradientUnits="userSpaceOnUse">
<stop stop-color="white"/>
<stop offset="0.09" stop-color="#CCCCCC"/>
<stop offset="0.18" stop-color="#999999"/>
<stop offset="0.36" stop-color="#666666"/>
<stop offset="0.53" stop-color="#333333"/>
<stop offset="0.7" stop-color="#808080"/>
<stop offset="0.87" stop-color="#CCCCCC"/>
</linearGradient>
<linearGradient id="paint3_linear_413_917" x1="123.911" y1="20.3219" x2="123.78" y2="35.0833" gradientUnits="userSpaceOnUse">
<stop stop-color="white"/>
<stop offset="0.09" stop-color="#CCCCCC"/>
<stop offset="0.18" stop-color="#999999"/>
<stop offset="0.36" stop-color="#666666"/>
<stop offset="0.53" stop-color="#333333"/>
<stop offset="0.7" stop-color="#808080"/>
<stop offset="0.87" stop-color="#CCCCCC"/>
</linearGradient>
</defs>
</svg>
