<svg width="155" height="24" viewBox="0 0 155 24" fill="none" xmlns="http://www.w3.org/2000/svg">
<path d="M9.336 23.352C7.56533 23.352 5.89067 23.128 4.312 22.68C2.75467 22.232 1.45333 21.624 0.408 20.856L1.848 16.952C2.85067 17.656 3.992 18.2107 5.272 18.616C6.57333 19.0213 7.928 19.224 9.336 19.224C10.872 19.224 11.9707 18.9893 12.632 18.52C13.3147 18.0293 13.656 17.4213 13.656 16.696C13.656 16.0773 13.4213 15.5867 12.952 15.224C12.4827 14.8613 11.6613 14.552 10.488 14.296L6.872 13.528C2.84 12.6747 0.824 10.584 0.824 7.256C0.824 5.82667 1.208 4.57867 1.976 3.512C2.744 2.424 3.81067 1.58133 5.176 0.983999C6.56267 0.386666 8.16267 0.0879993 9.976 0.0879993C11.5333 0.0879993 12.9947 0.311999 14.36 0.759998C15.7253 1.208 16.856 1.83733 17.752 2.648L16.312 6.296C14.5627 4.90933 12.44 4.216 9.944 4.216C8.6 4.216 7.55467 4.48267 6.808 5.016C6.08267 5.528 5.72 6.2 5.72 7.032C5.72 7.65067 5.944 8.152 6.392 8.536C6.84 8.92 7.61867 9.22933 8.728 9.464L12.344 10.232C16.4827 11.128 18.552 13.1547 18.552 16.312C18.552 17.72 18.168 18.9573 17.4 20.024C16.6533 21.0693 15.5867 21.8907 14.2 22.488C12.8347 23.064 11.2133 23.352 9.336 23.352ZM21.42 23V7.288H26.156V9.56C26.6253 8.74933 27.2653 8.12 28.076 7.672C28.908 7.20267 29.868 6.968 30.956 6.968C32.0653 6.968 33.004 7.21333 33.772 7.704C34.5613 8.19467 35.1587 8.94133 35.564 9.944C36.0547 9.00533 36.7587 8.28 37.676 7.768C38.6147 7.23467 39.6493 6.968 40.78 6.968C42.572 6.968 43.9053 7.512 44.78 8.6C45.6547 9.66667 46.092 11.32 46.092 13.56V23H41.26V13.72C41.26 12.6747 41.0893 11.9173 40.748 11.448C40.428 10.9573 39.8733 10.712 39.084 10.712C38.1667 10.712 37.452 11.032 36.94 11.672C36.428 12.312 36.172 13.2187 36.172 14.392V23H31.34V13.72C31.34 12.6747 31.1693 11.9173 30.828 11.448C30.4867 10.9573 29.932 10.712 29.164 10.712C28.2467 10.712 27.532 11.032 27.02 11.672C26.508 12.312 26.252 13.2187 26.252 14.392V23H21.42ZM55.1055 23.352C53.9322 23.352 52.8975 23.128 52.0015 22.68C51.1055 22.232 50.3908 21.624 49.8575 20.856C49.3455 20.088 49.0895 19.224 49.0895 18.264C49.0895 17.1333 49.3882 16.2267 49.9855 15.544C50.5828 14.8613 51.5535 14.3813 52.8975 14.104C54.2415 13.8053 56.0228 13.656 58.2415 13.656H59.3935V13.112C59.3935 12.1733 59.1802 11.512 58.7535 11.128C58.3268 10.7227 57.6015 10.52 56.5775 10.52C55.7242 10.52 54.8175 10.6587 53.8575 10.936C52.9188 11.192 51.9802 11.5867 51.0415 12.12L49.7295 8.888C50.2842 8.52533 50.9562 8.19467 51.7455 7.896C52.5562 7.59733 53.3988 7.37333 54.2735 7.224C55.1482 7.05333 55.9802 6.968 56.7695 6.968C59.2015 6.968 61.0148 7.52267 62.2095 8.632C63.4042 9.72 64.0015 11.416 64.0015 13.72V23H59.4895V20.632C59.1695 21.464 58.6255 22.1253 57.8575 22.616C57.1108 23.1067 56.1935 23.352 55.1055 23.352ZM56.1935 20.12C57.0895 20.12 57.8468 19.8107 58.4655 19.192C59.0842 18.5733 59.3935 17.7733 59.3935 16.792V16.152H58.2735C56.6308 16.152 55.4682 16.3013 54.7855 16.6C54.1028 16.8773 53.7615 17.368 53.7615 18.072C53.7615 18.6693 53.9642 19.16 54.3695 19.544C54.7962 19.928 55.4042 20.12 56.1935 20.12ZM67.606 23V7.288H72.342V10.008C73.0887 8.17333 74.6887 7.16 77.142 6.968L78.55 6.872L78.838 10.936L76.118 11.224C73.7287 11.4587 72.534 12.6747 72.534 14.872V23H67.606ZM89.443 23.352C85.027 23.352 82.819 21.208 82.819 16.92V10.904H79.843V7.288H82.819V2.68H87.651V7.288H92.291V10.904H87.651V16.728C87.651 17.624 87.8537 18.296 88.259 18.744C88.6857 19.192 89.3577 19.416 90.275 19.416C90.5523 19.416 90.8403 19.384 91.139 19.32C91.459 19.256 91.8003 19.1707 92.163 19.064L92.867 22.584C92.419 22.8187 91.8857 23 91.267 23.128C90.6483 23.2773 90.0403 23.352 89.443 23.352Z" fill="#0AC5A8"/>
<path d="M95.5005 23V0.439999H98.2845L106.637 16.024L114.957 0.439999H117.677V23H114.701V6.456L107.629 19.544H105.613L98.5085 6.52V23H95.5005ZM129.975 23.288C127.415 23.288 125.399 22.5733 123.927 21.144C122.455 19.6933 121.719 17.72 121.719 15.224C121.719 13.624 122.039 12.216 122.679 11C123.34 9.76267 124.247 8.80267 125.399 8.12C126.551 7.43733 127.874 7.096 129.367 7.096C131.522 7.096 133.218 7.78933 134.455 9.176C135.692 10.5413 136.311 12.4293 136.311 14.84V15.928H124.855C125.09 19.1707 126.807 20.792 130.007 20.792C130.903 20.792 131.778 20.6533 132.631 20.376C133.506 20.0987 134.327 19.64 135.095 19L136.055 21.24C135.351 21.88 134.444 22.3813 133.335 22.744C132.226 23.1067 131.106 23.288 129.975 23.288ZM129.495 9.368C128.151 9.368 127.084 9.784 126.295 10.616C125.506 11.448 125.026 12.5573 124.855 13.944H133.591C133.527 12.4933 133.143 11.3733 132.439 10.584C131.735 9.77333 130.754 9.368 129.495 9.368ZM145.786 23.288C144.421 23.288 143.216 22.968 142.171 22.328C141.147 21.6667 140.347 20.728 139.771 19.512C139.195 18.296 138.907 16.856 138.907 15.192C138.907 13.528 139.195 12.0987 139.771 10.904C140.347 9.688 141.147 8.74933 142.171 8.088C143.195 7.42667 144.4 7.096 145.786 7.096C146.96 7.096 148.005 7.352 148.923 7.864C149.84 8.376 150.523 9.06933 150.971 9.944V0.439999H154.203V23H151.035V20.28C150.587 21.2187 149.893 21.9547 148.955 22.488C148.037 23.0213 146.981 23.288 145.786 23.288ZM146.619 20.792C147.941 20.792 149.008 20.312 149.819 19.352C150.629 18.392 151.035 17.0053 151.035 15.192C151.035 13.3787 150.629 12.0027 149.819 11.064C149.008 10.104 147.941 9.624 146.619 9.624C145.275 9.624 144.197 10.104 143.387 11.064C142.576 12.0027 142.171 13.3787 142.171 15.192C142.171 17.0053 142.576 18.392 143.387 19.352C144.197 20.312 145.275 20.792 146.619 20.792Z" fill="#07463C"/>
</svg>
